<?xml version="1.0" standalone="no"?>
<!DOCTYPE svg PUBLIC "-//W3C//DTD SVG 20010904//EN" "http://www.w3.org/TR/2001/REC-SVG-20010904/DTD/svg10.dtd">
<!-- Created using Krita: https://krita.org -->
<svg xmlns="http://www.w3.org/2000/svg" 
    xmlns:xlink="http://www.w3.org/1999/xlink"
    xmlns:krita="http://krita.org/namespaces/svg/krita"
    xmlns:sodipodi="http://sodipodi.sourceforge.net/DTD/sodipodi-0.dtd"
    width="144pt"
    height="144pt"
    viewBox="0 0 144 144">
<defs/>
<path id="shape0" transform="translate(11.8756733930784, 12.3842134561898)" fill="#3EC8F4" d="M93.7766 99.6255C93.7639 99.6166 93.7544 99.6093 93.7482 99.6037C93.7375 99.594 93.726 99.5868 93.7196 99.5738C93.7145 99.5636 93.7113 99.551 93.7174 99.5414C93.751 99.4886 93.7774 99.437 93.8291 99.4017C93.9706 99.305 94.0984 99.2259 94.2605 99.1703C96.4114 98.4315 98.3032 97.9368 100.431 97.1341C101.427 96.7584 102.26 96.364 103.169 95.8096C103.626 95.531 103.945 95.1807 104.296 94.7767C104.694 94.3181 104.971 93.8718 105.297 93.3594C105.482 93.0679 105.608 92.7977 105.754 92.4845C105.902 92.1654 106.023 91.888 106.136 91.5545C106.257 91.1953 106.319 90.875 106.419 90.5092C106.592 89.8717 106.71 89.3158 106.916 88.688C107.528 86.8254 108.218 85.2827 108.753 83.3969C109.36 81.2594 109.835 79.4054 110.176 77.2095C110.534 74.8981 110.542 72.8811 110.744 70.5509C110.812 69.7637 110.883 69.09 110.947 68.3025C111.012 67.5121 111.119 66.8358 111.112 66.0428C111.093 63.5354 110.98 61.3878 110.873 58.8826C110.837 58.0323 110.761 57.3061 110.704 56.4569C110.648 55.6172 110.645 54.8938 110.553 54.0573C110.133 50.2403 109.699 46.9771 109.241 43.1645C109.154 42.4362 109.113 41.8072 108.995 41.0832C108.554 38.366 108.167 36.0377 107.644 33.3349C107.482 32.4996 107.26 31.8021 107.041 30.98C106.915 30.5055 106.81 30.0972 106.657 29.6306C106.276 28.4733 106.06 27.4324 105.517 26.3419C105.171 25.6477 104.549 24.7312 103.65 23.5923L118.144 48.6976C117.825 48.2792 117.58 47.9577 117.408 47.7328C117.029 47.2382 116.714 46.8062 116.324 46.3206C116.062 45.995 115.851 45.7008 115.545 45.4161C114.743 44.6695 114.05 44.0288 113.166 43.381C112.006 42.5305 110.928 41.9227 109.718 41.1444C108.519 40.373 107.489 39.7163 106.284 38.9533C105.685 38.5738 105.174 38.2454 104.566 37.88C103.442 37.2039 102.45 36.6707 101.336 35.9778C99.5845 34.8879 98.1549 33.8384 96.3794 32.7873C94.977 31.957 93.7329 31.3147 92.2648 30.607C91.5122 30.2442 90.8265 30.0246 90.0436 29.733C89.3658 29.4805 88.7819 29.2706 88.0923 29.0526C86.8018 28.6448 85.6953 28.2932 84.3874 27.9456C83.5159 27.7139 82.7582 27.5522 81.8696 27.3988C78.7855 26.866 76.1447 26.3783 73.0396 25.9856C69.4978 25.5375 66.4549 25.1357 62.8876 24.9976C56.9387 24.7674 51.8229 24.6127 45.8782 24.9343C42.4868 25.1177 39.6408 25.8743 36.2913 26.4364C35.6685 26.541 35.136 26.6531 34.5323 26.8385C32.6119 27.4285 30.9347 27.8643 29.0858 28.65C27.6594 29.2562 26.5495 30.0124 25.2138 30.7984C24.8635 31.0045 24.583 31.2167 24.2745 31.4813C23.2972 32.3194 22.3903 32.9758 21.5437 33.9456C20.7122 34.8981 20.1765 35.8571 19.5143 36.9342C19.1706 37.4932 18.9271 38.005 18.6753 38.611C17.7837 40.756 17.0471 42.607 16.2497 44.7888C16.0944 45.2137 16.0166 45.5994 15.9572 46.048C15.7711 47.4536 15.6612 48.6651 15.5494 50.0786C15.5125 50.545 15.524 50.9475 15.5328 51.4153C15.5828 54.0826 15.7029 56.3675 15.7174 59.0352C15.7516 65.2727 15.7769 70.6201 15.6719 76.8568C15.654 77.9234 15.4908 78.8298 15.3665 79.8893C15.191 81.3852 14.9343 82.6557 14.8156 84.1571C14.6014 86.8659 14.4709 89.1937 14.4161 91.9104C14.4027 92.5768 14.5251 93.1442 14.6211 93.8039C14.7151 94.4507 14.8179 95.0024 14.9586 95.6407C15.1684 96.5924 15.3757 97.4021 15.6221 98.345C15.7909 98.9908 15.9038 99.5566 16.1448 100.179C16.4788 101.041 17.0099 102.251 17.7379 103.809L3.3415 78.8734C4.47976 80.3837 5.38902 81.517 6.06928 82.273C6.59916 82.8619 7.1085 83.3263 7.75719 83.781C10.0905 85.4166 12.1483 86.7369 14.5728 88.2339C15.542 88.8323 16.4384 89.2309 17.4455 89.763C18.4844 90.3119 19.3861 90.7613 20.4184 91.3224C22.3598 92.3777 23.9525 93.4183 25.9414 94.3809C29.122 95.9203 31.8994 97.1379 35.1746 98.4643C36.331 98.9326 37.3779 99.1865 38.5851 99.5015C40.9795 100.126 43.0213 100.733 45.4606 101.148C49.606 101.855 53.1893 102.291 57.3742 102.702C59.8754 102.948 62.0355 102.955 64.5478 103.025C69.9354 103.176 74.5543 103.381 79.9438 103.336C83.1982 103.308 85.996 103.2 89.2278 102.816C91.7052 102.522 93.8014 102.037 96.2145 101.403C97.1028 101.17 97.8285 100.82 98.6181 100.351C99.1674 100.025 99.6239 99.6739 99.998 99.156C101.416 97.1926 102.545 95.4385 103.703 93.3112C104.579 91.7004 105.321 90.2786 105.794 88.5067C106.846 84.5624 107.254 81.0674 108.038 77.0612C108.289 75.7783 108.598 74.6931 108.752 73.395C109.131 70.1995 109.667 67.4527 109.561 64.2364C109.46 61.1517 108.882 58.5313 108.164 55.5295C107.509 52.7938 106.789 50.4684 105.653 47.8948C105.183 46.8296 104.281 45.4324 102.946 43.7032L117.12 68.2524C114.548 65.3371 112.511 63.152 111.009 61.6971C108.977 59.7294 107.257 57.9698 104.896 56.4121C101.717 54.3142 98.6786 53.035 95.2785 51.3176C94.2927 50.8197 93.3925 50.5114 92.373 50.0868C91.5585 49.7475 90.8599 49.4574 90.0385 49.135C87.787 48.2513 85.9337 47.2523 83.5936 46.6408C79.3869 45.5415 75.6977 44.925 71.4002 44.2645C69.2654 43.9364 67.4047 43.7862 65.2451 43.8206C63.6213 43.8465 62.2261 44.0608 60.6459 44.436C59.1265 44.7967 57.8539 45.2591 56.4355 45.9124C55.1167 46.5199 54.0991 47.2596 52.8627 48.0209C52.1825 48.4398 51.6268 48.8419 50.9611 49.2835C50.2714 49.741 49.6695 50.1175 48.9899 50.59C47.9531 51.311 47.0202 51.8752 46.0579 52.6929C45.1121 53.4965 44.2619 54.1851 43.5568 55.2065C40.3395 59.8667 37.7344 63.9726 34.89 68.8694C33.8065 70.7347 32.9636 72.4179 32.3568 74.4879C31.2117 78.394 30.587 81.8438 29.9098 85.8577C29.6763 87.2411 29.6682 88.4636 29.7625 89.8634C29.8352 90.9444 30.1397 91.8404 30.3836 92.8961C30.8613 94.9646 31.2572 96.7423 31.8238 98.7882C32.2149 100.2 32.6432 101.384 33.1182 102.77C33.2524 103.162 33.3947 103.487 33.5636 103.865C33.7806 104.351 34.103 105.039 34.5306 105.929L19.9508 80.6762C20.4856 81.2319 20.9324 81.6076 21.2911 81.8034C22.7711 82.6113 24.1226 83.143 25.6752 83.8007C26.7118 84.2397 27.6115 84.5955 28.6847 84.9353C31.1804 85.7254 33.2776 86.6345 35.8658 87.0268C41.093 87.8192 45.6398 87.9853 50.917 88.3053C53.4902 88.4614 55.7104 88.5658 58.282 88.3861C61.9046 88.133 65.0208 87.8219 68.5739 87.0717C71.9918 86.35 74.8361 85.355 78.1312 84.195C79.6164 83.6721 80.7714 82.9376 82.1996 82.2747C83.497 81.6726 84.6299 81.2015 85.9185 80.5808C87.7149 79.7154 89.296 79.0444 91.0123 78.0294C92.4664 77.1696 93.6915 76.3656 94.9508 75.2395C97.7069 72.775 100.045 70.6075 102.451 67.8007C103.531 66.5412 104.123 65.2025 104.84 63.7061C105.758 61.7895 106.461 60.0982 107.111 58.0747C107.593 56.5713 107.94 55.2393 108.064 53.6651C108.188 52.0821 107.945 50.7176 107.813 49.1352C107.751 48.3903 107.616 47.7612 107.511 47.0212C107.408 46.2987 107.363 45.6722 107.22 44.9567C106.947 43.5927 106.79 42.3953 106.323 41.0847C105.782 39.5653 105.078 38.3598 104.358 36.9165C104.033 36.2641 103.696 35.7355 103.338 35.1002C103.218 34.8861 103.045 34.5807 102.82 34.1839L117.375 59.3943C117.106 58.9413 116.874 58.6144 116.678 58.4136C116.341 58.0682 115.99 57.8357 115.59 57.5663C115.319 57.3845 115.07 57.251 114.768 57.1292C114.199 56.8999 113.713 56.6713 113.11 56.566C111.813 56.3397 110.681 56.1051 109.367 56.187C105.15 56.4498 101.53 56.7983 97.3709 57.5466C94.6632 58.0338 92.401 58.773 89.8126 59.7054C87.0815 60.6893 84.8219 61.7527 82.2052 63.0098C80.9592 63.6084 79.9871 64.3023 78.7933 64.9992C77.1426 65.9628 75.66 66.6812 74.0782 67.7541C72.8143 68.6113 71.8671 69.5306 70.6857 70.4983C70.1966 70.8989 69.8408 71.3271 69.3055 71.6634C66.8564 73.2018 64.6764 74.3878 62.1769 75.843C61.5709 76.1959 61.0461 76.4891 60.4328 76.8292C59.8583 77.1478 59.3654 77.4204 58.7833 77.7249C58.202 78.0288 57.6836 78.2507 57.1091 78.5673C55.6286 79.3832 54.3164 80.0168 52.9133 80.9597C52.0036 81.5711 51.2811 82.1927 50.5286 82.9896C49.8685 83.6888 49.3953 84.3787 48.9045 85.2056C48.596 85.7254 48.4178 86.2247 48.2621 86.8087C48.1772 87.1273 48.1464 87.4301 48.2261 87.75C48.4174 88.5179 48.7015 89.1429 49.0238 89.8657C49.133 90.1107 49.3284 90.4402 49.6102 90.8543L35.0782 65.6842C35.5027 66.2952 35.8736 66.7166 36.1909 66.9484C36.9734 67.52 37.7081 67.9512 38.6222 68.2731C41.7243 69.3656 44.4128 70.2567 47.6224 70.9744C50.6463 71.6506 53.2876 72.1271 56.3839 72.2447C60.5407 72.4026 64.1195 72.1691 68.259 71.7585C70.2415 71.5618 71.9203 71.1353 73.8139 70.5159C74.8955 70.1621 75.7155 69.5872 76.6908 69.0007C77.1425 68.729 77.498 68.4391 77.8768 68.0726C78.8429 67.1376 79.6447 66.3062 80.5251 65.29C80.9063 64.85 81.1829 64.4278 81.4721 63.9225C82.3923 62.3148 83.2398 60.9595 83.9767 59.26C84.5146 58.0193 84.8764 56.8964 85.097 55.5622C85.286 54.419 85.1839 53.4095 85.1355 52.2518C85.1048 51.5167 85.0032 50.8902 84.8714 50.1664C84.815 49.8561 84.7291 49.5947 84.5996 49.307C84.5185 49.1268 84.3715 48.8858 84.1588 48.5838L98.728 73.8184C97.6789 72.9863 96.861 72.3608 96.2744 71.942C95.8958 71.6717 95.5393 71.4879 95.1369 71.2545C94.5956 70.9405 94.1286 70.6764 93.5784 70.3783C93.2438 70.197 92.9556 70.0429 92.6093 69.885C91.3982 69.3329 90.3473 68.8882 89.1298 68.3504C88.7377 68.1772 88.1778 67.9291 87.4503 67.606L72.9155 42.4312C73.6603 42.8094 74.2384 43.0892 74.6498 43.2704C75.8374 43.7937 76.8834 44.1771 78.0701 44.7023C78.4254 44.8595 78.7138 45.0288 79.0526 45.2189C79.6132 45.5335 80.0859 45.8169 80.6393 46.1439C81.0386 46.3799 81.3934 46.5631 81.7745 46.8274C82.3424 47.221 83.1371 47.8065 84.1588 48.5838L98.728 73.8184C98.9423 74.1224 99.0902 74.3651 99.1717 74.5466C99.2978 74.8274 99.3812 75.083 99.4323 75.3865C99.5494 76.083 99.6303 76.6866 99.6505 77.3926C99.6833 78.5336 99.785 79.5298 99.5833 80.6533C99.3484 81.9625 98.9551 83.0539 98.4162 84.27C97.6655 85.9643 96.827 87.3235 95.9135 88.9357C95.6241 89.4464 95.361 89.8821 94.9822 90.3305C94.1119 91.3607 93.3184 92.2055 92.3543 93.1485C91.9779 93.5167 91.6206 93.8068 91.1626 94.0666C90.1709 94.6293 89.3317 95.189 88.2314 95.4878C86.2692 96.0207 84.524 96.256 82.4974 96.4201C78.3526 96.7559 74.7817 97.0792 70.6267 96.9139C67.5192 96.7902 64.8811 96.2444 61.839 95.5983C58.6994 94.9315 56.058 94.1324 52.9962 93.1696C52.1538 92.9047 51.4405 92.5974 50.7116 92.099C50.3915 91.8801 50.0243 91.4652 49.6102 90.8543L35.0782 65.6842C34.7999 65.2748 34.6067 64.9492 34.4985 64.7072C34.1681 63.9685 33.876 63.3307 33.6751 62.5469C33.5911 62.2193 33.6115 61.9082 33.6969 61.5811C33.8492 60.9982 34.0224 60.4954 34.344 59.986C34.8481 59.1874 35.353 58.5373 36.0324 57.8814C36.8151 57.126 37.5771 56.5697 38.4923 55.9818C39.9147 55.0681 41.2152 54.4187 42.6951 53.6015C43.269 53.2846 43.7769 53.0428 44.3595 52.7421C44.9437 52.4405 45.4493 52.1912 46.0287 51.8806C46.6469 51.5493 47.1822 51.2736 47.7808 50.9082C50.2509 49.4004 52.3801 48.125 54.7946 46.5298C55.3221 46.1812 55.6749 45.7514 56.1739 45.3631C57.3732 44.4299 58.3735 43.5873 59.6451 42.7552C61.2445 41.7087 62.6968 40.9416 64.3628 40.0049C65.5685 39.3271 66.5958 38.7295 67.8485 38.1433C70.4769 36.9131 72.7053 35.7776 75.4443 34.8187C78.0553 33.9047 80.3664 33.3025 83.0882 32.8082C87.2182 32.0584 90.8036 31.669 94.9822 31.2712C96.2234 31.1531 97.306 31.1879 98.5438 31.3371C99.1523 31.4105 99.635 31.6676 100.202 31.9003C100.511 32.027 100.759 32.1759 101.037 32.3603C101.423 32.6166 101.772 32.8248 102.096 33.1563C102.301 33.366 102.542 33.7086 102.82 34.1839L117.375 59.3943C117.585 59.7641 117.745 60.0487 117.858 60.2483C118.192 60.8436 118.508 61.3386 118.812 61.9504C119.516 63.3698 120.209 64.5541 120.736 66.0485C121.193 67.345 121.343 68.5295 121.608 69.8784C121.749 70.5922 121.796 71.2162 121.896 71.9369C121.996 72.6654 122.12 73.2857 122.18 74.0188C122.307 75.6006 122.558 76.9645 122.429 78.5462C122.301 80.1079 121.937 81.4249 121.452 82.9151C120.796 84.9358 120.103 86.6305 119.181 88.5444C118.462 90.0344 117.855 91.3587 116.777 92.6136C114.367 95.4197 112.055 97.6155 109.285 100.067C108.022 101.185 106.761 101.933 105.299 102.775C103.571 103.77 101.979 104.418 100.192 105.304C98.9141 105.937 97.8252 106.494 96.5413 107.115C95.1241 107.801 93.9706 108.547 92.4751 109.039C89.1322 110.14 86.2204 110.985 82.7645 111.651C79.1888 112.34 76.0692 112.661 72.4356 112.901C69.863 113.071 67.6445 112.952 65.0697 112.819C59.8364 112.547 55.3289 112.446 50.1358 111.743C47.5957 111.399 45.5189 110.577 43.0637 109.84C41.9903 109.519 41.1036 109.139 40.0636 108.722C38.5586 108.118 37.2415 107.654 35.7938 106.923C35.459 106.754 35.0379 106.423 34.5306 105.929L19.9508 80.6762C19.5442 79.8219 19.2379 79.1618 19.0321 78.6959C18.8709 78.3313 18.7363 78.0162 18.6085 77.6385C18.1456 76.2704 17.7228 75.1041 17.345 73.7101C16.8034 71.7122 16.4383 69.9741 15.9836 67.9547C15.7465 66.9015 15.4385 66.0095 15.3684 64.9322C15.2778 63.5393 15.2794 62.3208 15.5277 60.9472C16.24 57.0071 16.9248 53.6276 18.104 49.8013C18.7349 47.7543 19.612 46.1071 20.6743 44.247C23.5041 39.2918 26.0233 35.0899 29.2092 30.3557C29.9019 29.3263 30.7643 28.646 31.712 27.8451C32.6762 27.0303 33.6175 26.4794 34.652 25.756C35.3309 25.2813 35.9236 24.8899 36.6073 24.422C37.2674 23.9704 37.8138 23.554 38.4913 23.1289C39.7214 22.3573 40.7314 21.6018 42.0549 21.0045C43.4836 20.3598 44.7838 19.9679 46.3078 19.6015C47.8728 19.2253 49.2417 18.9076 50.8513 18.8897C53.0452 18.8654 54.9261 19.131 57.0919 19.4818C61.3888 20.1776 65.0827 20.783 69.296 21.8766C71.6198 22.4798 73.4798 23.4194 75.7079 24.3136C76.5745 24.6615 77.2847 25.0355 78.1339 25.4239C79.1773 25.901 80.0926 26.2667 81.1155 26.7865C84.4877 28.5002 87.5285 29.7239 90.6882 31.8036C93.0618 33.3659 94.7822 35.1446 96.8212 37.1239C98.3262 38.5849 100.368 40.778 102.946 43.7032L117.12 68.2524C118.479 70.0201 119.399 71.4477 119.879 72.5351C121.006 75.0878 121.715 77.3974 122.357 80.113C123.06 83.088 123.617 85.6862 123.709 88.7417C123.806 91.9539 123.274 94.6963 122.893 97.8873C122.737 99.1852 122.414 100.267 122.179 101.553C121.429 105.643 121.088 109.213 120.077 113.246C119.627 115.042 118.86 116.468 118.027 118.121C116.908 120.341 115.887 122.223 114.51 124.292C114.156 124.823 113.681 125.163 113.128 125.482C112.33 125.942 111.601 126.31 110.698 126.489C108.182 126.989 105.984 127.201 103.427 127.411C100.169 127.678 97.3665 127.827 94.0975 127.85C88.7172 127.888 84.1055 127.733 78.7271 127.584C76.207 127.515 74.0418 127.475 71.5331 127.226C67.3524 126.811 63.7706 126.39 59.6285 125.688C57.189 125.274 55.1471 124.668 52.7534 124.042C51.5436 123.725 50.4992 123.457 49.3373 122.995C46.0921 121.703 43.3239 120.551 40.1765 119.037C38.1642 118.069 36.5733 116.983 34.6145 115.911C33.5895 115.35 32.6894 114.909 31.6523 114.37C30.6584 113.854 29.772 113.473 28.8116 112.896C26.4301 111.467 24.4026 110.214 22.1115 108.643C21.4643 108.2 20.9613 107.737 20.4349 107.155C19.7622 106.411 18.8632 105.296 17.7379 103.809L3.3415 78.8734C2.60635 77.3043 2.07004 76.0852 1.73257 75.2162C1.49047 74.5927 1.37753 74.0257 1.20784 73.3787C0.959615 72.4324 0.749589 71.6201 0.538712 70.6647C0.398313 70.0287 0.297813 69.4786 0.204648 68.8339C0.109401 68.1748 -0.0106266 67.608 0.000752176 66.9422C0.0474815 64.2078 0.178409 61.8653 0.370358 59.1373C0.478564 57.5995 0.700561 56.2933 0.857937 54.7597C0.968443 53.6828 1.12096 52.7617 1.13569 51.6792C1.22091 45.4193 1.17037 40.0526 1.14337 33.7922C1.13204 31.1658 1.05349 28.9154 1.02619 26.2891C1.02138 25.8266 1.01457 25.4288 1.05161 24.9677C1.16527 23.5527 1.27272 22.3397 1.45649 20.932C1.5154 20.4808 1.58128 20.0891 1.74403 19.6641C2.56201 17.5284 3.3406 15.7279 4.2529 13.6307C4.51415 13.0302 4.75575 12.5199 5.09548 11.96C5.75485 10.8733 6.29235 9.91263 7.10297 8.93355C7.93208 7.93214 8.79581 7.21029 9.75476 6.33242C10.0546 6.0579 10.3354 5.84107 10.6928 5.64727C12.0576 4.90718 13.2241 4.25141 14.6638 3.67044C16.5261 2.91898 18.1861 2.44222 20.1048 1.84936C20.708 1.66296 21.2382 1.53647 21.863 1.4459C25.2602 0.953507 28.1604 0.349274 31.5891 0.184776C37.5189 -0.0997159 42.6169 -0.0147537 48.5508 0.165502C52.0848 0.272856 55.1067 0.588273 58.6176 1.00583C61.7238 1.37527 64.3567 1.90736 67.4438 2.4125C68.3055 2.5535 69.0524 2.64054 69.8995 2.85191C71.2095 3.17874 72.3127 3.53486 73.5981 3.94795C74.3009 4.17381 74.8878 4.41307 75.5773 4.6766C76.3587 4.97524 77.0473 5.18992 77.8004 5.55404C79.2705 6.2648 80.5181 6.90644 81.9203 7.74331C83.7098 8.81144 85.1483 9.87936 86.9107 10.9916C88.0375 11.7027 89.0353 12.2602 90.1739 12.9522C90.7769 13.3187 91.2907 13.6379 91.8866 14.0158C93.0948 14.7818 94.1232 15.4496 95.3282 16.2204C96.5236 16.9849 97.5876 17.5817 98.7451 18.4026C99.5827 18.9967 100.258 19.5672 101.019 20.2565C101.333 20.5404 101.541 20.8442 101.806 21.174C102.195 21.6587 102.51 22.0885 102.887 22.5828C103.066 22.8175 103.321 23.154 103.65 23.5923L118.144 48.6976C119.061 49.8656 119.697 50.8048 120.05 51.5154C120.584 52.5858 120.79 53.6098 121.158 54.7476C121.304 55.1992 121.401 55.5949 121.518 56.0547C121.72 56.845 121.918 57.5175 122.068 58.3191C122.572 61.0017 122.954 63.3104 123.384 66.0056C123.5 66.7295 123.544 67.3575 123.63 68.0856C124.073 71.8704 124.49 75.1103 124.896 78.8994C124.985 79.7331 124.987 80.454 125.042 81.2907C125.098 82.1396 125.173 82.8655 125.211 83.7153C125.323 86.2333 125.445 88.3917 125.471 90.9121C125.479 91.7056 125.371 92.3825 125.307 93.1734C125.243 93.962 125.171 94.6365 125.105 95.4248C124.908 97.7663 124.908 99.7928 124.555 102.116C124.22 104.318 123.725 106.171 123.143 108.322C122.62 110.257 121.974 111.857 121.402 113.779C121.207 114.436 121.117 115.02 120.955 115.686C120.864 116.059 120.8 116.383 120.681 116.748C120.572 117.085 120.448 117.363 120.304 117.687C120.161 118.008 120.046 118.289 119.863 118.589C119.545 119.112 119.281 119.573 118.878 120.034C118.528 120.435 118.202 120.785 117.731 121.032C116.779 121.531 115.869 121.749 114.867 122.138C112.767 122.954 110.948 123.605 108.871 124.476C108.709 124.543 108.614 124.678 108.497 124.808C108.45 124.86 108.437 124.923 108.409 124.987C108.405 124.996 108.403 125.005 108.407 125.013C108.413 125.027 108.426 125.034 108.436 125.044C108.444 125.051 108.455 125.061 108.469 125.073L108.469 125.073Z" sodipodi:nodetypes="cccccccccccccccccccccccccccccccccccccccccccccccccccccccccccccccccccccccccccccccccccccccccccccccccccccccccccccccccccccccccccccccccccccccccccccccccccccccccccccccccccccccccccccccccccccccccccccccccccccccccccccccccccccccccccccccccccccccccccccccccccccccccccccccccccccccccccccccccccccccccccccccccccccccccccccccccccccccccccccccccccccccccccccccccccccccccccccccccccccccccccccccccccccccccccccccc"/>
</svg>
