<?xml version="1.0" standalone="no"?>
<!DOCTYPE svg PUBLIC "-//W3C//DTD SVG 20010904//EN" "http://www.w3.org/TR/2001/REC-SVG-20010904/DTD/svg10.dtd">
<!-- Created using Krita: https://krita.org -->
<svg xmlns="http://www.w3.org/2000/svg" 
    xmlns:xlink="http://www.w3.org/1999/xlink"
    xmlns:krita="http://krita.org/namespaces/svg/krita"
    xmlns:sodipodi="http://sodipodi.sourceforge.net/DTD/sodipodi-0.dtd"
    width="144pt"
    height="144pt"
    viewBox="0 0 144 144">
<defs/>
<path id="shape0" transform="translate(12.5709439700526, 2.62002152434738)" fill="#F5BD27" d="M7.53917 123.132C2.63917 114.645 0.189175 110.401 0.189174 110.401C0.190961 110.393 0.192233 110.387 0.192993 110.382C0.219825 110.226 0.253477 110.094 0.269089 109.936C0.33795 109.24 0.440422 108.644 0.434208 107.945C0.427849 107.229 0.301758 106.622 0.233315 105.91C0.206934 105.635 0.17456 105.401 0.163283 105.125C0.0940088 103.432 -0.0206522 101.981 0.00321242 100.287C0.0156498 99.4037 0.17087 98.6553 0.266782 97.7774C0.317379 97.3144 0.363322 96.9177 0.421804 96.4555C0.487106 95.9395 0.543565 95.4971 0.620437 94.9826C0.736865 94.2034 0.863811 93.5397 0.974052 92.7596C1.06997 92.0808 1.12743 91.4958 1.20937 90.8152C1.2657 90.3474 1.28803 89.9426 1.3691 89.4785C1.49352 88.7662 1.55343 88.1384 1.79593 87.4572C2.34654 85.9105 2.91519 84.6181 3.62622 83.1384C4.29601 81.7444 4.92575 80.5733 5.73649 79.2563C6.42799 78.1331 7.06442 77.1898 7.91101 76.1783C8.85646 75.0487 9.67167 74.0527 10.8413 73.1573C11.5405 72.6219 12.3103 72.419 13.1534 72.1647C15.0992 71.5776 16.817 71.2564 18.7879 70.7598C19.2535 70.6425 19.6464 70.5172 20.1146 70.4109C20.8144 70.2521 21.4146 70.1116 22.124 70.0027C23.1032 69.8524 23.9487 69.7636 24.935 69.6709C26.1175 69.5597 27.1329 69.3614 28.3191 69.4204C29.1287 69.4607 29.7976 69.7165 30.5734 69.9513C31.6824 70.287 32.603 70.6661 33.6969 71.0481C34.1003 71.189 34.4422 71.3216 34.8512 71.4452C37.5902 72.273 39.9454 72.9575 42.6901 73.7662C43.4032 73.9763 44.019 74.141 44.7307 74.3559C45.9288 74.7177 46.9377 75.0889 48.1463 75.4139C50.9168 76.1589 53.2797 76.8651 56.096 77.4121C58.5831 77.8952 60.7553 78.0726 63.2734 78.3522C64.6442 78.5044 65.8241 78.6249 67.2033 78.6454C69.0199 78.6725 70.5824 78.6518 72.3919 78.4881C72.9464 78.4379 73.4123 78.2718 73.9175 78.0377C74.8951 77.5848 75.7066 77.131 76.605 76.536C77.8797 75.6918 78.9441 74.9185 80.1138 73.9339C81.0808 73.1199 81.7959 72.2966 82.6959 71.409C83.0407 71.0689 83.3559 70.7949 83.6701 70.4264C84.3981 69.5725 84.9964 68.8179 85.6701 67.9205C85.8561 67.6726 85.992 67.4403 86.1225 67.1591C86.7072 65.8994 87.1969 64.813 87.7112 63.5229C87.8436 63.1907 87.9172 62.8878 87.9666 62.5335C88.132 61.3483 88.3076 60.3296 88.3238 59.133C88.3478 57.3505 88.1718 55.8257 88.0812 54.0453C88.0434 53.302 88.0075 52.665 87.9568 51.9225C87.932 51.5594 87.9189 51.2467 87.8654 50.8867C87.717 49.89 87.5755 49.0374 87.3804 48.0487C87.2855 47.568 87.1499 47.1683 87.0376 46.6913C86.9589 46.3574 86.9251 46.0633 86.8349 45.7324C86.4354 44.2662 86.0921 43.009 85.6391 41.5585C85.4738 41.0293 85.2497 40.6047 85.0695 40.0804C84.3228 37.9081 83.7063 36.0381 82.9911 33.8552C82.8173 33.3246 82.6872 32.8638 82.5298 32.3281C82.2267 31.2967 81.9603 30.4143 81.6755 29.3776C81.2725 27.9103 80.9551 26.645 80.5649 25.1742C80.4814 24.8598 80.4043 24.5917 80.3221 24.277C80.2524 24.0104 80.2016 23.7796 80.1307 23.5134C80.0119 23.0675 79.9058 22.6865 79.7802 22.2424C79.7 21.9588 79.6355 21.7143 79.5427 21.4345C79.4842 21.2582 79.4202 21.1119 79.3484 20.9405C79.274 20.7626 79.2034 20.613 79.125 20.4368C79.0522 20.2728 78.9911 20.1317 78.9165 19.9686C78.8438 19.8098 78.7848 19.672 78.7043 19.517C78.5726 19.2632 78.4371 19.0576 78.3105 18.8012C77.9423 18.0561 77.6416 17.4101 77.2911 16.6564C77.178 16.4133 77.0893 16.2011 76.9862 15.9535C76.8936 15.7314 76.8234 15.5374 76.7319 15.3148C76.5554 14.8856 76.4024 14.5183 76.2207 14.0913C76.1634 13.9566 76.1024 13.8462 76.049 13.7099C75.9438 13.4409 75.8735 13.2028 75.7679 12.9338C75.6739 12.6943 75.5927 12.4886 75.4791 12.2577C75.4286 12.155 75.3449 12.0145 75.2279 11.8363L89.889 37.23C89.8245 37.1365 89.7749 37.0645 89.7404 37.0139C89.6784 36.9233 89.6251 36.8456 89.5639 36.7544C89.5039 36.665 89.4571 36.5851 89.3941 36.4977C89.2616 36.3139 89.1428 36.1603 89.0057 35.9799C88.9093 35.853 88.827 35.7438 88.7269 35.6197C88.6352 35.506 88.5489 35.4148 88.4579 35.3005C88.4029 35.2313 88.3629 35.1666 88.31 35.0958C88.1765 34.9171 88.0561 34.7684 87.9252 34.5878C87.8715 34.5137 87.8388 34.4409 87.783 34.3684C87.7334 34.304 87.6765 34.2609 87.6252 34.1978C87.5762 34.1376 87.5386 34.0825 87.497 34.0169C87.4649 33.9662 87.4223 33.8917 87.3691 33.7936C81.0155 22.778 76.1246 14.3066 72.6962 8.37931C72.6744 8.34156 72.6367 8.29191 72.5833 8.23037C78.9436 19.2421 83.8346 27.7136 87.2563 33.6448C87.2851 33.6948 87.2411 33.625 87.1242 33.4354L72.4491 8.01749C72.422 7.95432 72.4024 7.90526 72.3904 7.8703C72.3723 7.81769 72.369 7.76833 72.3459 7.71768C72.2961 7.60803 72.2335 7.52391 72.1833 7.41445C72.1489 7.33954 72.1278 7.27156 72.1048 7.19241C72.0889 7.13733 72.0677 7.08898 72.0723 7.03182C72.0776 6.96472 72.091 6.90224 72.1324 6.84914C72.2012 6.76083 72.2872 6.71003 72.376 6.6419C72.5346 6.52031 72.6772 6.42513 72.8387 6.30747C73.0326 6.16617 73.1969 6.04236 73.3915 5.90202C73.6897 5.68705 73.9472 5.50548 74.2466 5.29231C74.4658 5.13621 74.6504 4.99761 74.8734 4.84696C75.1566 4.65566 75.3998 4.49187 75.6925 4.31554C76.4786 3.84208 77.1444 3.42087 77.955 2.9908C78.6771 2.60769 79.2852 2.23197 80.0673 1.99448C81.3801 1.59589 82.5603 1.46822 83.9026 1.18492C84.4356 1.07244 84.8898 0.962411 85.4255 0.863674C86.0385 0.750682 86.5639 0.645492 87.1838 0.580153C88.8624 0.403231 90.3057 0.295059 91.9891 0.171884C93.0811 0.0919845 94.0178 0.00390334 95.1127 5.27617e-07C95.1672 -0.000193611 95.2238 0.0531877 95.2825 0.160144L109.948 25.5609C109.977 25.6071 109.989 25.6432 109.984 25.6693C109.964 25.7669 109.936 25.855 109.872 25.9311C109.715 26.1161 109.546 26.2411 109.364 26.4019C109.219 26.5308 109.089 26.6347 108.939 26.7584C108.784 26.8863 108.645 26.9883 108.494 27.1207C108.087 27.4784 107.755 27.8051 107.344 28.1584C107.123 28.3482 106.933 28.5123 106.688 28.6714C105.345 29.5475 104.16 30.2467 102.81 31.1139C102.409 31.3721 102.076 31.6117 101.686 31.8864C101.337 32.1318 101.043 32.349 100.698 32.5998C100.386 32.8262 100.118 33.0191 99.8096 33.2498C99.5542 33.4409 99.3429 33.6147 99.0866 33.8046C98.8402 33.9873 98.6283 34.1434 98.3735 34.3142C98.0931 34.5022 97.8392 34.6425 97.558 34.8293C97.0264 35.1825 96.578 35.496 96.0516 35.8568C95.8091 36.023 95.5998 36.1632 95.3613 36.335C95.113 36.5137 94.9022 36.67 94.6609 36.8581C94.4151 37.0498 94.21 37.2213 93.9696 37.4198C93.601 37.7243 93.2816 37.9813 92.9211 38.2953C92.3987 38.7503 91.9594 39.1501 91.4472 39.6166C91.2163 39.8269 91.0153 40.0044 90.7981 40.2288C90.2767 40.7673 89.8286 41.2289 89.3378 41.7954C88.9751 42.214 88.6831 42.59 88.3615 43.041C87.7965 43.8334 87.2491 44.4792 86.8062 45.3457C86.355 46.2283 86.1525 47.0668 85.8253 48.0024C85.7127 48.3244 85.6497 48.6111 85.5503 48.9374C85.4652 49.2166 85.3714 49.4497 85.2983 49.7323C85.1171 50.432 84.949 51.0303 84.8243 51.7423C84.7461 52.1885 84.7093 52.5795 84.7201 53.0323C84.7299 53.4405 84.8064 53.7863 84.8827 54.1874C84.932 54.4464 85.0126 54.6596 85.0785 54.915C85.1593 55.2285 85.1971 55.5062 85.3019 55.8125C85.7479 57.1161 86.1699 58.2195 86.651 59.5105C87.1359 60.8117 87.5187 61.9406 88.0617 63.2187C88.2739 63.7182 88.6229 64.4106 89.1087 65.2958L74.5865 40.1426C75.2361 40.9573 75.7509 41.5707 76.131 41.9828C76.6963 42.5958 77.2192 43.0852 77.827 43.6561C77.9581 43.7793 78.0952 43.8553 78.2392 43.9632C78.3721 44.0627 78.4766 44.1617 78.6181 44.2484C78.9928 44.4779 79.3239 44.6581 79.7115 44.865C79.8516 44.9397 79.9795 44.9878 80.1245 45.0523C80.196 45.0841 80.2597 45.106 80.3302 45.1401C80.4786 45.212 80.6071 45.2717 80.7494 45.3549C80.8628 45.4213 80.9503 45.4933 81.0592 45.5668C81.2717 45.7102 81.4656 45.8168 81.6677 45.9744C81.9887 46.2247 82.2846 46.423 82.5514 46.7304C82.9933 47.2395 83.3113 47.727 83.6791 48.292C84.1319 48.9876 84.4959 49.6002 84.8939 50.3286C85.3122 51.0944 85.8835 52.2023 86.6078 53.6524L101.174 78.8816C101.458 79.6887 101.644 80.3176 101.73 80.7683C101.896 81.6296 101.937 82.3844 102.018 83.2579C102.056 83.6769 102.053 84.0386 102.069 84.459C102.079 84.7235 102.098 84.9502 102.092 85.2148C102.08 85.8034 102.062 86.3082 102.018 86.8953C102.002 87.1157 101.975 87.3052 101.92 87.5191C101.834 87.8527 101.78 88.1526 101.615 88.4549C101.276 89.0747 100.892 89.5498 100.493 90.1321C100.308 90.4012 100.124 90.6144 99.9452 90.8873C99.7631 91.1643 99.6263 91.414 99.4615 91.7016C99.2892 92.0022 99.1519 92.2657 98.9822 92.5677C98.8144 92.8664 98.6623 93.1177 98.4972 93.4179C98.2438 93.8787 98.0631 94.2944 97.7867 94.7418C96.7473 96.424 95.887 97.8889 94.7398 99.4995C93.9686 100.582 93.212 101.442 92.3152 102.423C91.3524 103.476 90.4549 104.311 89.4322 105.307C89.2662 105.468 89.1105 105.594 88.9209 105.727C88.5525 105.985 88.2229 106.187 87.8401 106.423C87.6238 106.557 87.4332 106.663 87.2097 106.784C86.859 106.974 86.5543 107.129 86.1999 107.311C85.9894 107.42 85.812 107.52 85.5959 107.616C85.0854 107.845 84.6649 108.095 84.1249 108.241C82.629 108.645 81.3144 108.859 79.799 109.181C79.1438 109.321 78.5788 109.424 77.9233 109.562C77.7225 109.604 77.5549 109.662 77.3526 109.697C76.6594 109.816 76.0626 109.902 75.3662 110C75.2309 110.019 75.1136 110.026 74.977 110.032C74.5154 110.055 74.1196 110.088 73.6574 110.084C70.9599 110.057 68.6482 110.001 65.9512 109.945C65.7046 109.94 65.491 109.948 65.2474 109.91C64.7696 109.834 64.3675 109.729 63.896 109.621C63.7078 109.578 63.551 109.523 63.3632 109.478C63.1106 109.417 62.8907 109.381 62.6382 109.32C62.4762 109.28 62.3433 109.222 62.1794 109.192C61.6523 109.093 61.1952 109.04 60.6664 108.951C60.5088 108.925 60.3732 108.903 60.2187 108.863C59.7073 108.728 59.2729 108.599 58.7649 108.452C58.1925 108.287 57.7065 108.13 57.1319 107.973C56.8849 107.905 56.6668 107.873 56.4185 107.811C56.1739 107.749 55.9698 107.675 55.7242 107.619C54.61 107.361 53.6574 107.126 52.5342 106.912C52.0639 106.822 51.6504 106.813 51.1759 106.749C50.8084 106.699 50.4963 106.636 50.1287 106.587C49.4532 106.496 48.8771 106.371 48.1959 106.348C45.7157 106.265 43.5875 106.287 41.1059 106.286C40.8252 106.286 40.5836 106.302 40.3062 106.344C39.908 106.405 39.572 106.489 39.1799 106.581C38.9466 106.636 38.7515 106.701 38.5203 106.764C38.186 106.854 37.899 106.929 37.5642 107.018C37.3446 107.076 37.1543 107.119 36.9363 107.183C36.5215 107.304 36.1674 107.414 35.7565 107.549C35.3124 107.694 34.9352 107.829 34.4936 107.982C34.2132 108.079 33.966 108.145 33.6936 108.263C32.9896 108.568 32.4026 108.866 31.7066 109.189C31.5481 109.263 31.4113 109.324 31.252 109.396C30.9217 109.545 30.6355 109.665 30.3078 109.82C30.0036 109.963 29.7411 110.084 29.447 110.247C29.3102 110.322 29.207 110.41 29.0792 110.501C28.9513 110.591 28.8402 110.667 28.7167 110.763C28.5933 110.859 28.4917 110.947 28.3743 111.05C27.9621 111.413 27.6115 111.727 27.2038 112.095C27.0699 112.215 26.9483 112.312 26.827 112.446C26.6444 112.647 26.4962 112.827 26.3374 113.048C26.196 113.244 26.0943 113.425 25.9711 113.633C25.7656 113.98 25.5954 114.281 25.3985 114.633C25.325 114.764 25.2654 114.879 25.1987 115.014C25.1315 115.15 25.0791 115.268 25.016 115.406C24.9587 115.531 24.9097 115.639 24.8549 115.765C24.7973 115.897 24.7558 116.014 24.6948 116.145C24.614 116.319 24.54 116.466 24.4499 116.635C24.3927 116.742 24.3398 116.832 24.2743 116.934C24.1808 117.08 24.1063 117.21 23.9958 117.344C23.8474 117.523 23.7166 117.678 23.5371 117.826C23.3234 118.003 23.1093 118.113 22.8791 118.268C22.6294 118.436 22.4138 118.577 22.166 118.748C22.0991 118.794 22.0477 118.842 21.9799 118.887C21.9142 118.931 21.8549 118.963 21.7853 119C21.6714 119.06 21.5701 119.105 21.4559 119.164C21.3744 119.207 21.3048 119.243 21.2265 119.291C21.1413 119.344 21.0729 119.395 20.9892 119.45C20.8306 119.553 20.6976 119.647 20.5343 119.743C20.4194 119.81 20.3129 119.853 20.1953 119.916C20.1127 119.96 20.0438 120.001 19.9623 120.047C19.8392 120.116 19.7316 120.172 19.6106 120.245C19.5332 120.292 19.4716 120.339 19.3959 120.388C19.3184 120.439 19.2488 120.477 19.1728 120.53C19.1 120.58 19.0455 120.634 18.9711 120.682C18.9018 120.726 18.8346 120.751 18.7635 120.793C18.6521 120.858 18.5626 120.924 18.45 120.988C18.3811 121.026 18.3184 121.053 18.2457 121.084C18.1815 121.111 18.1231 121.126 18.0591 121.153C18.0361 121.163 18.0046 121.18 17.9647 121.205L3.29697 95.7995C3.33636 95.7742 3.36758 95.7566 3.39063 95.7467C3.45477 95.7192 3.51365 95.7055 3.57814 95.6788C3.65119 95.6485 3.71414 95.6225 3.78323 95.584C3.89615 95.5212 3.98539 95.4546 4.09728 95.3899C4.16867 95.3487 4.2356 95.3238 4.30653 95.2818C4.38216 95.237 4.44216 95.1909 4.51536 95.1422C4.59242 95.091 4.65904 95.048 4.73584 94.9963C4.8109 94.9459 4.87137 94.8966 4.94924 94.8506C5.07096 94.7787 5.18176 94.7286 5.30531 94.6599C5.387 94.6145 5.45408 94.5704 5.53554 94.5245C5.65149 94.4592 5.75373 94.4084 5.86929 94.3424C6.03359 94.2486 6.17476 94.1686 6.33503 94.068C6.41977 94.0149 6.48474 93.9578 6.56879 93.9036C6.64593 93.8538 6.71516 93.8161 6.79519 93.7711C6.90727 93.7081 7.00523 93.6575 7.11762 93.5951C7.1865 93.5569 7.24677 93.526 7.3131 93.4835C7.38137 93.4397 7.43324 93.3923 7.50172 93.3489C7.75533 93.188 7.98031 93.0622 8.23299 92.8998C8.46634 92.7499 8.67878 92.6365 8.89005 92.4568C9.06897 92.3046 9.19095 92.1404 9.33963 91.9586C9.4483 91.8256 9.52951 91.7022 9.62414 91.5589C9.6909 91.4579 9.74125 91.3668 9.80036 91.2611C9.89205 91.097 9.97364 90.9577 10.0549 90.7883C10.1179 90.6569 10.1536 90.5362 10.212 90.4027C10.2665 90.2782 10.3184 90.1738 10.3773 90.0513C10.442 89.9166 10.4981 89.8014 10.5652 89.6678C10.6331 89.5326 10.6892 89.4156 10.763 89.2834C10.9593 88.9317 11.1286 88.6306 11.3365 88.2855C11.4601 88.0803 11.5677 87.9047 11.7097 87.7118C11.8706 87.4934 12.0167 87.3114 12.2006 87.1121C12.3225 86.98 12.448 86.888 12.5811 86.7674C12.9886 86.3981 13.3354 86.0788 13.7453 85.7123C13.8621 85.6078 13.9633 85.5194 14.0858 85.4218C14.2085 85.324 14.318 85.2457 14.4455 85.1543C14.5726 85.0632 14.6761 84.9756 14.8133 84.9004C15.1084 84.7386 15.3717 84.6195 15.6775 84.479C16.007 84.3275 16.2963 84.2129 16.628 84.0663C16.7878 83.9957 16.9208 83.9262 17.0819 83.8584C17.7925 83.5593 18.4007 83.3002 19.1183 83.0182C19.3949 82.9095 19.6398 82.8375 19.9215 82.7426C20.3652 82.5931 20.7489 82.4749 21.1908 82.3199C21.5944 82.1784 21.9313 82.0317 22.3368 81.8955C22.5516 81.8233 22.7425 81.7837 22.9614 81.7251C23.296 81.6356 23.583 81.5594 23.9182 81.4723C24.1515 81.4117 24.35 81.3534 24.5857 81.3032C24.9824 81.2188 25.3225 81.1427 25.7244 81.0881C26.0041 81.0501 26.2472 81.0411 26.5295 81.0391C28.9971 81.0216 31.1132 80.9642 33.5799 81.0323C34.2652 81.0513 34.845 81.1801 35.5221 81.2875C35.9047 81.3482 36.2239 81.4473 36.6057 81.5121C37.085 81.5936 37.5021 81.6231 37.9813 81.7053C39.0743 81.8928 40.0094 82.0643 41.0966 82.2828C41.3424 82.3322 41.5455 82.4069 41.7881 82.4704C42.0417 82.5369 42.2615 82.5846 42.5142 82.6543C43.0843 82.8117 43.5695 82.9588 44.1387 83.1192C44.6451 83.2619 45.0787 83.3858 45.5873 83.5203C45.7453 83.5621 45.8818 83.595 46.0429 83.6228C46.5704 83.7138 47.0275 83.7623 47.5539 83.8596C47.7176 83.8898 47.8507 83.9465 48.0122 83.9865C48.2667 84.0496 48.4889 84.0872 48.7424 84.154C48.9366 84.2052 49.0957 84.2751 49.2906 84.3236C49.7644 84.4415 50.1703 84.5474 50.6517 84.6291C50.8972 84.6707 51.1126 84.6723 51.3616 84.6751C54.0402 84.705 56.3364 84.7245 59.0152 84.7224C59.4768 84.7221 59.8719 84.6894 60.333 84.6682C60.471 84.6619 60.5897 84.6599 60.7269 84.6439C61.4322 84.5613 62.0369 84.4894 62.7395 84.3864C62.9441 84.3564 63.1134 84.297 63.3175 84.2641C63.9923 84.1552 64.5808 84.1212 65.2498 83.9814C66.7576 83.6664 68.0516 83.391 69.532 82.9655C70.0691 82.8111 70.4864 82.5577 70.9966 82.3297C71.2131 82.2329 71.3966 82.1451 71.6082 82.0378C71.9638 81.8575 72.2662 81.698 72.6168 81.5081C72.8403 81.3871 73.0331 81.2849 73.2483 81.1498C73.6297 80.9103 73.9541 80.7003 74.3205 80.4384C74.509 80.3037 74.6617 80.1753 74.8317 80.0179C75.8713 79.0552 76.8044 78.2708 77.7753 77.2389C78.6863 76.2706 79.428 75.397 80.1987 74.3136C81.3453 72.7018 82.206 71.2365 83.2435 69.5524C83.52 69.1036 83.6989 68.6858 83.9509 68.2229C84.1152 67.9211 84.2672 67.6687 84.4329 67.3677C84.6012 67.0619 84.7342 66.7937 84.9052 66.4894C85.068 66.1997 85.2051 65.9494 85.3865 65.671C85.5651 65.3971 85.7533 65.1865 85.9326 64.9131C86.3257 64.3135 86.6932 63.8153 87.0211 63.1778C87.181 62.867 87.2301 62.5627 87.3159 62.224C87.3696 62.0123 87.4011 61.8263 87.419 61.6087C87.4668 61.028 87.4879 60.5286 87.5034 59.9461C87.5103 59.6836 87.4924 59.4584 87.4829 59.1959C87.4677 58.776 87.4711 58.4148 87.4328 57.9964C87.3528 57.1227 87.309 56.3681 87.1453 55.5062C87.0613 55.0637 86.8821 54.4458 86.6078 53.6524L101.174 78.8816C100.426 77.3925 99.8378 76.2544 99.4077 75.4673C99.0259 74.7686 98.6772 74.1804 98.2412 73.5142C97.8904 72.9783 97.5855 72.5167 97.1618 72.0364C96.8988 71.7382 96.6088 71.5459 96.2924 71.3051C96.0957 71.1554 95.907 71.0556 95.6985 70.9227C95.5965 70.8577 95.5117 70.7972 95.4053 70.7397C95.2657 70.6642 95.1411 70.609 94.9967 70.5432C94.9271 70.5115 94.8637 70.493 94.7943 70.4611C94.6444 70.3921 94.5141 70.3358 94.3704 70.2548C93.9732 70.0311 93.6342 69.8361 93.2497 69.5912C93.1066 69.5 93.0005 69.3984 92.8651 69.2961C92.7216 69.1876 92.582 69.1144 92.453 68.989C91.8111 68.3652 91.2673 67.8226 90.6666 67.1592C90.2862 66.7391 89.7669 66.1179 89.1087 65.2958L74.5865 40.1426C74.0988 39.2558 73.7489 38.5619 73.5369 38.061C73.0057 36.8059 72.6407 35.6939 72.1634 34.4173C71.6659 33.0864 71.2211 31.9522 70.7518 30.6111C70.6388 30.288 70.5919 29.9959 70.5009 29.6659C70.4259 29.3936 70.3344 29.1671 70.2775 28.8904C70.1931 28.4798 70.112 28.1253 70.0982 27.7064C70.0832 27.2498 70.1104 26.8537 70.1957 26.4049C70.3266 25.7164 70.5153 25.1428 70.7134 24.4705C70.7929 24.2007 70.8959 23.9811 70.9883 23.7154C71.0968 23.404 71.1754 23.132 71.2873 22.8218C71.6235 21.8896 71.8289 21.054 72.2686 20.1659C72.7065 19.2816 73.2286 18.6042 73.7807 17.7862C74.0934 17.3229 74.3698 16.9283 74.7378 16.5076C75.2277 15.9476 75.6945 15.5103 76.2266 14.9903C76.4484 14.7735 76.659 14.6099 76.8906 14.4036C77.4078 13.9431 77.8447 13.541 78.3661 13.0852C78.7264 12.7701 79.0435 12.5095 79.4097 12.2013C79.6487 12.0001 79.8529 11.8268 80.0953 11.6297C80.3336 11.4359 80.5347 11.2654 80.7829 11.0845C81.0201 10.9117 81.2357 10.781 81.481 10.6199C82.0139 10.2701 82.4756 9.97785 83.0062 9.62477C83.288 9.43732 83.5247 9.26964 83.802 9.07569C84.0534 8.89991 84.2643 8.74283 84.5165 8.56841C84.7772 8.38814 85.0046 8.23926 85.2676 8.06235C85.5861 7.84813 85.8604 7.66651 86.1779 7.4509C86.5301 7.2118 86.8245 6.99577 87.181 6.76318C87.5799 6.50289 87.9401 6.30826 88.3358 6.04301C89.6711 5.1478 90.8191 4.38455 92.1258 3.44811C92.3658 3.27614 92.5343 3.08224 92.7494 2.88008C93.1471 2.5064 93.4746 2.1718 93.8768 1.80296C94.0249 1.66714 94.166 1.56716 94.3208 1.43902C94.4704 1.31519 94.6079 1.21913 94.7465 1.08308C94.9238 0.909017 95.0787 0.75875 95.2211 0.55519C95.2821 0.468044 95.3013 0.372116 95.3176 0.267009C95.3217 0.241074 95.31 0.205452 95.2825 0.160144L109.948 25.5609C109.887 25.4473 109.828 25.389 109.769 25.386C108.643 25.3281 107.673 25.3262 106.547 25.3862C104.864 25.4759 103.428 25.6369 101.752 25.8135C101.13 25.8791 100.601 25.9801 99.9831 26.0782C99.4375 26.1648 98.9667 26.2246 98.4267 26.3414C97.0957 26.6294 95.9391 26.827 94.6396 27.2344C93.8584 27.4792 93.2341 27.8193 92.5077 28.1969C91.6936 28.6202 91.0229 29.0343 90.244 29.5195C89.9526 29.701 89.7294 29.8959 89.4531 30.0997C89.236 30.2597 89.0513 30.3988 88.8342 30.5589C88.538 30.7774 88.2798 30.9588 87.9866 31.1814C87.7945 31.3272 87.6322 31.4557 87.4479 31.6113C87.2925 31.7423 87.1602 31.8562 87.0165 31.9999C86.9335 32.0828 86.8618 32.1565 86.8018 32.2573C86.7658 32.3176 86.7514 32.3805 86.7478 32.4506C86.7448 32.5101 86.7669 32.5597 86.7836 32.6168C86.8068 32.6956 86.8274 32.7635 86.8617 32.8382C86.9118 32.9475 86.9746 33.0315 87.0241 33.1411C87.0459 33.1892 87.0474 33.2364 87.0644 33.2864C87.0765 33.3219 87.0964 33.3716 87.1242 33.4354L72.4491 8.01749C72.5092 8.10857 72.5539 8.17954 72.5833 8.23037C76.0089 14.1593 80.8999 22.6307 87.2563 33.6448C87.3533 33.7817 87.3909 33.8313 87.3691 33.7936C83.9502 27.8608 79.0592 19.3894 72.6962 8.37931C72.7515 8.4812 72.7957 8.5585 72.8291 8.61122C72.8711 8.67777 72.9094 8.73366 72.9588 8.79493C73.0117 8.86043 73.0697 8.9058 73.1207 8.97273C73.1779 9.04766 73.2116 9.12257 73.2669 9.19887C73.3957 9.3765 73.515 9.52214 73.6465 9.69782C73.7008 9.77032 73.7413 9.83689 73.7975 9.90791C73.8896 10.0243 73.977 10.1171 74.0698 10.2329C74.1715 10.3596 74.2548 10.4713 74.3531 10.6008C74.4888 10.7796 74.6072 10.9314 74.7385 11.1135C74.8025 11.2023 74.8498 11.2836 74.9108 11.3745C74.9701 11.4628 75.0221 11.5378 75.0823 11.6255C75.1162 11.6747 75.1647 11.745 75.2279 11.8363L89.889 37.23C90.0089 37.4129 90.0948 37.5571 90.1466 37.6625C90.2574 37.8879 90.336 38.089 90.4265 38.3233C90.5263 38.5815 90.5907 38.8107 90.6901 39.069C90.7414 39.2023 90.8015 39.3098 90.8567 39.4416C91.0266 39.8475 91.1685 40.1969 91.3331 40.605C91.4201 40.8204 91.4865 41.0083 91.5755 41.2229C91.6785 41.4715 91.7678 41.6843 91.8817 41.9281C92.2411 42.698 92.5501 43.3576 92.9276 44.1188C93.0585 44.3827 93.1979 44.5946 93.3338 44.856C93.4127 45.0078 93.47 45.1431 93.5409 45.2988C93.6141 45.4595 93.674 45.5986 93.7455 45.7601C93.8224 45.9339 93.8915 46.0814 93.9648 46.2568C94.0367 46.429 94.1017 46.5757 94.1603 46.7529C94.2521 47.0304 94.3165 47.2727 94.3941 47.5545C94.512 47.9826 94.6094 48.3506 94.7189 48.7809C94.7839 49.0365 94.8288 49.2582 94.8927 49.514C94.9686 49.8184 95.0407 50.0775 95.1182 50.3814C95.4813 51.8052 95.7711 53.0311 96.1513 54.4504C96.4272 55.4803 96.6933 56.3549 96.9925 57.3783C97.1491 57.914 97.2799 58.3743 97.4535 58.9047C98.167 61.0846 98.78 62.9528 99.5269 65.1214C99.7116 65.6576 99.9421 66.0911 100.115 66.6313C100.594 68.1282 100.963 69.4243 101.387 70.9376C101.48 71.2694 101.513 71.5653 101.592 71.9007C101.705 72.3792 101.843 72.78 101.938 73.2625C102.13 74.245 102.267 75.0928 102.413 76.0834C102.466 76.4432 102.48 76.7554 102.504 77.1183C102.551 77.8526 102.58 78.4829 102.615 79.2179C102.699 80.9912 102.867 82.5097 102.845 84.2848C102.83 85.4934 102.667 86.5235 102.509 87.7218C102.462 88.0796 102.392 88.3863 102.26 88.7223C101.752 90.0205 101.261 91.1115 100.684 92.3809C100.554 92.6668 100.44 92.9176 100.243 93.1624C99.5532 94.0215 98.9022 94.7086 98.1595 95.5228C97.8327 95.881 97.5349 96.1716 97.1886 96.5111C96.2874 97.3948 95.5618 98.2051 94.5956 99.0173C93.4248 100.001 92.3547 100.766 91.0949 101.633C90.2073 102.245 89.4396 102.774 88.4667 103.238C87.9585 103.48 87.4677 103.584 86.9066 103.628C85.0936 103.773 83.5308 103.803 81.7123 103.776C80.3358 103.756 79.1561 103.656 77.789 103.494C75.248 103.193 73.0611 102.958 70.5528 102.452C67.7331 101.883 65.3593 101.197 62.5876 100.427C61.3555 100.085 60.336 99.6721 59.1195 99.278C58.3965 99.0438 57.779 98.8343 57.0464 98.632C54.3646 97.8915 52.049 97.3192 49.3655 96.5848C48.9626 96.4745 48.625 96.3533 48.2294 96.219C47.1383 95.8488 46.2263 95.4584 45.118 95.1434C44.3638 94.929 43.7025 94.7594 42.92 94.71C41.7021 94.633 40.6522 94.7099 39.4341 94.784C38.4416 94.8443 37.5931 94.9435 36.6102 95.0936C35.9031 95.2016 35.3094 95.3634 34.6115 95.5203C34.1404 95.6263 33.7395 95.7294 33.2706 95.8446C31.2954 96.3298 29.5662 96.6183 27.6283 97.2359C26.7935 97.5019 26.0837 97.8212 25.3898 98.356C24.2321 99.2482 23.3624 100.171 22.3965 101.268C21.5328 102.249 20.8761 103.167 20.1797 104.273C19.3565 105.58 18.72 106.748 18.0646 108.146C17.3574 109.656 16.8325 110.99 16.2935 112.568C16.0601 113.251 15.9876 113.874 15.8646 114.585C15.7837 115.053 15.7642 115.462 15.7114 115.934C15.6343 116.624 15.5817 117.218 15.4935 117.908C15.3915 118.705 15.2754 119.384 15.1681 120.18C15.0975 120.704 15.0467 121.155 14.9853 121.68C14.9307 122.147 14.8841 122.546 14.8369 123.014C14.7469 123.904 14.6041 124.663 14.5933 125.557C14.5729 127.248 14.6814 128.697 14.7478 130.386C14.7585 130.659 14.7868 130.892 14.8137 131.164C14.8852 131.885 15.0102 132.499 15.0289 133.223C15.0479 133.956 14.9616 134.583 14.9213 135.314C14.9113 135.495 14.8959 135.65 14.8854 135.83C14.8849 135.838 14.8862 135.849 14.8892 135.862L14.8892 135.862C14.8892 135.862 12.4392 131.619 7.53917 123.132Z" sodipodi:nodetypes="ccccccccccccccccccccccccccccccccccccccccccccccccccccccccccccccccccccccccccccccccccccccccccccccccccccccccccccccccccccccccccccccccccccccccccccccccccccccccccccccccccccccccccccccccccccccccccccccccccccccccccccccccccccccccccccccccccccccccccccccccccccccccccccccccccccccccccccccccccccccccccccccccccccccccccccccccccccccccccccccccccccccccccccccccccccccccccccccccccccccccccccccccccccccccccccccccccccccccccccccccccccccccccccccccccccccccccccccccccccccccccccccccccccccccccccccccccccccccccccccccccccccccccccccccccccccccccccccccc"/>
</svg>
