<?xml version="1.0" standalone="no"?>
<!DOCTYPE svg PUBLIC "-//W3C//DTD SVG 20010904//EN" "http://www.w3.org/TR/2001/REC-SVG-20010904/DTD/svg10.dtd">
<!-- Created using Krita: https://krita.org -->
<svg xmlns="http://www.w3.org/2000/svg" 
    xmlns:xlink="http://www.w3.org/1999/xlink"
    xmlns:krita="http://krita.org/namespaces/svg/krita"
    xmlns:sodipodi="http://sodipodi.sourceforge.net/DTD/sodipodi-0.dtd"
    width="144pt"
    height="144pt"
    viewBox="0 0 144 144">
<defs/>
<path id="shape0" transform="translate(54.7663908000635, 45.0916240635467)" fill="#9BC663" d="M55.9343 77.3536C55.9205 77.3534 55.9107 77.3512 55.9051 77.347C55.8806 77.3291 55.8672 77.3049 55.843 77.2867C55.6852 77.168 55.5432 77.0754 55.3857 76.9563C55.3257 76.911 55.2805 76.8645 55.2219 76.8175C55.1584 76.7665 55.0955 76.733 55.037 76.6764C54.7877 76.4357 54.5829 76.2203 54.3437 75.9695C54.2604 75.8821 54.194 75.8026 54.116 75.7105C54.0137 75.5898 53.9301 75.4831 53.8289 75.3616C53.7366 75.2508 53.6559 75.1572 53.5632 75.0467C53.4497 74.9115 53.3503 74.7974 53.2399 74.6597C53.175 74.5786 53.1277 74.5026 53.0626 74.4216C53 74.3439 52.9382 74.2842 52.8754 74.2067C52.8026 74.1168 52.7497 74.0322 52.6755 73.9434C52.6174 73.8739 52.5647 73.8162 52.4977 73.7551C52.2741 73.551 52.0792 73.3795 51.846 73.1866C51.6845 73.053 51.536 72.9513 51.3705 72.8227C51.2698 72.7444 51.1843 72.6762 51.0855 72.5954C50.9588 72.4918 50.8536 72.3988 50.7263 72.2958C50.5102 72.121 50.3193 71.9783 50.1046 71.8018C50.0264 71.7375 49.9598 71.6811 49.8897 71.608C49.8258 71.5415 49.7802 71.4763 49.7231 71.4039C49.633 71.2899 49.5635 71.1859 49.469 71.0756C49.4021 70.9976 49.3364 70.9383 49.2626 70.8667C49.1353 70.7432 49.0208 70.6429 48.8947 70.5182C48.8314 70.4556 48.7815 70.3977 48.7218 70.3318C48.6565 70.2597 48.6013 70.1973 48.5374 70.1241C48.3474 69.9063 48.1863 69.7179 47.9964 69.5001C47.9266 69.4201 47.8631 69.3549 47.7954 69.2732C47.7303 69.1947 47.6848 69.119 47.6169 69.0428C47.411 68.8121 47.2344 68.6138 47.0136 68.3972C46.8662 68.2525 46.7279 68.1408 46.5663 68.012C46.4268 67.9008 46.2975 67.8182 46.1541 67.7121C46.0659 67.647 45.9894 67.5923 45.9046 67.5228C45.7783 67.4195 45.6715 67.329 45.5513 67.2187C45.4696 67.1437 45.4125 67.0656 45.328 66.9936C45.1606 66.8509 45.0082 66.7394 44.833 66.6064C44.5933 66.4242 44.4009 66.2478 44.1426 66.0932C43.8868 65.9401 43.6437 65.8527 43.3713 65.7315C43.2492 65.6771 43.1384 65.6455 43.016 65.5917C42.8967 65.5391 42.7994 65.4833 42.6814 65.4279C42.5523 65.3674 42.4401 65.3188 42.3101 65.2605C42.0232 65.1317 41.779 65.0174 41.49 64.8932C41.3878 64.8493 41.2961 64.8218 41.1929 64.7804C41.0927 64.7401 41.0099 64.698 40.9089 64.6598C40.814 64.6241 40.7295 64.6026 40.6337 64.5694C40.5393 64.5367 40.4608 64.5014 40.3654 64.4715C40.1404 64.4012 39.9491 64.3329 39.7187 64.2832C39.4351 64.2221 39.1856 64.2053 38.8998 64.1556C38.443 64.0762 38.0552 63.9865 37.5972 63.9144C37.4319 63.8884 37.2877 63.8877 37.1208 63.8756C36.9065 63.8601 36.7221 63.8562 36.5082 63.8357C36.232 63.8091 35.9979 63.7592 35.721 63.7412C34.6271 63.6702 33.6889 63.6052 32.5929 63.5814C31.1092 63.5491 29.8367 63.5612 28.3527 63.5809C28.2833 63.5818 28.2309 63.6233 28.1636 63.6403C28.0202 63.6764 27.8933 63.6915 27.7512 63.7325C27.6798 63.7531 27.6252 63.7887 27.556 63.8158C27.484 63.844 27.418 63.8575 27.348 63.8904C27.2768 63.9238 27.2188 63.9595 27.1543 64.0045C27.0205 64.098 26.9126 64.1875 26.7821 64.2855C26.6983 64.3485 26.6263 64.4023 26.5418 64.4644C26.4671 64.5194 26.3988 64.5609 26.3273 64.62C26.2798 64.6593 26.2475 64.7022 26.2028 64.7446C26.1633 64.7821 26.1258 64.8104 26.0867 64.8483C26.0412 64.8923 26.0097 64.9379 25.9611 64.9785C25.8901 65.0379 25.8203 65.0771 25.7463 65.1328C25.643 65.2106 25.5625 65.2882 25.4547 65.3596C25.3623 65.4209 25.2751 65.4605 25.1762 65.5107C25.1018 65.5485 25.0315 65.5681 24.96 65.6108C24.885 65.6557 24.8234 65.7001 24.7596 65.7597C24.5379 65.967 24.3605 66.1576 24.1459 66.3721C24.0932 66.4247 24.0438 66.466 23.9957 66.5229C23.9509 66.5759 23.9137 66.6235 23.8811 66.6849C23.8333 66.775 23.8005 66.8567 23.7675 66.9532C23.7365 67.0436 23.7184 67.1239 23.6988 67.2174C23.6798 67.3077 23.669 67.3862 23.6573 67.4776C23.6457 67.5676 23.6404 67.6452 23.6322 67.7355C23.6275 67.7871 23.6236 67.8314 23.6205 67.8831C23.6156 67.9646 23.6111 68.0344 23.6091 68.116C23.606 68.2437 23.6056 68.3532 23.6057 68.481C23.6057 68.4864 23.6097 68.5012 23.6095 68.4959C23.6088 68.4788 23.6069 68.4544 23.6036 68.4228C17.2416 57.396 12.3452 48.9153 8.91453 42.9806C8.90455 42.9634 8.88592 42.9418 8.85862 42.916C15.2173 53.9425 20.1129 62.4219 23.5454 68.3543C23.5746 68.4048 23.541 68.3285 23.4446 68.1252L8.7657 42.7006C8.75407 42.6118 8.74067 42.5448 8.7255 42.4993C8.70781 42.4464 8.66965 42.4109 8.65133 42.3582C8.60438 42.2231 8.55191 42.1076 8.53981 41.9651C8.49133 41.3941 8.48246 40.9019 8.47903 40.3289C8.46069 37.2626 8.51023 34.6341 8.47762 31.568C8.47173 31.0143 8.41389 30.5415 8.36906 29.9896C8.33834 29.6113 8.29918 29.2882 8.26178 28.9105C8.22375 28.5264 8.18164 28.198 8.15355 27.813C8.02138 26.0017 7.93446 24.4473 7.80393 22.6358C7.76493 22.0946 7.76468 21.6254 7.66921 21.0913C7.30895 19.0754 6.93601 17.3592 6.50323 15.3577C6.39244 14.8452 6.26888 14.4122 6.11663 13.9105C5.53423 11.9915 5.03264 10.3469 4.40454 8.44237C4.27917 8.0622 4.1331 7.74977 3.96508 7.38643C3.44559 6.26298 3.00283 5.29816 2.44071 4.19542C2.27408 3.86853 2.00938 3.41612 1.64661 2.83819L16.237 28.1095C16.0231 27.8006 15.8665 27.5583 15.7669 27.3825C15.6458 27.1686 15.4878 26.855 15.2929 26.4417L0.6497 1.07899C0.543758 0.857289 0.467494 0.684613 0.420908 0.56096C0.369743 0.425154 0.35419 0.299353 0.304591 0.162968C0.292601 0.129997 0.267377 0.0866879 0.228921 0.0330401L14.8878 25.423C14.8613 25.4192 14.8423 25.4206 14.8306 25.4272C14.8031 25.4427 14.7759 25.4609 14.7669 25.4912C14.6913 25.7441 14.5944 25.9609 14.5924 26.2249C14.5819 27.555 14.6336 28.6962 14.7314 30.0228C14.7905 30.8244 14.8797 31.5109 15.04 32.2985C15.3362 33.7548 15.5945 35.0068 16.0339 36.4264C16.2357 37.0786 16.5271 37.5978 16.8641 38.1916C17.2286 38.8339 17.7921 39.726 18.5545 40.8679L3.97487 15.6152C4.45158 16.0867 4.82268 16.4447 5.08816 16.6892C5.20328 16.7952 5.30645 16.8836 5.44022 16.9649C5.69355 17.1187 5.90601 17.2738 6.19006 17.3584C7.08503 17.6251 7.86559 17.8226 8.78888 17.9627C10.0209 18.1496 11.0893 18.2331 12.3342 18.2904C13.1086 18.3261 13.7738 18.2601 14.5484 18.228C14.935 18.212 15.2676 18.2033 15.6512 18.153C16.676 18.0187 17.5516 17.8813 18.5692 17.7009C18.88 17.6459 19.1369 17.555 19.4437 17.4808C19.9153 17.3668 20.3217 17.2778 20.7931 17.1631C21.2279 17.0574 21.602 16.9717 22.033 16.8513C22.4749 16.7278 22.8491 16.6059 23.2862 16.4663C23.4597 16.4108 23.6074 16.3596 23.7772 16.2939C23.9412 16.2304 24.0771 16.1648 24.2394 16.0973C24.4124 16.0254 24.5663 15.9767 24.7353 15.8958C25.0388 15.7505 25.2966 15.6202 25.5879 15.4517C26.1329 15.1366 26.586 14.843 27.1233 14.5149C27.2528 14.4358 27.3609 14.3632 27.4928 14.2883C27.6348 14.2077 27.7599 14.1445 27.9057 14.0708C28.0574 13.9941 28.1911 13.936 28.3426 13.8588C28.56 13.7481 28.7432 13.6471 28.9594 13.5339C29.1604 13.4287 29.3261 13.3245 29.5345 13.2347C29.6919 13.1669 29.837 13.136 30.0007 13.0852C30.1836 13.0285 30.343 12.9881 30.5248 12.9277C30.7003 12.8695 30.8459 12.8056 31.0212 12.7465C31.3039 12.6512 31.5502 12.5816 31.8331 12.4868C32.0686 12.4079 32.2585 12.2989 32.5021 12.2504C33.0073 12.1497 33.4512 12.1306 33.9618 12.0625C34.0662 12.0485 34.1539 12.0198 34.2592 12.0158C34.3126 12.0138 34.3669 12.0128 34.4091 12.0456C34.4267 12.0593 34.4302 12.091 34.4196 12.1406L49.1045 37.5757C49.1061 37.6059 49.1032 37.6279 49.0959 37.6415C49.0562 37.7152 49.0127 37.7731 48.9622 37.8399C48.893 37.9313 48.8322 38.009 48.7541 38.0929C48.5985 38.2602 48.4543 38.3931 48.295 38.5568C48.1611 38.6944 48.0441 38.8104 47.9163 38.9537C47.786 39.0998 47.677 39.2279 47.5578 39.3832C47.2731 39.7541 47.0274 40.0712 46.7625 40.4565C46.6607 40.6046 46.5953 40.7455 46.5119 40.9047C46.4291 41.0626 46.3553 41.1971 46.2879 41.3621C46.207 41.5598 46.1505 41.7346 46.089 41.9393C46.0162 42.1816 45.9683 42.3935 45.9044 42.6384C45.8387 42.8906 45.7858 43.1077 45.7186 43.3595C45.6186 43.7342 45.5317 44.0551 45.4265 44.4284C45.3633 44.6529 45.3016 44.8431 45.2377 45.0674C45.1839 45.256 45.1469 45.4203 45.0903 45.6081C45.0363 45.7869 44.9719 45.9346 44.9218 46.1145C44.8106 46.5131 44.7397 46.8613 44.6296 47.2602C44.5842 47.4246 44.5397 47.5644 44.4777 47.7232C44.4195 47.8722 44.3497 47.9913 44.2866 48.1382C44.2498 48.2238 44.2273 48.3009 44.1923 48.3872C44.1612 48.4639 44.1385 48.5319 44.0978 48.604C43.998 48.7809 43.8948 48.9221 43.7918 49.0972C43.7533 49.1627 43.7341 49.2265 43.6937 49.2908C43.5832 49.4669 43.4785 49.6115 43.3612 49.7832C43.3106 49.8573 43.2643 49.9188 43.2141 49.9932C43.1614 50.0712 43.1206 50.1409 43.0672 50.2184C42.986 50.3365 42.9069 50.4313 42.8295 50.5519C42.7836 50.6234 42.7606 50.6943 42.7154 50.7663C42.6714 50.8364 42.6234 50.8895 42.5754 50.9569C42.525 51.0274 42.4858 51.0906 42.4342 51.1602C42.2938 51.3497 42.1692 51.5089 42.027 51.697C41.981 51.7579 41.9407 51.8094 41.8965 51.8717C41.848 51.9399 41.8123 52.0024 41.7624 52.0696C41.6666 52.1986 41.5763 52.303 41.4804 52.4319C41.4127 52.5227 41.3632 52.6067 41.295 52.697C41.2243 52.7907 41.1553 52.8645 41.0836 52.9574C41.0218 53.0374 40.9669 53.105 40.9138 53.191C40.8706 53.261 40.8526 53.3314 40.8096 53.4015C40.7641 53.4754 40.7148 53.532 40.6619 53.6009C40.606 53.6738 40.5597 53.7378 40.4987 53.8067C40.4573 53.8534 40.4158 53.8877 40.3702 53.9304C40.2808 54.0142 40.2059 54.0881 40.1131 54.1682C40.0695 54.2057 40.0276 54.2324 39.9809 54.2659C39.9265 54.3048 39.8764 54.3335 39.8241 54.3752C39.7152 54.462 39.6255 54.5408 39.5208 54.6326C39.3702 54.7649 39.1564 54.9555 38.8796 55.2044L24.2163 29.8069C24.4877 29.5492 24.6981 29.3528 24.8476 29.2178C24.9509 29.1246 25.0435 29.0494 25.152 28.9623C25.2042 28.9203 25.2525 28.8889 25.3065 28.8492C25.3529 28.8151 25.3944 28.7881 25.4387 28.7514C25.5325 28.6736 25.6118 28.6055 25.7009 28.5224C25.7472 28.4793 25.7849 28.4399 25.825 28.3911C25.8841 28.3192 25.9278 28.2522 25.9841 28.178C26.0361 28.1094 26.0877 28.0556 26.1343 27.9832C26.1782 27.9151 26.1974 27.846 26.2417 27.7782C26.2964 27.6946 26.3543 27.6309 26.416 27.5524C26.4889 27.46 26.5558 27.3842 26.6262 27.2899C26.694 27.1989 26.7421 27.1136 26.8106 27.0231C26.907 26.8959 27.0006 26.7955 27.097 26.6683C27.1476 26.6015 27.1831 26.5386 27.2305 26.4693C27.2742 26.4054 27.3095 26.349 27.357 26.2879C27.5001 26.1039 27.6334 25.9546 27.7748 25.7693C27.828 25.6995 27.863 25.6324 27.9124 25.5599C27.9594 25.4909 28.0058 25.4358 28.05 25.3651C28.0947 25.2936 28.1199 25.2246 28.1662 25.1542C28.2446 25.0349 28.324 24.9412 28.4058 24.8241C28.4596 24.7472 28.5015 24.6784 28.5534 24.6002C28.6035 24.5245 28.6473 24.4603 28.6972 24.3845C28.8124 24.2095 28.9152 24.0621 29.0249 23.8837C29.0646 23.8192 29.0842 23.7558 29.1236 23.6911C29.2282 23.5194 29.335 23.3828 29.436 23.209C29.4777 23.1373 29.4985 23.0682 29.5302 22.9916C29.5653 22.9065 29.5891 22.8309 29.627 22.747C29.6918 22.6032 29.7632 22.4872 29.8235 22.3414C29.8875 22.1864 29.9325 22.0494 29.9815 21.8889C30.0988 21.5049 30.1824 21.1707 30.2985 20.7863C30.3525 20.6077 30.4097 20.4581 30.4675 20.2807C30.526 20.1014 30.5725 19.9466 30.6306 19.7672C30.7005 19.5516 30.7689 19.3695 30.8333 19.1522C30.943 18.7815 31.0263 18.4606 31.1279 18.0876C31.1959 17.8381 31.255 17.6245 31.3178 17.3736C31.381 17.121 31.4218 16.9011 31.4878 16.6492C31.5443 16.4339 31.5901 16.2478 31.6677 16.0391C31.7304 15.8705 31.8054 15.7346 31.8876 15.5746C31.9698 15.4144 32.0334 15.2719 32.1372 15.1247C32.4047 14.7458 32.6606 14.4405 32.946 14.0749C33.0673 13.9195 33.1722 13.7869 33.2992 13.6361C33.4245 13.4875 33.537 13.3645 33.6666 13.2198C33.821 13.0474 33.9633 12.9083 34.1108 12.7299C34.1866 12.6382 34.2421 12.5518 34.3032 12.4498C34.3497 12.372 34.3855 12.3023 34.4174 12.2175C34.4237 12.2007 34.4244 12.1751 34.4196 12.1406L49.1045 37.5757C49.1127 37.524 49.1079 37.4901 49.0902 37.4741C49.0429 37.4315 48.9835 37.4164 48.9203 37.4096C48.8097 37.3976 48.7133 37.4088 48.6028 37.4215C48.0918 37.4803 47.6499 37.5121 47.1456 37.6138C46.9022 37.6628 46.714 37.777 46.4767 37.8503C46.1886 37.9392 45.9346 37.991 45.6457 38.0769C45.4676 38.1298 45.3195 38.1894 45.1428 38.2468C44.9611 38.3059 44.8017 38.3457 44.6217 38.4095C44.4623 38.4661 44.3274 38.52 44.1738 38.5907C43.9675 38.6856 43.797 38.78 43.5944 38.8825C43.3765 38.9927 43.1902 39.088 42.9723 39.1982C42.8207 39.2748 42.6904 39.3397 42.5389 39.4162C42.393 39.4899 42.2635 39.545 42.1224 39.6275C41.9912 39.7043 41.8938 39.7942 41.7623 39.8703C41.2176 40.1857 40.7406 40.4383 40.1913 40.7455C39.8979 40.9096 39.6527 41.0618 39.3545 41.2169C39.189 41.3031 39.0395 41.3615 38.8677 41.4342C38.7053 41.5028 38.5653 41.5602 38.3998 41.6208C38.2282 41.6836 38.0811 41.7386 37.9048 41.7864C37.4555 41.9083 37.0665 41.9985 36.6133 42.1053C36.1744 42.2086 35.7952 42.2842 35.356 42.3867C34.8844 42.4969 34.4822 42.5996 34.0114 42.7128C33.7033 42.7869 33.4422 42.8646 33.1305 42.9217C32.1185 43.1072 31.2479 43.2495 30.231 43.4058C29.8572 43.4633 29.5357 43.5154 29.1579 43.5323C28.3754 43.5673 27.7018 43.6014 26.92 43.5538C25.665 43.4774 24.5911 43.3619 23.3473 43.1785C22.444 43.0454 21.6751 42.8846 20.7925 42.6507C20.5236 42.5794 20.314 42.4513 20.0738 42.3109C19.9335 42.2289 19.8304 42.1313 19.7126 42.0194C19.4363 41.757 19.0503 41.3732 18.5545 40.8679L3.97487 15.6152C3.24791 14.5345 2.7116 13.6894 2.36593 13.08C2.02738 12.4832 1.73248 11.9621 1.53072 11.3062C1.09956 9.90461 0.854164 8.66682 0.566036 7.22896C0.408149 6.44105 0.329803 5.75416 0.257785 4.95381C0.13201 3.55606 0.0481772 2.35492 0.00124111 0.952296C-0.00905049 0.644745 0.0466552 0.382022 0.0946275 0.0780613C0.0998133 0.0452037 0.119723 0.0123111 0.151262 0.00173774C0.169786 -0.00447227 0.195672 0.00596184 0.228921 0.0330401L14.8878 25.423C14.9199 25.467 14.9407 25.5026 14.9502 25.5299C14.9957 25.6611 15.0085 25.782 15.0573 25.912C15.1049 26.0386 15.1834 26.2152 15.2929 26.4417L0.6497 1.07899C0.855347 1.5108 1.0216 1.83864 1.14846 2.0625C1.25451 2.24964 1.42056 2.50821 1.64661 2.83819L16.237 28.1095C16.5971 28.6823 16.8596 29.1309 17.0245 29.4553C17.5695 30.5277 17.9967 31.4669 18.499 32.5599C18.6632 32.9173 18.8064 33.2245 18.9284 33.5984C19.5419 35.4783 20.0326 37.1011 20.5995 38.9955C20.7458 39.4847 20.8589 39.9084 20.9659 40.4077C21.3944 42.4083 21.7662 44.123 22.1291 46.1365C22.2274 46.6822 22.2373 47.1607 22.2824 47.7133C22.4331 49.5588 22.5395 51.1425 22.6884 52.9881C22.7194 53.3727 22.7583 53.7013 22.7964 54.0852C22.8338 54.4632 22.8728 54.7866 22.9042 55.1651C22.9502 55.7201 23.0083 56.1953 23.0176 56.7521C23.0695 59.8544 23.0244 62.5145 23.079 65.6168C23.0898 66.2302 23.1343 66.7557 23.2046 67.3652C23.2219 67.5155 23.2775 67.6369 23.3283 67.7794C23.3469 67.8318 23.3844 67.8673 23.4021 67.92C23.4177 67.9664 23.4319 68.0348 23.4446 68.1252L8.7657 42.7006C8.80032 42.7968 8.83129 42.8686 8.85862 42.916C12.2801 48.8548 17.1757 57.3342 23.5454 68.3543C23.5946 68.4181 23.614 68.4409 23.6036 68.4228C20.1794 62.4844 15.283 54.0037 8.91453 42.9806C8.91193 43.0056 8.91093 43.0248 8.91153 43.0383C8.91162 43.0403 8.91701 43.0417 8.91715 43.0396C8.92532 42.9207 8.92898 42.8185 8.93479 42.6993C8.9388 42.6172 8.94077 42.5468 8.94519 42.4647C8.94802 42.4122 8.9509 42.3672 8.9555 42.3148C8.96341 42.2246 8.96917 42.1472 8.98093 42.0575C8.99287 41.9664 9.00378 41.8882 9.02318 41.7985C9.04319 41.7059 9.0617 41.6263 9.09339 41.537C9.12714 41.4419 9.16119 41.3616 9.20961 41.273C9.24277 41.2123 9.27855 41.1638 9.32524 41.1128C9.37474 41.0588 9.42974 41.0254 9.4827 40.9747C9.70129 40.7654 9.88077 40.5779 10.1009 40.3702C10.165 40.3098 10.2201 40.2567 10.2943 40.2092C10.3646 40.1643 10.4375 40.1493 10.5102 40.1086C10.6071 40.0544 10.6872 40.0026 10.7778 39.9385C10.8833 39.8638 10.9659 39.7892 11.0699 39.7125C11.1443 39.6577 11.2163 39.6219 11.2875 39.563C11.3365 39.5225 11.366 39.4746 11.4114 39.4301C11.4503 39.392 11.4884 39.3645 11.5282 39.3273C11.5731 39.2854 11.6053 39.2424 11.6534 39.2041C11.7258 39.1464 11.7964 39.1086 11.8711 39.054C11.9559 38.9919 12.0244 38.9332 12.1089 38.8707C12.2398 38.774 12.3509 38.6891 12.4865 38.5991C12.552 38.5555 12.6114 38.5225 12.6828 38.4896C12.7529 38.4572 12.8183 38.4423 12.8897 38.413C12.9583 38.3849 13.0118 38.3475 13.0826 38.3258C13.2234 38.2826 13.349 38.2636 13.4919 38.2282C13.56 38.2113 13.6154 38.1751 13.6855 38.1766C15.1993 38.2078 16.4964 38.2579 18.0091 38.3214C19.1063 38.3675 20.0457 38.4285 21.1422 38.49C21.4088 38.5049 21.6367 38.5289 21.9035 38.5397C22.1108 38.5481 22.2888 38.5391 22.4961 38.5448C22.66 38.5493 22.8013 38.5482 22.964 38.569C23.413 38.6262 23.7949 38.6963 24.2418 38.7673C24.5304 38.8132 24.7802 38.8398 25.0654 38.9031C25.2962 38.9542 25.4873 39.0246 25.7134 39.0935C25.8058 39.1217 25.8839 39.1496 25.9754 39.1804C26.0728 39.2133 26.1575 39.2383 26.2533 39.2756C26.3552 39.3154 26.4386 39.359 26.5399 39.4005C26.6433 39.4429 26.7359 39.4696 26.838 39.5152C27.1322 39.6466 27.3788 39.7714 27.6716 39.9058C27.7992 39.9645 27.9118 40.0077 28.0392 40.0669C28.1581 40.1221 28.2549 40.1802 28.375 40.2327C28.4959 40.2854 28.6066 40.3133 28.727 40.3669C29.0009 40.4885 29.2427 40.5811 29.5009 40.733C29.7519 40.8807 29.9428 41.0448 30.1759 41.2194C30.3534 41.3524 30.505 41.4675 30.6736 41.6115C30.7572 41.6829 30.8145 41.7594 30.8953 41.8338C31.0169 41.9456 31.1242 42.0381 31.2516 42.1431C31.3365 42.213 31.4137 42.2673 31.5016 42.3334C31.6484 42.4437 31.779 42.5319 31.9219 42.6472C32.0832 42.7773 32.2217 42.8895 32.3702 43.034C32.5857 43.2436 32.7596 43.4343 32.9608 43.6577C33.029 43.7335 33.0746 43.8092 33.1393 43.888C33.211 43.9754 33.276 44.0473 33.3503 44.1324C33.5351 44.3441 33.6938 44.5253 33.8796 44.7361C33.9425 44.8074 33.9972 44.8678 34.0609 44.9383C34.1235 45.0078 34.1742 45.0701 34.2404 45.1362C34.3663 45.262 34.481 45.3628 34.6092 45.4862C34.68 45.5543 34.7447 45.6091 34.8089 45.6835C34.9041 45.7939 34.9734 45.8984 35.0636 46.0129C35.122 46.0871 35.1682 46.1543 35.2334 46.2227C35.3031 46.2956 35.3699 46.3512 35.4478 46.4154C35.6637 46.5935 35.8558 46.7376 36.0726 46.9148C36.2025 47.0211 36.3088 47.1181 36.438 47.2252C36.5371 47.3073 36.6231 47.3763 36.7246 47.4552C36.8894 47.5834 37.037 47.6851 37.1989 47.817C37.4266 48.0026 37.6175 48.1669 37.8371 48.3621C37.8998 48.4178 37.9513 48.4688 38.0049 48.5333C38.0852 48.6296 38.1405 48.7227 38.2188 48.8207C38.2808 48.8984 38.3433 48.9572 38.4055 49.0348C38.4726 49.1186 38.5205 49.1978 38.5878 49.2814C38.6938 49.4131 38.7912 49.5206 38.9002 49.6498C38.9948 49.7618 39.0762 49.8574 39.1693 49.9705C39.2749 50.0987 39.3615 50.2117 39.4678 50.3392C39.5482 50.4357 39.6155 50.52 39.7026 50.6104C39.9324 50.8486 40.1323 51.0503 40.373 51.2776C40.4318 51.3331 40.4937 51.3671 40.5571 51.4173C40.6143 51.4625 40.6583 51.5077 40.7175 51.5503C40.868 51.6584 41.0042 51.7407 41.1556 51.8474C41.1777 51.8629 41.1893 51.8857 41.2127 51.8991C41.2173 51.9017 41.2245 51.8995 41.2343 51.8925L41.2343 51.8925Z" sodipodi:nodetypes="cccccccccccccccccccccccccccccccccccccccccccccccccccccccccccccccccccccccccccccccccccccccccccccccccccccccccccccccccccccccccccccccccccccccccccccccccccccccccccccccccccccccccccccccccccccccccccccccccccccccccccccccccccccccccccccccccccccccccccccccccccccccccccccccccccccccccccccccccccccccccccccccccccccccccccccccccccccccccccccccccccccccccccccccccccccccccccccccccccccccccccccccccccccccccccccccccccccccccccccccc"/>
</svg>
