<?xml version="1.0" standalone="no"?>
<!DOCTYPE svg PUBLIC "-//W3C//DTD SVG 20010904//EN" "http://www.w3.org/TR/2001/REC-SVG-20010904/DTD/svg10.dtd">
<!-- Created using Krita: https://krita.org -->
<svg xmlns="http://www.w3.org/2000/svg" 
    xmlns:xlink="http://www.w3.org/1999/xlink"
    xmlns:krita="http://krita.org/namespaces/svg/krita"
    xmlns:sodipodi="http://sodipodi.sourceforge.net/DTD/sodipodi-0.dtd"
    width="144pt"
    height="144pt"
    viewBox="0 0 144 144">
<defs/>
<path id="shape0" transform="translate(4.19210683983159, -2.90390540139469)" fill="#b57dd8" d="M37.5555 84.5917C42.4529 93.0743 44.9017 97.3157 44.9017 97.3157C44.8745 97.2871 44.8551 97.2641 44.8432 97.2466C44.7634 97.1289 44.6993 97.0251 44.623 96.905C44.4825 96.6839 44.361 96.495 44.2238 96.2718C44.0419 95.976 43.8947 95.717 43.7113 95.4221C43.4678 95.0305 43.2476 94.7021 43.004 94.3106C42.7161 93.8478 42.4795 93.4448 42.193 92.9811C41.86 92.4421 41.5134 92.0145 41.2341 91.4458C40.6659 90.2896 39.9097 88.6116 38.9654 86.412L24.6238 61.5716C23.896 58.7061 23.4632 56.484 23.3255 54.9053C23.072 52.0006 23.1053 49.4828 23.3153 46.5746C23.4463 44.7608 23.7979 43.2212 24.2955 41.472C25.1589 38.4368 26.0385 35.871 27.1954 32.9352C27.7354 31.5646 28.2899 30.407 29.1319 29.1983C29.8809 28.1231 30.7417 27.368 31.6979 26.4721C32.1754 26.0247 32.6703 25.7423 33.2121 25.3754C33.7277 25.0263 34.1705 24.7248 34.7174 24.4272C36.0416 23.7067 37.1154 22.9206 38.5537 22.4689C40.047 21.9999 41.4167 21.9052 42.9802 21.8324C49.288 21.5387 54.7032 21.3445 61.0173 21.423C64.16 21.4621 66.8591 21.6939 69.9661 22.1679C72.1761 22.505 74.0445 23.0064 76.1587 23.7329C77.4833 24.1881 78.5508 24.78 79.7365 25.5255C80.8456 26.2228 81.6217 27.066 82.6825 27.8348C85.9343 30.1916 88.7797 32.1305 92.0556 34.4537C93.2974 35.3344 94.4307 36.0023 95.5901 36.9889C97.6294 38.724 99.4775 40.1458 101.177 42.2149C102.165 43.4173 103.302 45.3273 104.589 47.9447L118.796 72.5509C119.917 75.8017 120.638 78.335 120.957 80.1507C121.44 82.8924 121.551 85.3002 121.531 88.084C121.515 90.1583 121.168 91.9213 120.855 93.972C120.727 94.815 120.507 95.5179 120.274 96.338C120.035 97.1754 119.796 97.8835 119.507 98.7047C119.219 99.5197 118.967 100.218 118.625 101.011C118.109 102.208 117.68 103.244 117.056 104.388C115.034 108.094 113.396 111.337 111.07 114.859C109.695 116.942 108.322 118.623 106.516 120.346C104.552 122.22 102.649 123.602 100.367 125.071C98.3567 126.365 96.5137 127.305 94.3007 128.208C92.1489 129.086 90.2358 129.733 87.9474 130.139C83.8833 130.859 80.3325 131.021 76.2237 131.413C75.0163 131.528 73.9733 131.512 72.7627 131.587C71.5831 131.661 70.5766 131.803 69.3952 131.837C65.6885 131.947 62.5042 132.2 58.8012 132C56.8831 131.896 55.2458 131.538 53.4097 130.973C51.5282 130.394 49.932 129.763 48.2425 128.752C46.6119 127.777 45.4153 126.632 44.0108 125.352C43.3234 124.726 42.863 124.061 42.2894 123.329C41.7272 122.612 41.2286 122.002 40.7683 121.216C39.7574 119.488 38.3845 116.98 36.6497 113.691L22.387 88.9879C21.1852 85.6184 20.281 83.0197 19.6743 81.1916C19.281 80.0065 18.9588 78.9834 18.6642 77.7699C18.1149 75.5066 17.6187 73.5663 17.2648 71.2643C17.0789 70.0556 17.0635 68.9942 17.1271 67.773C17.2 66.3741 17.2524 65.1476 17.6533 63.8053C18.4536 61.1258 19.3385 58.8805 20.5376 56.3542C21.97 53.3364 23.446 50.8714 25.1548 48.0011C25.7523 46.9973 26.3471 46.1796 27.1176 45.3016C29.2453 42.8771 31.0933 40.8108 33.423 38.5796C35.0182 37.0519 36.4116 35.7166 38.3082 34.5845C39.7194 33.7421 41.1515 33.4578 42.7358 33.0204C44.8816 32.4281 46.7757 32.1428 48.9461 31.648C50.0996 31.3851 51.0862 31.1496 52.2322 30.8558C53.967 30.4112 55.4583 30.044 57.1763 29.5384C61.8851 28.1529 65.9975 27.1803 70.5921 25.4536C74.9452 23.8176 78.4708 21.9156 82.686 19.9513C83.5077 19.5684 84.1852 19.1849 84.9799 18.7487C86.9806 17.6509 88.6743 16.6717 90.6722 15.5687C91.2507 15.2494 91.7377 14.9556 92.3407 14.6854C94.7687 13.5975 96.8764 12.7251 99.3277 11.6908C99.6189 11.5679 99.8799 11.4914 100.175 11.3795C100.429 11.2836 100.638 11.1813 100.896 11.0971C101.528 10.8902 102.054 10.6176 102.715 10.5482C104.613 10.3491 106.256 10.3765 108.165 10.3348C109.165 10.313 110.026 10.2789 111.022 10.3668C111.823 10.4376 112.5 10.5947 113.281 10.7867C113.755 10.9033 114.16 11.0311 114.599 11.2461C114.858 11.3729 115.053 11.5404 115.249 11.7514C115.345 11.8545 115.446 12.0281 115.553 12.2722L130.158 37.5688C130.432 38.407 130.602 39.0601 130.665 39.528C130.803 40.5355 130.899 41.4152 130.821 42.4291C130.739 43.4991 130.606 44.436 130.213 45.4344C129.512 47.2124 128.758 48.6878 127.721 50.2931C126.557 52.0936 125.313 53.4651 123.953 55.1223C123.205 56.0341 122.519 56.7789 121.701 57.6292C119.493 59.9266 117.616 61.914 115.31 64.1137C114.348 65.0319 113.4 65.68 112.375 66.5276C111.863 66.9503 111.431 67.3196 110.92 67.7431C110.596 68.0114 110.321 68.2438 109.991 68.5039C109.653 68.7704 109.354 68.988 109.011 69.2476C108.481 69.6477 108.022 69.9834 107.496 70.3889C106.936 70.8217 106.454 71.1911 105.908 71.6426C105.536 71.9509 105.226 72.2275 104.874 72.5589C104.528 72.8849 104.25 73.1844 103.913 73.52C103.577 73.8543 103.257 74.1103 102.952 74.4729C101.809 75.8316 100.772 76.9599 99.7808 78.4326C98.3149 80.6094 97.1914 82.5659 95.9461 84.876C95.1755 86.3057 94.6548 87.6033 94.0294 89.1023C93.8225 89.5981 93.684 90.042 93.5715 90.5672C93.2802 91.9279 93.084 93.1059 92.8776 94.482C92.8187 94.8742 92.809 95.2168 92.8145 95.6134C92.8295 96.704 92.8205 97.6428 92.936 98.7274C92.9981 99.3109 93.1529 99.7969 93.3195 100.36C93.403 100.641 93.5245 100.866 93.6484 101.132C93.7664 101.386 93.8752 101.6 94.0105 101.845C94.0965 102.001 94.2274 102.219 94.4031 102.499L79.8144 77.2306C80.4068 78.2341 80.9067 78.9722 81.314 79.445C82.5425 80.8711 83.73 81.9717 85.0527 83.3109C85.3068 83.5682 85.528 83.7888 85.8177 84.0051C86.6987 84.663 87.4682 85.2097 88.3926 85.805C88.9322 86.1525 89.42 86.4115 89.9956 86.6955C92.3114 87.8381 94.3504 88.7073 96.6512 89.8799C98.2509 90.6952 99.661 91.3471 101.135 92.3728C102.386 93.244 103.32 94.1818 104.391 95.2673C105.305 96.1938 105.954 97.111 106.792 98.1071C107.066 98.433 107.297 98.7164 107.568 99.0444C107.657 99.1519 107.735 99.2427 107.823 99.3514C107.914 99.4635 108.005 99.5505 108.078 99.6749C108.189 99.8657 108.332 100.147 108.506 100.519L123.128 125.846C123.441 126.942 123.677 127.788 123.834 128.381C124.006 129.029 124.146 129.586 124.293 130.24C124.525 131.271 124.76 132.149 124.915 133.194C124.958 133.479 124.948 133.742 124.853 134.014C124.798 134.172 124.666 134.283 124.513 134.35C124.148 134.51 123.809 134.593 123.414 134.645C122.292 134.792 121.322 134.871 120.192 134.918C119.61 134.943 119.105 134.938 118.529 134.849C116.82 134.586 115.377 134.228 113.676 133.914C112.481 133.694 111.453 133.53 110.256 133.322C107.714 132.881 105.533 132.517 102.993 132.06C102.173 131.913 101.472 131.773 100.657 131.595C99.8521 131.419 99.1654 131.252 98.3661 131.051C97.5522 130.847 96.8602 130.65 96.0484 130.437C95.2492 130.227 94.5609 130.06 93.7632 129.844C90.7692 129.034 88.2087 128.318 85.2153 127.506C84.3917 127.283 83.6853 127.092 82.8576 126.884C82.0776 126.689 81.4121 126.504 80.6221 126.355C77.6588 125.794 75.1382 125.151 72.1369 124.856C67.9297 124.442 64.2924 124.534 60.0697 124.333C58.1362 124.242 56.4828 124.081 54.5481 124.021C47.7723 123.813 41.9636 123.614 35.1846 123.569C32.2866 123.549 29.8021 123.673 26.9086 123.836C26.1786 123.877 25.5651 124.032 24.8436 124.15C24.1523 124.263 23.5605 124.365 22.8723 124.495C22.2872 124.605 21.7862 124.704 21.206 124.838C20.113 125.09 19.1829 125.335 18.0924 125.597C17.8768 125.649 17.6857 125.67 17.4742 125.736C17.247 125.808 17.0529 125.878 16.843 125.991C16.7518 126.04 16.6915 126.111 16.6257 126.191C16.5554 126.276 16.5066 126.359 16.4576 126.458C16.4386 126.496 16.4299 126.536 16.434 126.578C16.4361 126.6 16.4505 126.628 16.4771 126.662L1.79043 101.224C1.86413 101.273 1.92377 101.303 1.96933 101.313C2.15741 101.353 2.32328 101.397 2.51491 101.38C3.00488 101.336 3.44589 101.329 3.89965 101.139C5.91293 100.296 7.57978 99.4371 9.52388 98.4448C13.2466 96.5448 16.4942 95.0109 20.0878 92.8766C22.6095 91.3789 24.6294 89.8623 26.964 88.0869C28.0574 87.2554 28.8992 86.4202 29.8638 85.4421C32.3708 82.9002 34.5375 80.7318 36.8774 78.0352C37.9913 76.7515 38.8366 75.5493 39.712 74.0924C41.8753 70.4919 43.7154 67.3853 45.5475 63.6055C47.4935 59.5904 48.779 55.9753 50.4903 51.8548C50.8438 51.0037 51.1179 50.2625 51.4466 49.4016C51.7699 48.5548 52.06 47.8334 52.3533 46.9757C53.7657 42.8457 55.1687 39.3627 56.3195 35.1522C57.6637 30.2337 58.3664 25.9066 59.472 20.929C59.7141 19.8388 59.9281 18.9058 60.17 17.8156C60.401 16.7744 60.6302 15.8882 60.823 14.8393C61.5205 11.045 62.0428 7.77934 62.7132 3.98024C62.7846 3.57598 62.8745 3.23482 62.9423 2.82995C63.0846 1.9801 63.216 1.2523 63.3133 0.396138C63.3258 0.286476 63.2871 0.191728 63.2541 0.0864127C63.2473 0.0648973 63.2269 0.0399926 63.1928 0.0116988L77.8687 25.4311C77.8329 25.4205 77.8061 25.4181 77.7881 25.4239C77.6351 25.4738 77.5045 25.5218 77.3618 25.5963C77.1886 25.6869 77.0461 25.7773 76.889 25.8937C75.1383 27.1905 73.6576 28.3287 71.9126 29.6332C70.2742 30.8578 68.8897 31.935 67.2221 33.1196C65.0278 34.6784 63.1393 36.0062 60.8804 37.4699C60.0719 37.9937 59.3102 38.3275 58.4667 38.7928C57.9211 39.0938 57.4626 39.3687 56.9114 39.6592C56.37 39.9446 55.9151 40.213 55.3458 40.4377C52.8228 41.4334 50.6363 42.2261 48.0836 43.1432C47.4164 43.3829 46.8343 43.5619 46.1486 43.7418C43.6983 44.385 41.6026 44.9614 39.126 45.4945C37.3445 45.878 35.7878 46.0514 33.9916 46.3586C33.6176 46.4226 33.2992 46.4895 32.9255 46.5551C32.7186 46.5914 32.539 46.6097 32.3329 46.65C31.6457 46.7843 31.0497 46.8717 30.3737 47.0539C28.7199 47.4997 27.2796 47.8276 25.6811 48.4429C24.2437 48.9962 23.0732 49.6269 21.7301 50.3808C20.9965 50.7927 20.415 51.2308 19.7646 51.7643C19.1256 52.2885 18.63 52.7998 18.0563 53.3947C17.6918 53.7726 17.39 54.1108 17.0876 54.54C16.4764 55.4073 15.932 56.146 15.4511 57.0918C15.1088 57.7652 14.936 58.401 14.752 59.1336C14.6196 59.6606 14.5516 60.1297 14.5515 60.673C14.5514 61.0409 14.6074 61.3664 14.7514 61.7051C14.9072 62.0716 15.1953 62.5622 15.6158 63.1769L1.09677 38.0292C1.923 38.9217 2.60847 39.5431 3.15319 39.8934C4.36163 40.6707 5.45082 41.3178 6.83099 41.7173C12.2645 43.2901 17.041 44.1897 22.5424 45.5057C23.7413 45.7925 24.7762 46.0074 25.9746 46.2966C27.7594 46.7274 29.2848 47.1146 31.0653 47.5626C32.9323 48.0325 34.5396 48.4091 36.396 48.9193C43.5612 50.8884 49.6868 52.6344 56.8401 54.6461C58.8773 55.219 60.6076 55.7677 62.6547 56.3039C67.4962 57.572 71.6127 58.8173 76.5198 59.8008C81.7957 60.8581 86.3866 61.389 91.7164 62.1281C95.1086 62.5985 98.0376 62.8317 101.436 63.2559C102.001 63.3264 102.477 63.4423 103.037 63.5412C103.583 63.6376 104.052 63.7181 104.598 63.814C105.661 64.0007 106.571 64.164 107.634 64.3485C107.915 64.3973 108.16 64.4214 108.439 64.4805C108.789 64.5546 109.081 64.6481 109.429 64.7289C110.233 64.9154 110.924 65.0651 111.728 65.2444C112.12 65.3317 112.465 65.3734 112.849 65.4906C113.88 65.8053 114.765 66.0785 115.767 66.477C116.143 66.6263 116.42 66.848 116.77 67.0501C117.038 67.205 117.257 67.3571 117.533 67.4969C118.24 67.8543 118.865 68.1225 119.577 68.4695C120.313 68.828 120.963 69.1004 121.67 69.5123C121.866 69.627 121.99 69.7907 122.14 69.9625C122.234 70.0713 122.354 70.2389 122.5 70.4654L137.158 95.8536C137.199 95.9071 137.219 95.9505 137.217 95.9838C137.202 96.203 137.185 96.3967 137.106 96.6017C136.931 97.0569 136.793 97.4675 136.497 97.8549C136.001 98.5042 135.524 99.0408 134.868 99.5283C133.386 100.63 132.036 101.472 130.422 102.37C128.775 103.285 127.349 104.082 125.568 104.699C120.156 106.573 115.367 107.712 109.916 109.47C106.627 110.532 103.803 111.449 100.602 112.754C96.5543 114.404 93.1539 115.991 89.2243 117.906C86.5956 119.188 84.3207 120.279 81.8758 121.883C77.9712 124.446 74.725 126.812 71.1235 129.786C69.8139 130.867 68.8591 132.012 67.9056 133.417C66.439 135.579 65.5201 137.642 64.2463 139.922C63.7314 140.844 63.2758 141.627 62.7951 142.568C62.1529 143.824 61.6022 144.902 61.039 146.196C60.8355 146.663 60.7038 147.087 60.6093 147.588C60.5009 148.163 60.5088 148.67 60.4626 149.253C60.4595 149.292 60.46 149.347 60.4641 149.42L45.7771 123.981C45.8588 123.842 45.9174 123.733 45.9531 123.653C46.0297 123.484 46.0976 123.338 46.1481 123.158C46.4657 122.03 46.7457 121.064 47.0038 119.921C47.6132 117.222 48.1048 114.9 48.626 112.183C49.5378 107.428 50.1838 103.327 51.0976 98.5726C51.6333 95.7852 52.1428 93.4054 52.767 90.6365C53.1877 88.7701 53.555 87.1699 54.0827 85.3309C54.7236 83.0971 55.4749 81.2434 56.1042 79.0063C57.252 74.9264 58.0814 71.3875 59.1584 67.2883C59.4605 66.1388 59.7256 65.1551 60.0444 64.0101C60.3596 62.8776 60.6463 61.9116 60.9699 60.7815C61.4275 59.1831 61.7898 57.8042 62.2763 56.2143C63.507 52.1925 64.5346 48.7354 65.8759 44.7491C66.3561 43.3219 66.9097 42.1507 67.4774 40.756C67.6281 40.3859 67.7717 40.0747 67.9285 39.7071C68.0525 39.4162 68.1593 39.167 68.2798 38.8747C68.3872 38.614 68.4735 38.3882 68.5796 38.1271C68.6933 37.8474 68.8003 37.6115 68.9076 37.3293C68.9536 37.2086 68.9826 37.1013 69.0174 36.9769C69.0628 36.8148 69.0881 36.6722 69.1366 36.511C69.2799 36.035 69.4095 35.629 69.5652 35.1569C69.757 34.5753 69.9369 34.082 70.1292 33.5007C70.2355 33.1795 70.3195 32.9019 70.4182 32.5783C70.4936 32.3313 70.5465 32.1161 70.6266 31.8706C70.6722 31.7308 70.7282 31.617 70.7771 31.4784C70.8185 31.3615 70.8739 31.1932 70.9435 30.9737L85.598 56.356C85.5214 56.5649 85.4613 56.7251 85.4178 56.8368C85.3653 56.9715 85.3119 57.0836 85.2616 57.2191C85.1757 57.4503 85.1073 57.6505 85.0286 57.8842C84.9218 58.2013 84.8377 58.4755 84.7317 58.7928C84.5372 59.3746 84.3556 59.8683 84.1699 60.4529C84.0163 60.9364 83.8979 61.355 83.7625 61.8438C83.7165 62.0101 83.6922 62.1564 83.6516 62.324C83.6197 62.4561 83.6023 62.5726 83.5555 62.7001C83.452 62.9819 83.3404 63.2144 83.2234 63.4908C83.1153 63.746 83.0223 63.9646 82.9124 64.219C82.7881 64.5067 82.6863 64.7555 82.5542 65.0396C82.3914 65.3898 82.2301 65.6797 82.07 66.0312C81.4639 67.3619 80.8771 68.4756 80.3653 69.8454C78.9332 73.6782 77.8185 77.0051 76.52 80.8852C75.9993 82.4411 75.6345 83.8008 75.1683 85.3739C74.8352 86.498 74.5527 87.4624 74.2364 88.5913C73.9159 89.7351 73.6395 90.7154 73.349 91.8672C72.2991 96.0315 71.5373 99.6363 70.407 103.78C69.7964 106.018 69.0202 107.861 68.3777 110.091C67.8482 111.928 67.4818 113.528 67.0603 115.393C66.4351 118.16 65.9039 120.534 65.3877 123.324C64.4951 128.148 63.9101 132.314 63.0359 137.142C62.5379 139.892 62.0183 142.232 61.4672 144.972C61.2213 146.195 61.0232 147.246 60.7588 148.465C60.7166 148.659 60.6503 148.818 60.5916 149.008C60.562 149.104 60.5195 149.241 60.4641 149.42L45.7771 123.981C45.7952 123.934 45.8056 123.898 45.8083 123.871C45.8674 123.29 45.8387 122.782 45.9573 122.21C46.057 121.729 46.2017 121.324 46.4271 120.887C47.0448 119.692 47.6705 118.719 48.358 117.562C48.883 116.679 49.3746 115.947 49.891 115.058C51.1999 112.807 52.1014 110.741 53.5728 108.592C54.5314 107.192 55.4925 106.057 56.7973 104.972C60.3912 101.985 63.6006 99.5621 67.5124 97.0051C69.9614 95.4043 72.2716 94.375 74.918 93.1272C78.8774 91.2603 82.3083 89.7308 86.3751 88.1113C89.5878 86.8319 92.426 85.9584 95.7019 84.8504C101.099 83.0251 105.807 81.6994 111.153 79.7308C112.921 79.0799 114.36 78.3171 115.993 77.3785C117.597 76.4569 118.937 75.5891 120.377 74.4287C121.028 73.9042 121.453 73.2985 121.919 72.6042C122.199 72.1856 122.334 71.7614 122.488 71.2813C122.561 71.0521 122.557 70.8382 122.56 70.5976C122.561 70.5637 122.541 70.5196 122.5 70.4654L137.158 95.8536C137.004 95.6118 136.878 95.4326 136.778 95.3161C136.628 95.1425 136.5 94.9842 136.306 94.8627C135.563 94.3978 134.896 94.0477 134.115 93.65C133.421 93.2968 132.798 93.0537 132.095 92.7186C131.837 92.5956 131.622 92.4784 131.372 92.3415C131.02 92.1495 130.744 91.9346 130.375 91.7791C129.344 91.3448 128.443 91.0111 127.381 90.6603C127.001 90.5351 126.657 90.4982 126.265 90.4222C125.482 90.2705 124.805 90.1752 124.026 90.01C123.668 89.9343 123.374 89.8211 123.019 89.7343C122.731 89.6638 122.48 89.6245 122.191 89.5609C121.094 89.3199 120.159 89.0945 119.06 88.864C118.513 88.7492 118.04 88.672 117.49 88.5745C116.933 88.4758 116.457 88.3847 115.897 88.3034C112.443 87.802 109.47 87.4635 106.024 86.9098C100.626 86.0423 95.9813 85.3733 90.6317 84.2433C85.7298 83.2079 81.6008 82.0022 76.7556 80.7274C74.7067 80.1883 72.977 79.63 70.9362 79.0611C63.8018 77.0722 57.6904 75.3538 50.5411 73.4193C48.6948 72.9197 47.0928 72.5665 45.2361 72.1072C43.4558 71.6667 41.9303 71.287 40.1495 70.8484C38.9374 70.5499 37.9025 70.2768 36.6849 70.0013C31.2597 68.7739 26.5482 67.9773 21.1709 66.5547C19.855 66.2065 18.7875 65.6657 17.6245 64.9585C17.0892 64.633 16.4197 64.0392 15.6158 63.1769L1.09677 38.0292C0.668704 37.4011 0.37461 36.9002 0.214491 36.5265C0.0657893 36.1794 -0.000192116 35.8467 4.20094e-07 35.4691C0.000273128 34.9343 0.0819741 34.4741 0.215802 33.9563C0.404514 33.2261 0.563491 32.5848 0.917509 31.9189C1.40783 30.9966 1.98388 30.297 2.60682 29.4586C2.91865 29.0388 3.21886 28.7027 3.58458 28.329C4.16201 27.7389 4.65823 27.2295 5.29836 26.7081C5.95049 26.177 6.5383 25.7501 7.26681 25.3297C8.59942 24.5608 9.75073 23.8994 11.1749 23.3174C12.7529 22.6727 14.1827 22.3292 15.8147 21.8369C16.4748 21.6378 17.0494 21.4959 17.7217 21.3426C17.9289 21.2953 18.1134 21.2932 18.3241 21.2647C18.7065 21.2129 19.0335 21.163 19.4162 21.1133C21.2518 20.8751 22.8426 20.7826 24.662 20.4421C27.1651 19.9737 29.2801 19.4201 31.7513 18.805C32.4384 18.634 33.0166 18.4422 33.681 18.1973C36.2222 17.2603 38.3953 16.442 40.9072 15.4291C41.4747 15.2003 41.9302 14.9337 42.4733 14.6518C43.0266 14.3647 43.4907 14.0996 44.0392 13.8037C44.8872 13.3462 45.652 13.0185 46.4635 12.4991C48.7298 11.0487 50.6349 9.74573 52.824 8.1813C54.4908 6.99008 55.8792 5.91205 57.4763 4.62881C59.1889 3.25281 60.5927 1.9956 62.2774 0.585646C62.4287 0.459045 62.5598 0.351535 62.7217 0.238885C62.8526 0.147855 62.9688 0.0740289 63.1124 0.004789C63.1293 -0.00339367 63.1562 -0.00109042 63.1928 0.0116988L77.8687 25.4311C77.8947 25.4473 77.9096 25.4626 77.9134 25.477C77.9382 25.5717 77.9698 25.6572 77.9535 25.7537C77.8186 26.5512 77.6598 27.2269 77.4837 28.0163C77.3993 28.3943 77.2886 28.7092 77.2094 29.0883C76.4466 32.7394 75.8464 35.88 75.0782 39.53C74.8617 40.559 74.6316 41.4311 74.3961 42.456C74.1467 43.5418 73.9275 44.4713 73.693 45.5604C72.6096 50.5908 71.9624 54.9696 70.6307 59.94C69.5004 64.1585 68.0869 67.6417 66.6699 71.7728C66.3779 72.624 66.0703 73.3328 65.7485 74.1733C65.4172 75.0387 65.161 75.7916 64.804 76.6468C63.0899 80.7527 61.7971 84.3547 59.8317 88.3464C57.9861 92.0947 56.1097 95.1582 53.9333 98.7246C53.0485 100.175 52.196 101.368 51.0956 102.662C48.7718 105.395 46.654 107.629 44.165 110.213C43.2116 111.202 42.3683 112.039 41.2679 112.862C38.9213 114.617 36.8426 116.038 34.3389 117.56C30.77 119.73 27.5942 121.392 23.9327 123.402C22.0234 124.45 20.3814 125.341 18.4237 126.295C17.9993 126.502 17.5994 126.6 17.141 126.713C16.9728 126.755 16.8192 126.747 16.6464 126.734C16.6036 126.731 16.5471 126.707 16.4771 126.662L1.79043 101.224C1.76449 101.192 1.751 101.165 1.74996 101.145C1.748 101.106 1.76011 101.071 1.78108 101.038C1.83754 100.949 1.89196 100.875 1.96789 100.803C2.04116 100.733 2.10968 100.673 2.20326 100.634C2.42664 100.541 2.62816 100.485 2.86374 100.43C3.08482 100.379 3.28057 100.367 3.5046 100.33C4.63981 100.145 5.61129 99.9758 6.74727 99.7949C7.3474 99.6993 7.86378 99.6303 8.46475 99.5402C9.16348 99.4355 9.76237 99.3455 10.4607 99.2382C11.1822 99.1273 11.7926 98.9563 12.5215 98.9166C15.4203 98.7589 17.9095 98.6422 20.8124 98.6751C27.6127 98.7522 33.4399 98.9577 40.2352 99.2306C42.2003 99.3095 43.8715 99.5916 45.8361 99.6801C50.0206 99.8688 53.6266 99.653 57.799 100.022C60.7945 100.287 63.3102 100.93 66.2651 101.488C67.0635 101.639 67.732 101.842 68.518 102.048C69.3517 102.266 70.0608 102.473 70.8925 102.698C73.8771 103.507 76.435 104.202 79.4217 105.004C80.221 105.218 80.9085 105.393 81.7094 105.601C82.5172 105.811 83.2078 105.998 84.0178 106.199C84.8181 106.398 85.5044 106.568 86.3099 106.744C87.1251 106.923 87.8265 107.064 88.6476 107.213C91.189 107.673 93.3687 108.06 95.9163 108.485C97.0915 108.681 98.1048 108.811 99.2834 108.985C100.934 109.23 102.342 109.485 103.999 109.682C104.576 109.751 105.078 109.779 105.659 109.747C106.779 109.684 107.74 109.6 108.845 109.412C109.23 109.346 109.547 109.209 109.891 109.025C110.04 108.945 110.16 108.83 110.222 108.673C110.319 108.425 110.356 108.184 110.323 107.92C110.201 106.926 109.995 106.089 109.784 105.11C109.64 104.444 109.491 103.878 109.309 103.222C109.132 102.588 108.865 101.687 108.506 100.519L123.128 125.846C122.96 125.484 122.822 125.211 122.714 125.026C122.643 124.904 122.552 124.819 122.464 124.709C122.374 124.598 122.294 124.505 122.204 124.394C121.918 124.043 121.677 123.739 121.389 123.39C120.517 122.333 119.844 121.359 118.887 120.376C117.818 119.277 116.873 118.341 115.618 117.459C114.133 116.416 112.722 115.728 111.102 114.909C108.835 113.765 106.806 112.963 104.521 111.855C103.933 111.57 103.449 111.281 102.898 110.929C101.993 110.352 101.23 109.837 100.365 109.201C100.072 108.986 99.8527 108.761 99.5976 108.503C98.2783 107.169 97.0951 106.072 95.8675 104.652C95.4699 104.193 94.9817 103.475 94.4031 102.499L79.8144 77.2306C79.6405 76.9536 79.511 76.738 79.426 76.5839C79.2939 76.3444 79.188 76.1348 79.0729 75.8866C78.9498 75.6211 78.828 75.398 78.7459 75.1172C78.5842 74.5646 78.4356 74.0867 78.3789 73.5138C78.2731 72.4446 78.292 71.5199 78.2838 70.4455C78.2807 70.0489 78.2825 69.7054 78.3469 69.3141C78.5679 67.9709 78.7929 66.8246 79.0977 65.4979C79.2177 64.9759 79.3512 64.5324 79.559 64.0388C80.1877 62.5451 80.714 61.2535 81.4845 59.8276C82.7323 57.5184 83.8624 55.5662 85.3176 53.3817C86.3067 51.8968 87.3187 50.7394 88.4548 49.3637C88.7562 48.9987 89.0819 48.7477 89.419 48.4154C89.7572 48.082 90.0379 47.7867 90.3841 47.4616C90.7369 47.1304 91.0441 46.851 91.4157 46.541C91.9599 46.087 92.4422 45.7173 92.9997 45.2797C93.5226 44.8694 93.9782 44.5272 94.5024 44.1186C94.843 43.8531 95.1337 43.624 95.4704 43.3535C95.7979 43.0904 96.072 42.8567 96.4001 42.5943C96.9161 42.1818 97.3637 41.835 97.8819 41.4255C98.9225 40.6031 99.8775 39.9722 100.854 39.0745C103.188 36.928 105.091 34.9831 107.33 32.7375C108.158 31.9073 108.865 31.1893 109.615 30.2883C110.986 28.6416 112.251 27.2821 113.386 25.4647C114.42 23.81 115.115 22.2642 115.775 20.4282C116.15 19.3856 116.258 18.4159 116.318 17.3097C116.376 16.2612 116.268 15.355 116.11 14.3169C116.036 13.828 115.85 13.1465 115.553 12.2722L130.158 37.5688C130.057 37.3374 129.961 37.173 129.87 37.0756C129.669 36.86 129.471 36.6894 129.21 36.5523C128.755 36.3135 128.342 36.1412 127.845 36.0123C127.073 35.8122 126.393 35.7067 125.6 35.6169C124.572 35.5004 123.684 35.3918 122.65 35.4239C120.784 35.4817 119.187 35.6292 117.336 35.8732C116.672 35.9609 116.131 36.1844 115.486 36.3688C115.224 36.444 115.006 36.5319 114.745 36.6145C114.44 36.7112 114.17 36.7671 113.871 36.8809C111.374 37.8327 109.227 38.6343 106.759 39.6583C106.148 39.9116 105.668 40.2221 105.082 40.5272C103.056 41.5816 101.322 42.4908 99.2946 43.5425C98.4896 43.9601 97.8167 44.3543 96.9891 44.725C92.7379 46.6293 89.1617 48.439 84.7875 50.0408C80.1771 51.7291 76.0726 52.7237 71.3624 54.1094C69.6459 54.6144 68.1597 54.9954 66.4271 55.4421C65.281 55.7377 64.2868 55.9431 63.1385 56.2301C60.9998 56.7645 59.1359 57.1184 57.0358 57.7888C55.4824 58.2846 54.1258 58.7206 52.7246 59.5544C50.837 60.6776 49.3424 61.8592 47.7153 63.3346C45.339 65.4894 43.4676 67.5166 41.3181 69.8977C40.5354 70.7646 39.945 71.5882 39.3547 72.596C37.6565 75.4951 36.1837 77.9837 34.7906 81.041C33.6099 83.6322 32.7762 85.9454 32.021 88.6909C31.6394 90.0781 31.6232 91.3383 31.5625 92.7757C31.5108 93.9979 31.5206 95.0582 31.7008 96.2681C32.0372 98.528 32.5092 100.435 33.0336 102.658C33.3124 103.841 33.6157 104.84 33.9941 105.994C34.5859 107.8 35.471 110.365 36.6497 113.691L22.387 88.9879C24.1037 92.245 25.4625 94.7288 26.4635 96.4392C26.9235 97.2251 27.422 97.8338 27.9836 98.5505C28.5585 99.284 29.0206 99.9502 29.7081 100.579C31.1227 101.874 32.3225 103.039 33.9667 104.026C35.6497 105.036 37.2472 105.653 39.1237 106.229C40.962 106.793 42.6005 107.141 44.5195 107.263C48.2498 107.499 51.4617 107.313 55.199 107.249C56.3849 107.229 57.3962 107.093 58.5802 107.022C59.7902 106.951 60.835 106.986 62.0386 106.844C66.0876 106.365 69.5752 106.025 73.578 105.25C75.8647 104.807 77.7896 104.212 79.9628 103.374C82.1969 102.513 84.1005 101.683 86.1288 100.411C88.4294 98.9672 90.3113 97.5468 92.2623 95.6573C94.0622 93.9142 95.4071 92.1993 96.7751 90.1001C99.0848 86.5557 100.722 83.3056 102.736 79.585C103.357 78.4365 103.784 77.3974 104.299 76.1972C104.64 75.4021 104.891 74.7033 105.178 73.8874C105.468 73.0665 105.71 72.3598 105.946 71.5221C106.179 70.6963 106.39 69.9867 106.518 69.1383C106.827 67.088 107.166 65.326 107.194 63.2527C107.231 60.5214 107.162 58.1565 106.704 55.4636C106.398 53.667 105.693 51.1607 104.589 47.9447L118.796 72.5509C117.486 69.8981 116.332 67.9599 115.335 66.7364C113.598 64.6068 111.725 63.1212 109.642 61.3281C108.488 60.334 107.36 59.6548 106.106 58.7899C102.927 56.598 100.149 54.7978 96.9778 52.595C95.9616 51.8891 95.197 51.1313 94.1444 50.4808C92.9282 49.7292 91.8601 49.0924 90.517 48.6022C88.3693 47.8184 86.4787 47.2244 84.2218 46.8594C81.1248 46.3586 78.4244 46.1554 75.2872 46.1394C69.0061 46.1073 63.6182 46.3132 57.3503 46.7222C55.8206 46.822 54.512 47.1064 53.0573 47.5899C51.6241 48.0662 50.5053 48.7561 49.1607 49.4438C48.6067 49.7272 48.1571 50.0185 47.638 50.3619C47.0924 50.7228 46.601 51.0094 46.1213 51.4542C45.1623 52.3436 44.3151 53.1035 43.5431 54.1593C42.6923 55.3229 42.084 56.42 41.5203 57.7467C40.3098 60.5958 39.3799 63.0909 38.4888 66.0554C37.9672 67.7905 37.6189 69.3282 37.4957 71.1358C37.2949 74.0823 37.2847 76.6337 37.5676 79.5734C37.7236 81.1946 38.1895 83.4742 38.9654 86.412L24.6238 61.5716C25.5321 63.7084 26.2606 65.3382 26.809 66.461C27.0755 67.0064 27.4103 67.4145 27.73 67.9304C28.0034 68.3715 28.2287 68.7551 28.5036 69.1952C28.7307 69.5586 28.937 69.8627 29.1643 70.2259C29.3344 70.4978 29.4699 70.7372 29.6388 71.0098C29.7572 71.201 29.8628 71.3622 29.9849 71.551C30.0473 71.6475 30.0995 71.7311 30.1659 71.8248C30.1742 71.8364 30.1886 71.8507 30.2093 71.8677L30.2093 71.8677C30.2093 71.8677 32.658 76.1091 37.5555 84.5917Z" sodipodi:nodetypes="ccccccccccccccccccccccccccccccccccccccccccccccccccccccccccccccccccccccccccccccccccccccccccccccccccccccccccccccccccccccccccccccccccccccccccccccccccccccccccccccccccccccccccccccccccccccccccccccccccccccccccccccccccccccccccccccccccccccccccccccccccccccccccccccccccccccccccccccccccccccccccccccccccccccccccccccccccccccccccccccccccccccccccccccccccccccccccccccccccccccccccccccccccccccccccccccccccccccccccccccccccccccccccccccccccccccccccccccccccccccccccccccccccccccccccccccccccccccccccccccccccccccccccccccccccccccccccccccccccccccccccccccccccccccccccccccccccccccccccccccccccc"/>
</svg>
