<?xml version="1.0" standalone="no"?>
<!DOCTYPE svg PUBLIC "-//W3C//DTD SVG 20010904//EN" "http://www.w3.org/TR/2001/REC-SVG-20010904/DTD/svg10.dtd">
<!-- Created using Krita: https://krita.org -->
<svg xmlns="http://www.w3.org/2000/svg" 
    xmlns:xlink="http://www.w3.org/1999/xlink"
    xmlns:krita="http://krita.org/namespaces/svg/krita"
    xmlns:sodipodi="http://sodipodi.sourceforge.net/DTD/sodipodi-0.dtd"
    width="144pt"
    height="144pt"
    viewBox="0 0 144 144">
<defs/>
<path id="shape0" transform="translate(35.5196374146251, 42.9043682931964)" fill="#3EC8F4" d="M76.1993 73.9406L61.4993 48.4795L76.1993 73.9406C76.1859 73.9397 76.1761 73.9375 76.17 73.934C76.117 73.9035 76.0747 73.8721 76.0231 73.8392C75.9798 73.8114 75.9416 73.7892 75.8989 73.7604C75.8531 73.7294 75.813 73.7035 75.7703 73.6683C75.6184 73.5432 75.4897 73.434 75.3432 73.3025C75.2635 73.231 75.2005 73.1639 75.1243 73.0887C74.7112 72.6807 74.3531 72.335 73.9452 71.9218C73.8254 71.8005 73.7301 71.6896 73.6172 71.5619C73.4257 71.3456 73.2722 71.1508 73.0757 70.9391C72.8659 70.7131 72.6738 70.5313 72.4571 70.3121C72.303 70.1563 72.1659 70.0276 72.0162 69.8677C71.8598 69.7007 71.7374 69.547 71.5828 69.3784C71.3513 69.1259 71.1461 68.9158 70.9132 68.6646C70.7693 68.5093 70.6468 68.3755 70.5064 68.217C70.376 68.0698 70.2738 67.9352 70.1397 67.7913C70.019 67.6618 69.9041 67.5619 69.779 67.4366C69.5912 67.2486 69.4438 67.0734 69.2459 66.8962C69.1206 66.784 68.9971 66.7071 68.8583 66.6121C68.6633 66.4787 68.4882 66.3764 68.2924 66.244C68.1237 66.13 67.9897 66.0164 67.8171 65.9082C67.6322 65.7924 67.4668 65.7039 67.2723 65.6049C66.7034 65.3153 66.2122 65.0738 65.6364 64.7982C65.1278 64.5547 64.6851 64.3602 64.174 64.1218C63.8064 63.9503 63.5054 63.7703 63.1259 63.6269C61.6285 63.0612 60.3571 62.5296 58.8159 62.0975C57.8203 61.8184 56.9279 61.7421 55.9035 61.602C55.3729 61.5295 54.913 61.4933 54.3775 61.4907C52.7595 61.4827 51.3701 61.4689 49.7554 61.5716C49.1324 61.6112 48.6123 61.7671 48.0015 61.8963C47.8599 61.9262 47.744 61.9743 47.6086 62.0257C47.4674 62.0793 47.3494 62.133 47.2121 62.1961C47.0742 62.2595 46.953 62.3091 46.8227 62.3869C46.6547 62.487 46.5266 62.5975 46.362 62.7031C46.2732 62.7601 46.1868 62.7923 46.0992 62.8512C46.0237 62.9021 45.9683 62.9582 45.8977 63.0157C45.7963 63.0983 45.7076 63.1671 45.6078 63.2516C45.5097 63.3348 45.4209 63.4014 45.3323 63.4947C45.2059 63.6279 45.1057 63.7503 44.9953 63.8971C44.9154 64.0032 44.8593 64.103 44.7895 64.216C44.7454 64.2874 44.7127 64.3517 44.67 64.4239C44.631 64.4899 44.5957 64.5453 44.5559 64.6108C44.5128 64.6816 44.4766 64.7428 44.433 64.8133C44.369 64.9169 44.3076 65.0018 44.2483 65.1082C44.189 65.2147 44.1537 65.3141 44.0946 65.4207C44.0556 65.4911 44.0062 65.5419 43.9685 65.613C43.8997 65.7425 43.85 65.8583 43.791 65.9926C43.7444 66.0987 43.7109 66.1925 43.6667 66.2997C43.6029 66.4542 43.5453 66.5855 43.4823 66.7404C43.4422 66.8392 43.4064 66.9235 43.372 67.0244C43.3395 67.1196 43.3161 67.2027 43.2914 67.3001C43.2676 67.3936 43.2607 67.4771 43.2335 67.5696C43.2058 67.6639 43.1633 67.7385 43.1349 67.8326C43.0853 67.9966 43.0563 68.1408 43.0109 68.3059C42.9735 68.4424 42.9223 68.5548 42.8983 68.6943C42.8016 69.2553 42.7088 69.7364 42.6668 70.3041C42.5975 71.2415 42.5855 72.0483 42.5807 72.9882C42.5738 74.365 42.5721 75.5462 42.6334 76.9217C42.6475 77.239 42.7285 77.5041 42.7957 77.8145C42.8636 78.1283 42.9441 78.392 43.0193 78.7041C43.0672 78.9031 43.0955 79.0767 43.1476 79.2747C43.1793 79.3948 43.2226 79.4929 43.2584 79.6119C43.2934 79.7281 43.3103 79.8317 43.3497 79.9465C43.3873 80.0564 43.4349 80.1447 43.4779 80.2526C43.5166 80.3499 43.5504 80.4332 43.5833 80.5327C43.6142 80.6263 43.6336 80.7088 43.6601 80.8038C43.6814 80.8799 43.6942 80.9468 43.7196 81.0216C43.7238 81.034 43.7339 81.0497 43.75 81.0687L29.0612 55.627C29.0707 55.6193 29.076 55.6125 29.0771 55.6066C29.1052 55.4537 29.1311 55.3225 29.1456 55.1678C29.1639 54.9717 29.1509 54.8016 29.1708 54.6057C29.1948 54.3692 29.2458 54.1702 29.2709 53.9338C29.322 53.4535 29.3519 53.0404 29.3886 52.5588C29.4 52.4093 29.4031 52.2807 29.4083 52.1308C29.4162 51.9022 29.4196 51.7061 29.426 51.4774C29.4303 51.3273 29.4362 51.1987 29.4388 51.0486C29.4432 50.7964 29.4746 50.5786 29.446 50.3279C29.3881 49.8198 29.3006 49.3888 29.1928 48.8889C29.1463 48.6736 29.0757 48.4968 29.0058 48.2878C28.9622 48.1573 28.9227 48.0458 28.8685 47.9193C28.8097 47.7821 28.7583 47.6643 28.6832 47.5354C28.4768 47.1812 28.1725 46.681 27.7702 46.0346L42.3651 71.3137C42.1009 70.9193 41.8918 70.6203 41.7375 70.4167C41.4331 70.0146 41.1581 69.6807 40.8351 69.2934C40.6687 69.0937 40.5123 68.9344 40.3396 68.7401C40.1147 68.4871 39.9235 68.2689 39.6991 68.0156C39.5718 67.8719 39.4628 67.7487 39.3347 67.6058C39.2194 67.4771 39.1224 67.3649 39.0036 67.2394C38.8884 67.1178 38.7978 67.0037 38.6663 66.9C38.3687 66.6654 38.1014 66.4791 37.7814 66.2761C37.5969 66.159 37.4192 66.0927 37.2277 65.9874C36.9755 65.8485 36.7647 65.7199 36.5138 65.5785C36.3654 65.4949 36.2355 65.4279 36.0869 65.3446C35.9422 65.2635 35.8195 65.1919 35.6759 65.1089C35.5334 65.0266 35.4144 64.9506 35.2696 64.8724C35.1444 64.8049 35.0334 64.754 34.9049 64.6929C34.6484 64.5711 34.4246 64.4751 34.1697 64.3499C34.068 64.3 33.9869 64.2456 33.8866 64.1928C33.7959 64.1451 33.7183 64.1036 33.6242 64.063C33.5356 64.0248 33.4573 63.9971 33.3654 63.9678C32.8596 63.8068 32.4237 63.6763 31.9166 63.5193C31.7822 63.4777 31.6669 63.4424 31.5327 63.4003C31.3979 63.358 31.283 63.3196 31.1479 63.2781C30.73 63.1498 30.3722 63.0383 29.9528 62.915C29.7136 62.8446 29.5101 62.7769 29.2663 62.7246C28.9371 62.6541 28.6494 62.6226 28.3178 62.5645C28.1167 62.5292 27.9463 62.4877 27.7444 62.4578C27.3757 62.4031 27.056 62.3831 26.6882 62.3231C26.4824 62.2895 26.3126 62.2278 26.1075 62.1905C25.7416 62.124 25.4263 62.0764 25.0578 62.0267C24.9348 62.0101 24.828 62.008 24.704 62.001C24.3464 61.981 24.0401 61.9527 23.6819 61.9497C22.7078 61.9415 21.8725 61.94 20.8988 61.9692C20.7203 61.9745 20.5693 62.0106 20.3947 62.0481C20.0179 62.1292 19.6953 62.2029 19.3244 62.3077C18.9502 62.4133 18.6321 62.5145 18.2672 62.6487C18.1523 62.691 18.0651 62.753 17.957 62.8105C17.8421 62.8717 17.7428 62.9227 17.6302 62.9881C17.4699 63.0811 17.3323 63.1608 17.1776 63.263C17.0052 63.3769 16.8587 63.4771 16.6964 63.6049C16.55 63.7201 16.4319 63.8282 16.2968 63.9564C16.227 64.0226 16.1707 64.0836 16.1117 64.1596C16.0549 64.233 16.0219 64.3069 15.967 64.3818C15.914 64.4541 15.8539 64.505 15.8041 64.5796C15.7507 64.6596 15.7177 64.736 15.6735 64.8215C15.5748 65.0125 15.4865 65.1746 15.3961 65.3697C15.3268 65.5193 15.2799 65.653 15.2174 65.8056C15.1798 65.8974 15.1398 65.9732 15.11 66.0678C15.0474 66.2665 15.0112 66.4419 14.954 66.6423C14.9057 66.8114 14.8595 66.9549 14.8085 67.1232C14.7791 67.2204 14.7563 67.3044 14.7243 67.4007C14.7154 67.4276 14.698 67.4471 14.6918 67.4747C14.6906 67.4798 14.6945 67.4862 14.7033 67.4938L0.00901963 42.0426C0.0157055 42.0517 0.0216416 42.0561 0.026828 42.0559C0.035006 42.0556 0.0402284 42.0479 0.0450611 42.0413C0.0845659 41.9873 0.112643 41.9369 0.152976 41.8836C0.27204 41.726 0.386614 41.6004 0.500309 41.4389C0.576188 41.3312 0.62613 41.229 0.693617 41.1158C0.817638 40.9077 0.922754 40.7287 1.04747 40.5211C1.10629 40.4232 1.16278 40.3429 1.21799 40.2429C1.26976 40.1491 1.30204 40.0625 1.35278 39.9682C1.40387 39.8732 1.45908 39.7981 1.50874 39.7024C1.57378 39.577 1.61089 39.4601 1.68017 39.337C1.81249 39.1019 1.93876 38.9078 2.0839 38.6803C2.13998 38.5924 2.19932 38.5246 2.25488 38.4364C2.30467 38.3574 2.32821 38.2776 2.38449 38.2031C2.60335 37.9131 2.79729 37.6686 3.03905 37.3975C3.20694 37.2091 3.37068 37.0664 3.55316 36.8922C3.66431 36.7861 3.76462 36.7005 3.87786 36.5966C3.98517 36.4981 4.07693 36.4134 4.18329 36.3139C4.27461 36.2285 4.34437 36.1455 4.44264 36.0681C4.65089 35.9042 4.84704 35.7873 5.05733 35.626C5.28292 35.453 5.46875 35.2951 5.68747 35.1135C5.91694 34.923 6.11554 34.7617 6.3378 34.5628C6.44797 34.4642 6.52648 34.3629 6.63658 34.2642C6.78397 34.1321 6.93093 34.0424 7.07268 33.9043C7.93777 33.0615 8.67464 32.3339 9.51167 31.4633C9.67201 31.2965 9.77513 31.1239 9.91953 30.9431C10.235 30.5483 10.5371 30.2338 10.8254 29.8188C11.5727 28.7434 12.2061 27.8144 12.8757 26.689C13.4056 25.7984 13.7928 24.9963 14.2485 24.0656C14.4523 23.6494 14.5799 23.2713 14.7585 22.8437C15.0366 22.178 15.2765 21.608 15.5532 20.9417C15.7297 20.5168 15.9048 20.1615 16.0532 19.726C16.4379 18.5971 16.7478 17.6222 17.0753 16.4753C17.2211 15.9646 17.3103 15.5166 17.4045 14.9938C17.5709 14.0701 17.7139 13.277 17.8196 12.3443C17.8555 12.0276 17.8474 11.7501 17.8082 11.4339C17.7396 10.8811 17.6313 10.4144 17.5125 9.87022C17.4761 9.70324 17.4271 9.56399 17.3654 9.4046C17.2736 9.16723 17.1833 8.9682 17.0744 8.73816C16.9477 8.47044 16.8296 8.24553 16.6925 7.98299C16.5987 7.80345 16.4614 7.5487 16.2807 7.21873L30.9344 32.5996C30.8691 32.4881 30.8165 32.4038 30.7767 32.3468C30.7197 32.2652 30.6607 32.2028 30.6013 32.1229C30.5517 32.0561 30.517 31.993 30.4653 31.9278C30.4135 31.8623 30.3621 31.8119 30.306 31.7501C30.253 31.6917 30.2079 31.6414 30.1537 31.5842C30.0914 31.5186 30.0365 31.4638 29.9731 31.3992C29.9027 31.3276 29.84 31.2685 29.7715 31.1951C29.7034 31.1222 29.6549 31.0503 29.5829 30.9813C29.2536 30.6657 28.9466 30.4211 28.6257 30.0969C28.3373 29.8055 28.1147 29.5324 27.844 29.2245C27.7421 29.1085 27.6607 29.004 27.5612 28.886C27.4656 28.7726 27.3829 28.676 27.2865 28.5633C27.1541 28.4086 27.0416 28.2753 26.9076 28.1221C26.7935 27.9916 26.7006 27.8749 26.5777 27.7526C26.5013 27.6765 26.4264 27.6211 26.3397 27.5569C26.2544 27.4938 26.1737 27.4506 26.0871 27.3891C25.9275 27.2758 25.7976 27.1689 25.6365 27.0578C25.5588 27.0042 25.485 26.9697 25.4055 26.9189C25.3412 26.8779 25.2865 26.8416 25.2257 26.7956C25.1685 26.7522 25.1292 26.7021 25.0686 26.6637C24.9992 26.6197 24.9277 26.6039 24.8573 26.5618C24.7942 26.5241 24.75 26.4772 24.6889 26.4365C24.628 26.3961 24.5716 26.3682 24.509 26.3304C24.4489 26.2941 24.3983 26.2615 24.3386 26.2246C24.2721 26.1835 24.2149 26.1486 24.1483 26.1078C24.0851 26.0689 24.0276 26.0405 23.9675 25.9969C23.9175 25.9605 23.8819 25.9203 23.835 25.88C23.7578 25.8136 23.6886 25.7604 23.613 25.6923C23.5746 25.6577 23.5522 25.6163 23.5097 25.5869C23.4378 25.5373 23.3696 25.5042 23.2897 25.4691C23.2389 25.4467 23.1934 25.4238 23.138 25.4234C23.0811 25.423 23.027 25.4328 22.9814 25.4669C22.9576 25.4846 22.9696 25.521 22.9677 25.5506C22.9654 25.5839 22.9607 25.6136 22.9694 25.6458C23.0012 25.7642 23.0504 25.859 23.0823 25.9773C23.1117 26.0867 23.1141 26.1858 23.144 26.295C23.1642 26.3687 23.1984 26.426 23.2247 26.4978C23.2523 26.5733 23.2605 26.6444 23.2979 26.7156C23.371 26.8547 23.4861 27.0475 23.6432 27.294C17.2959 16.2944 12.4114 7.83419 8.98972 1.91353C8.92552 1.80243 9.01361 1.96318 9.25399 2.39577C15.5983 13.385 20.4788 21.8382 23.8953 27.7553C23.9457 27.8425 24.018 27.967 24.1123 28.1286L9.47934 2.7836C9.57703 2.94121 9.65459 3.06082 9.71202 3.14243C9.87908 3.37981 10.0168 3.58813 10.2025 3.81118C10.8761 4.62004 11.3932 5.37448 12.166 6.08919C13.0784 6.93307 13.99 7.504 14.9912 8.24026C15.2086 8.40009 15.4085 8.51885 15.6455 8.6478C15.982 8.8309 16.2584 9.02893 16.6278 9.13074C18.229 9.5721 19.6242 9.86751 21.2528 10.1934C21.9128 10.3255 22.4885 10.3959 23.1602 10.4379C24.8139 10.5412 26.2343 10.5913 27.8911 10.6083C28.7559 10.6172 29.4971 10.5675 30.3601 10.512C30.5811 10.4978 30.7655 10.4418 30.9846 10.4093C31.2878 10.3644 31.5517 10.3505 31.8524 10.2909C32.3149 10.1991 32.7057 10.0941 33.1624 9.97717C33.4579 9.90152 33.7079 9.82439 34.0012 9.74076C34.2987 9.65592 34.5518 9.57625 34.8506 9.49582C35.0246 9.44896 35.1787 9.42765 35.3517 9.37717C35.576 9.31174 35.7644 9.24271 35.9847 9.16499C36.125 9.11552 36.2441 9.06977 36.3819 9.01386C36.5991 8.92575 36.7779 8.83181 36.9988 8.75356C37.2065 8.67999 37.3933 8.64462 37.6042 8.58087C37.7486 8.53723 37.8732 8.50134 38.0138 8.4468C38.1464 8.39537 38.2552 8.33952 38.3838 8.27856C38.5607 8.19462 38.7087 8.11496 38.8865 8.03284C39.0018 7.97961 39.1068 7.94787 39.2208 7.89199C39.3988 7.80474 39.5424 7.71228 39.7201 7.62434C39.8031 7.58324 39.8774 7.55429 39.9649 7.52375C40.325 7.39804 40.6363 7.29834 40.9982 7.17806C41.1218 7.13699 41.2293 7.10625 41.352 7.06275C41.4787 7.01786 41.5845 6.97205 41.7106 6.9256C41.9261 6.84622 42.1191 6.7988 42.3279 6.70327C43.1518 6.32637 43.8444 5.97417 44.6587 5.57698C44.7756 5.51993 44.8799 5.47705 44.9886 5.4055C45.2024 5.2648 45.3792 5.13396 45.5775 4.97217C45.6507 4.9124 45.7011 4.84715 45.7617 4.77463C45.8132 4.71304 45.847 4.65218 45.8974 4.58965C45.9485 4.52618 46.0016 4.4795 46.0514 4.41499C46.0994 4.3529 46.1382 4.29739 46.1762 4.22874C46.2358 4.12099 46.2748 4.02236 46.3297 3.91214C46.3533 3.86472 46.3718 3.82284 46.4006 3.77841C46.4297 3.73376 46.4641 3.70238 46.4944 3.65859C46.5203 3.62121 46.5354 3.5846 46.5609 3.54696C46.568 3.53648 46.5814 3.51062 46.587 3.52198C46.5929 3.53399 46.5893 3.55277 46.5763 3.57831L61.2627 29.016C61.0863 29.3331 60.9429 29.572 60.8323 29.7327C60.3203 30.477 59.8575 31.0982 59.3271 31.8296C59.062 32.1953 58.8479 32.5194 58.5595 32.867C58.0952 33.4269 57.6595 33.8743 57.1787 34.42C56.9963 34.627 56.8328 34.7988 56.6649 35.0176C56.2186 35.5992 55.854 36.1113 55.4248 36.7057C55.06 37.2108 54.749 37.6451 54.3965 38.1589C54.243 38.3825 54.1074 38.573 53.9795 38.8122C53.6829 39.3664 53.3888 39.8282 53.1852 40.4229C52.8091 41.5221 52.5304 42.486 52.3305 43.6305C52.0735 45.1028 51.9748 46.3855 51.8838 47.8773C51.8396 48.6007 51.9031 49.2235 51.9449 49.947C52.0165 51.1841 52.1081 52.2425 52.2077 53.4776C52.2458 53.9494 52.2864 54.3532 52.3384 54.8237C52.3877 55.2706 52.4276 55.6543 52.4971 56.0985C52.6767 57.247 52.8173 58.2346 53.0502 59.3734C53.1997 60.1046 53.4014 60.7141 53.5888 61.4364C53.6595 61.7089 53.7079 61.9457 53.7877 62.2156C53.8773 62.5186 53.9623 62.7762 54.0725 63.0723C54.2033 63.4242 54.3137 63.7276 54.4759 64.0661C54.5214 64.1611 54.6054 64.286 54.7279 64.4406L40.0684 39.0496C40.1975 39.1857 40.3 39.287 40.3758 39.3536C40.4608 39.4281 40.5393 39.4861 40.6349 39.5465C40.7259 39.6041 40.8104 39.6426 40.9074 39.6895C40.9231 39.6971 40.9468 39.7048 40.9784 39.7126L55.6557 65.1346C55.6235 65.126 55.5995 65.1176 55.5836 65.1095C55.4838 65.0581 55.397 65.0153 55.3034 64.9533C55.2051 64.8881 55.1249 64.8256 55.0368 64.7472C54.961 64.6797 54.858 64.5775 54.7279 64.4406L40.0684 39.0496C39.9524 38.9059 39.8733 38.7895 39.8311 38.7005C39.677 38.3757 39.5726 38.0845 39.4505 37.7464C39.3503 37.4689 39.2751 37.2269 39.1963 36.9426C39.1261 36.6894 39.0877 36.4669 39.0253 36.2116C38.8554 35.5168 38.6717 34.9299 38.5326 34.2283C38.3074 33.0917 38.1613 32.1086 37.9853 30.9633C37.9181 30.5261 37.8843 30.1481 37.838 29.7082C37.7887 29.2406 37.7493 28.8394 37.7123 28.3707C37.615 27.1385 37.5249 26.0827 37.4544 24.8487C37.413 24.1248 37.3544 23.502 37.3926 22.7779C37.4728 21.2586 37.5553 19.9523 37.7922 18.4495C37.9773 17.2762 38.2276 16.2816 38.5952 15.1521C38.7897 14.5544 39.0864 14.0922 39.3895 13.5416C39.5176 13.3088 39.6707 13.136 39.8244 12.9193C40.1842 12.412 40.496 11.9796 40.8566 11.4729C41.2848 10.8713 41.6351 10.3434 42.0782 9.75269C42.2435 9.53226 42.412 9.36484 42.5933 9.15735C43.0729 8.60838 43.5106 8.16014 43.9666 7.59139C44.2532 7.23392 44.4484 6.89002 44.7118 6.51511C45.2328 5.77362 45.7218 5.16675 46.2075 4.40171C46.3203 4.22399 46.4433 3.94952 46.5763 3.57831L61.2627 29.016C61.2773 28.9929 61.2819 28.9758 61.2764 28.9647C61.2709 28.9537 61.2549 28.9742 61.2464 28.9831C61.2172 29.0139 61.1958 29.0435 61.1697 29.077C61.1367 29.1193 61.1071 29.1548 61.0776 29.1996C61.049 29.2432 61.0288 29.2831 61.0041 29.329C60.947 29.4353 60.9049 29.5301 60.8441 29.6343C60.8047 29.7017 60.7665 29.7572 60.7181 29.8184C60.6678 29.8821 60.6147 29.9282 60.5625 29.9903C60.5114 30.051 60.4753 30.1092 60.4231 30.1689C60.3611 30.2398 60.3116 30.3057 60.2367 30.3628C60.034 30.5174 59.8526 30.6408 59.6335 30.7711C59.5212 30.838 59.4111 30.8684 59.2929 30.9242C58.4733 31.3114 57.776 31.6544 56.9542 32.0368C56.7478 32.1329 56.5662 32.2052 56.3553 32.2911C56.2308 32.3418 56.1235 32.3842 55.996 32.4269C55.8716 32.4686 55.7597 32.4875 55.6363 32.5319C55.2802 32.6599 54.9799 32.7829 54.6269 32.9191C54.5403 32.9526 54.4648 32.9783 54.3803 33.0167C54.1994 33.0988 54.0502 33.1819 53.8689 33.2633C53.7528 33.3154 53.6473 33.346 53.531 33.3978C53.352 33.4776 53.2037 33.5573 53.0256 33.639C52.896 33.6983 52.7855 33.7511 52.6519 33.8008C52.5102 33.8534 52.3848 33.8874 52.24 33.9308C52.0291 33.9941 51.8433 34.032 51.6357 34.1054C51.4147 34.1837 51.2346 34.2749 51.0176 34.3636C50.8802 34.4198 50.7641 34.4731 50.6231 34.5193C50.3988 34.5928 50.2036 34.6468 49.9749 34.7054C49.7993 34.7504 49.6447 34.7714 49.4687 34.8152C49.167 34.8903 48.91 34.9612 48.6106 35.045C48.3176 35.127 48.0707 35.2124 47.7762 35.289C47.3201 35.4078 46.9295 35.5144 46.4666 35.6034C46.1636 35.6616 45.8976 35.6714 45.5913 35.7089C45.368 35.7362 45.1784 35.7804 44.9536 35.7887C44.0777 35.8209 43.3259 35.8439 42.4497 35.8245C40.7876 35.7877 39.3628 35.7348 37.7037 35.628C37.0353 35.5849 36.462 35.5213 35.8039 35.3965C34.189 35.0902 32.8034 34.8209 31.2153 34.3971C30.8435 34.2979 30.5656 34.0975 30.2301 33.9091C29.9832 33.7704 29.7816 33.6328 29.5542 33.464C28.5551 32.7226 27.6447 32.1493 26.7269 31.3094C25.9806 30.6264 25.4757 29.9075 24.823 29.1346C24.6425 28.9209 24.5091 28.7207 24.3478 28.4923C24.2894 28.4097 24.2109 28.2885 24.1123 28.1286L9.47934 2.7836C9.27678 2.4344 9.20167 2.30512 9.25399 2.39577C12.67 8.31313 17.5505 16.7663 23.8953 27.7553C23.7885 27.554 23.7044 27.4003 23.6432 27.294C20.2265 21.3705 15.342 12.9103 8.98972 1.91353C8.82689 1.65712 8.70739 1.45666 8.63121 1.31214C8.59344 1.24048 8.58526 1.16885 8.55716 1.09288C8.52978 1.01882 8.49371 0.959797 8.47277 0.883668C8.44313 0.775913 8.4432 0.677631 8.41331 0.569944C8.37815 0.443236 8.32405 0.342249 8.28745 0.215948C8.27728 0.180848 8.27891 0.148273 8.28054 0.111766C8.28183 0.0828609 8.27104 0.0455902 8.29573 0.0305058C8.34577 -6.35802e-05 8.40229 -0.00274209 8.46076 0.00166149C8.51824 0.00599014 8.56383 0.0316745 8.61668 0.054677C8.69374 0.0882168 8.76204 0.114878 8.83106 0.162832C8.87737 0.195007 8.89968 0.242289 8.94136 0.280266C9.01522 0.34756 9.08518 0.397567 9.16061 0.463094C9.2107 0.506605 9.24694 0.551701 9.29986 0.591707C9.36031 0.637393 9.41864 0.667152 9.48315 0.706892C9.54878 0.747323 9.60565 0.78097 9.67167 0.820756C9.73024 0.856055 9.7804 0.886397 9.83914 0.92142C9.90206 0.958931 9.95856 0.986985 10.0193 1.028C10.082 1.07037 10.1263 1.12017 10.1911 1.15926C10.2605 1.2011 10.3321 1.21457 10.4005 1.25791C10.462 1.29681 10.5017 1.34758 10.5591 1.39221C10.6221 1.44118 10.6777 1.48117 10.7443 1.52509C10.8244 1.5779 10.8995 1.61322 10.9779 1.66841C11.1415 1.78343 11.2726 1.89437 11.435 2.01094C11.5208 2.07249 11.6018 2.1144 11.6867 2.1771C11.7733 2.2411 11.8485 2.29609 11.9245 2.37245C12.0506 2.49911 12.1453 2.62019 12.2622 2.7554C12.3992 2.91404 12.5142 3.05215 12.6499 3.21199C12.7469 3.32629 12.8301 3.42426 12.927 3.53867C13.0235 3.65264 13.1035 3.75263 13.2024 3.8645C13.4719 4.16923 13.6923 4.44074 13.9795 4.72883C14.2956 5.04589 14.5997 5.2828 14.924 5.5914C14.9975 5.66128 15.0457 5.73522 15.1149 5.80921C15.1817 5.88048 15.2434 5.93713 15.3124 6.00622C15.3741 6.06799 15.428 6.11992 15.4883 6.18309C15.5437 6.24112 15.5888 6.29304 15.6427 6.35242C15.6978 6.41316 15.7491 6.4618 15.7998 6.5263C15.8551 6.59667 15.8916 6.66492 15.9447 6.73694C16.0036 6.81682 16.063 6.87868 16.1197 6.96009C16.1604 7.0184 16.214 7.10461 16.2807 7.21873L30.9344 32.5996C31.1108 32.9221 31.2447 33.1711 31.3362 33.3467C31.4688 33.6012 31.5826 33.8194 31.705 34.079C31.8132 34.3084 31.9039 34.5065 31.9948 34.7433C32.0536 34.8966 32.0976 35.0314 32.132 35.1919C32.2482 35.7346 32.3583 36.1993 32.4246 36.7502C32.4621 37.0614 32.4686 37.335 32.4274 37.6457C32.3074 38.5513 32.1479 39.3193 31.9656 40.2144C31.8621 40.7224 31.7614 41.1563 31.6114 41.6526C31.2699 42.7818 30.9557 43.7437 30.5619 44.8558C30.4097 45.2857 30.2291 45.6345 30.0523 46.0549C29.7727 46.7202 29.5315 47.2897 29.258 47.9576C29.08 48.3922 28.9557 48.7766 28.7626 49.2048C28.3257 50.1738 27.9836 51.0234 27.4589 51.9479C26.8109 53.0898 26.1611 54.0129 25.4193 55.0961C25.1325 55.515 24.8411 55.8409 24.5225 56.2361C24.3794 56.4135 24.2583 56.5675 24.1006 56.732C23.2626 57.606 22.5272 58.3387 21.6784 59.2022C21.5367 59.3464 21.4122 59.4669 21.2707 59.6112C21.1665 59.7173 21.0884 59.8198 20.9764 59.9176C20.7527 60.1127 20.5473 60.2636 20.3134 60.4464C20.0904 60.6206 19.8914 60.76 19.6709 60.9376C19.4622 61.1057 19.2901 61.2582 19.0875 61.4338C18.9936 61.5153 18.9162 61.5888 18.8238 61.6721C18.716 61.7693 18.624 61.8531 18.5153 61.9494C18.4008 62.0509 18.2979 62.1327 18.1861 62.2372C18.002 62.4093 17.8319 62.5461 17.6702 62.7394C17.4317 63.0243 17.259 63.2937 17.0467 63.5987C16.994 63.6744 16.9659 63.7502 16.9136 63.8262C16.856 63.9099 16.7878 63.9681 16.7334 64.0541C16.587 64.2853 16.4742 64.4913 16.3411 64.7305C16.2739 64.8511 16.2271 64.9602 16.1615 65.0817C16.11 65.1769 16.0586 65.2544 16.0066 65.3494C15.9559 65.4422 15.9202 65.5259 15.8683 65.618C15.8122 65.7175 15.7579 65.7993 15.6981 65.8967C15.5723 66.1012 15.4651 66.2768 15.3379 66.4804C15.2692 66.5905 15.207 66.6827 15.1384 66.7928C15.0283 66.9697 14.931 67.1196 14.8273 67.3003C14.7907 67.364 14.7719 67.4251 14.738 67.4902C14.7342 67.4976 14.7286 67.505 14.7204 67.5059C14.7155 67.5064 14.7098 67.5023 14.7033 67.4938L0.00901963 42.0426C0.00142493 42.0367 -0.00137361 42.0321 0.000624011 42.0289C0.0132678 42.0089 0.0378473 42.002 0.0480974 41.9807C0.0893237 41.8948 0.116297 41.8171 0.145739 41.7265C0.200485 41.558 0.23912 41.4109 0.288455 41.2408C0.345674 41.0434 0.385542 40.8714 0.450178 40.6763C0.480967 40.5833 0.52227 40.5093 0.560619 40.4193C0.624642 40.2689 0.674738 40.1379 0.742669 39.9892C0.833173 39.7912 0.915769 39.6237 1.01315 39.429C1.05618 39.3429 1.09084 39.2674 1.14376 39.1871C1.19335 39.1118 1.25143 39.0587 1.30484 38.9861C1.35936 38.9119 1.39577 38.841 1.45188 38.7681C1.511 38.6912 1.56346 38.6258 1.63347 38.5587C1.76774 38.4299 1.88544 38.3211 2.03425 38.2094C2.19902 38.0857 2.35177 37.9957 2.52726 37.8878C2.6851 37.7908 2.8243 37.714 2.98626 37.624C3.10007 37.5607 3.20088 37.5125 3.31506 37.4499C3.42235 37.3911 3.50294 37.316 3.61894 37.2771C3.99179 37.152 4.32292 37.0824 4.70368 36.9839C5.07646 36.8875 5.39559 36.8025 5.77178 36.7204C5.94618 36.6824 6.09721 36.6485 6.27556 36.641C7.24148 36.6007 8.0704 36.5875 9.03715 36.5842C9.39374 36.583 9.69896 36.6092 10.055 36.6282C10.1799 36.6349 10.2872 36.6401 10.411 36.6577C10.7809 36.7102 11.0984 36.7548 11.4647 36.8284C11.6769 36.871 11.8492 36.9488 12.0619 36.9895C12.4336 37.0607 12.7574 37.0912 13.1317 37.1478C13.3289 37.1776 13.497 37.209 13.6946 37.2363C14.0174 37.281 14.2986 37.2908 14.6184 37.3536C14.8658 37.4022 15.0689 37.4817 15.3106 37.5539C15.7296 37.6791 16.0884 37.7878 16.506 37.9176C16.6427 37.9601 16.7579 38.0029 16.8945 38.0461C17.0276 38.0883 17.1423 38.1224 17.2764 38.1616C17.776 38.3077 18.2069 38.4241 18.7051 38.5755C18.7987 38.6039 18.8771 38.6349 18.9664 38.6749C19.0623 38.718 19.1416 38.7614 19.2334 38.8126C19.338 38.8711 19.4202 38.9343 19.5272 38.9883C19.7812 39.1167 20.0076 39.2087 20.2635 39.3332C20.3962 39.3978 20.5084 39.4566 20.6373 39.5286C20.7827 39.6097 20.9029 39.6869 21.0468 39.7706C21.1898 39.8537 21.3135 39.9227 21.457 40.005C21.61 40.0926 21.7415 40.167 21.8938 40.2558C22.1477 40.404 22.3607 40.5391 22.6176 40.682C22.8067 40.7871 22.9838 40.8499 23.1675 40.9641C23.4825 41.1599 23.747 41.3382 24.0397 41.566C24.1718 41.6688 24.2622 41.7833 24.3769 41.9053C24.499 42.0352 24.598 42.1518 24.716 42.2854C24.8484 42.4354 24.9605 42.5651 25.0922 42.7157C25.3213 42.9778 25.5168 43.2032 25.7467 43.4645C25.9223 43.6641 26.0807 43.8283 26.2508 44.0326C26.5716 44.4178 26.8458 44.749 27.1488 45.1483C27.3015 45.3495 27.5086 45.6449 27.7702 46.0346L42.3651 71.3137C42.7866 71.9935 43.1058 72.5194 43.3226 72.8916C43.3967 73.0187 43.4468 73.1352 43.5049 73.2703C43.561 73.4008 43.6039 73.5151 43.6486 73.6499C43.7154 73.8511 43.7793 74.0225 43.8234 74.2298C43.9299 74.7312 44.0205 75.1627 44.0784 75.672C44.1068 75.9212 44.0718 76.1377 44.0688 76.3885C44.067 76.5438 44.0683 76.677 44.0647 76.8323C44.0594 77.059 44.0521 77.2532 44.0435 77.4798C44.0378 77.6297 44.0355 77.7583 44.0239 77.9079C43.9866 78.3882 43.9537 78.7998 43.9039 79.2789C43.879 79.519 43.8308 79.7217 43.8104 79.9622C43.7931 80.165 43.8039 80.3402 43.7963 80.5436C43.7897 80.7226 43.7855 80.8764 43.7697 81.0549C43.7692 81.0605 43.7626 81.0651 43.75 81.0687L29.0612 55.627C29.0546 55.6214 29.0507 55.6164 29.0495 55.6122C29.0298 55.5428 29.0187 55.4818 29.0002 55.4121C28.9753 55.3181 28.9556 55.237 28.9254 55.1445C28.8937 55.0473 28.861 54.9659 28.8236 54.8707C28.7833 54.7678 28.739 54.6832 28.7035 54.5785C28.6637 54.4614 28.6446 54.3566 28.6089 54.2382C28.5736 54.1209 28.5308 54.0242 28.5007 53.9055C28.4525 53.7154 28.4294 53.5483 28.3853 53.3573C28.3148 53.052 28.2359 52.7945 28.1732 52.4875C28.1124 52.1904 28.0479 51.9355 28.0327 51.6326C27.9621 50.2258 27.9281 49.0181 27.9284 47.6096C27.9286 46.6813 27.9625 45.8849 28.034 44.9594C28.0781 44.3879 28.1662 43.9028 28.2582 43.337C28.2816 43.1935 28.3288 43.0764 28.3631 42.9352C28.4049 42.7632 28.4285 42.6128 28.4757 42.4422C28.5021 42.3468 28.5449 42.2716 28.5729 42.1766C28.5999 42.0848 28.6078 42.0023 28.6322 41.9097C28.6577 41.8136 28.6818 41.7317 28.7152 41.6381C28.7506 41.539 28.7876 41.4565 28.8287 41.3596C28.8934 41.2073 28.9531 41.0787 29.0174 40.9263C29.0625 40.8192 29.0976 40.726 29.1411 40.6183C29.1982 40.4769 29.239 40.3521 29.3047 40.2146C29.3398 40.1413 29.3888 40.0889 29.4283 40.0179C29.487 39.9124 29.5254 39.8157 29.585 39.7107C29.6451 39.6049 29.7062 39.5198 29.77 39.4162C29.8136 39.3453 29.8494 39.2837 29.892 39.2121C29.9314 39.1457 29.965 39.0887 30.0042 39.0222C30.0466 38.9503 30.0809 38.8875 30.1253 38.8169C30.1957 38.7047 30.2527 38.6059 30.3322 38.4999C30.4428 38.3526 30.5411 38.2284 30.6675 38.0944C30.7557 38.001 30.845 37.9348 30.9434 37.8521C31.0435 37.768 31.1312 37.6983 31.2344 37.6181C31.3058 37.5625 31.365 37.5116 31.4421 37.4643C31.5321 37.409 31.6185 37.378 31.7104 37.3257C31.8798 37.2292 32.0181 37.1345 32.1883 37.0393C32.3206 36.9653 32.4368 36.9065 32.5742 36.8425C32.7111 36.7786 32.8313 36.7296 32.9718 36.6739C33.1054 36.6208 33.2155 36.5558 33.3572 36.5317C33.9862 36.4248 34.5282 36.3319 35.1655 36.3011C36.7818 36.2231 38.17 36.2112 39.7882 36.2212C40.3252 36.2246 40.787 36.2593 41.3181 36.3394C42.3563 36.4959 43.2552 36.6116 44.2658 36.8961C45.7914 37.3256 47.0591 37.8257 48.5461 38.3741C48.9236 38.5133 49.2237 38.6891 49.5885 38.8588C50.1016 39.0976 50.5425 39.3 51.0544 39.5413C51.6206 39.8083 52.1067 40.0359 52.669 40.3112C52.858 40.4037 53.0201 40.484 53.2008 40.592C53.3687 40.6924 53.5003 40.7974 53.6633 40.9055C53.8603 41.0362 54.0342 41.1406 54.2294 41.2741C54.3679 41.3688 54.4915 41.4452 54.6165 41.5573C54.8155 41.7359 54.9643 41.9117 55.1521 42.1021C55.2823 42.234 55.3996 42.3415 55.525 42.4779C55.66 42.6247 55.7642 42.7608 55.8958 42.9107C56.0397 43.0746 56.1643 43.2141 56.3121 43.3746C56.545 43.6275 56.751 43.8384 56.9835 44.0917C57.1363 44.2581 57.2578 44.4093 57.4127 44.5738C57.5611 44.7314 57.6966 44.8584 57.8497 45.0114C58.0612 45.2227 58.25 45.3966 58.4546 45.6147C58.6491 45.822 58.8008 46.0133 58.9894 46.226C59.104 46.3552 59.1987 46.4693 59.3207 46.5915C59.718 46.9893 60.0693 47.3195 60.4726 47.7112C60.548 47.7844 60.609 47.8512 60.6885 47.9198C60.8264 48.0388 60.9503 48.1338 61.0931 48.2467C61.1379 48.282 61.1767 48.3118 61.2243 48.3432C61.264 48.3694 61.3007 48.3875 61.3421 48.4109C61.3894 48.4375 61.428 48.4644 61.4777 48.4861C61.4825 48.4882 61.4897 48.486 61.4993 48.4795L76.1993 73.9406L61.4993 48.4795L61.4993 48.4795Z" sodipodi:nodetypes="cccccccccccccccccccccccccccccccccccccccccccccccccccccccccccccccccccccccccccccccccccccccccccccccccccccccccccccccccccccccccccccccccccccccccccccccccccccccccccccccccccccccccccccccccccccccccccccccccccccccccccccccccccccccccccccccccccccccccccccccccccccccccccccccccccccccccccccccccccccccccccccccccccccccccccccccccccccccccccccccccccccccccccccccccccccccccccccccccccccccccccccccccccccccccccccccccccccccccccccccccccccccccccccccccccccccccccccccccccccccccccccccccccccccccccccccccccccccccccccccccccccccccccccccccccccccccccccccccccccccccccccccccccccccccccccccccccccccccccccccccccccccccccccccccccccccccccc"/>
</svg>
