<?xml version="1.0" standalone="no"?>
<!DOCTYPE svg PUBLIC "-//W3C//DTD SVG 20010904//EN" "http://www.w3.org/TR/2001/REC-SVG-20010904/DTD/svg10.dtd">
<!-- Created using Krita: https://krita.org -->
<svg xmlns="http://www.w3.org/2000/svg" 
    xmlns:xlink="http://www.w3.org/1999/xlink"
    xmlns:krita="http://krita.org/namespaces/svg/krita"
    xmlns:sodipodi="http://sodipodi.sourceforge.net/DTD/sodipodi-0.dtd"
    width="144pt"
    height="144pt"
    viewBox="0 0 144 144">
<defs/>
<path id="shape0" transform="translate(1.27732420271992, 5.85252132586206)" fill="#F89FA9" d="M0.536781 116.078C0.536781 116.078 0.536781 116.078 0.536781 116.078C0.579493 116.047 0.615732 116.019 0.658815 115.988C0.731705 115.935 0.793941 115.89 0.868118 115.839C0.931692 115.795 0.983253 115.752 1.05232 115.718C1.16996 115.66 1.2802 115.631 1.39931 115.575C1.47851 115.539 1.54346 115.501 1.61808 115.455C1.7268 115.389 1.81156 115.319 1.92281 115.257C2.03875 115.193 2.1435 115.148 2.26567 115.096C2.34335 115.063 2.41585 115.051 2.4931 115.017C2.5654 114.985 2.62408 114.951 2.69163 114.91C2.79274 114.849 2.87614 114.791 2.97459 114.726C3.03538 114.686 3.09105 114.656 3.14657 114.609C3.19729 114.565 3.23701 114.523 3.27627 114.469C3.32816 114.398 3.36438 114.331 3.40557 114.253C3.42861 114.21 3.43718 114.167 3.4593 114.123C3.52068 114.001 3.58134 113.9 3.64391 113.779C3.67717 113.714 3.69906 113.655 3.73303 113.591C3.76666 113.528 3.80681 113.479 3.83685 113.414C3.87162 113.338 3.88424 113.266 3.91743 113.19C3.96996 113.069 4.02805 112.971 4.08145 112.851C4.11425 112.777 4.13282 112.709 4.16351 112.634C4.19158 112.566 4.21772 112.508 4.24929 112.441C4.28374 112.368 4.31345 112.305 4.3521 112.234C4.43467 112.083 4.50591 111.953 4.59553 111.805C4.66036 111.699 4.71452 111.605 4.79313 111.508C4.88321 111.397 4.97736 111.317 5.07566 111.213C5.1844 111.098 5.27267 110.994 5.38469 110.883C5.4515 110.816 5.51336 110.763 5.58612 110.703C5.84543 110.489 6.07225 110.31 6.33329 110.098C6.57921 109.898 6.79411 109.731 7.03455 109.524C7.27804 109.315 7.47213 109.119 7.71553 108.91C7.80242 108.835 7.88557 108.782 7.97747 108.713C8.06905 108.645 8.14569 108.584 8.23976 108.519C8.41863 108.396 8.57514 108.295 8.75706 108.177C8.89261 108.088 9.01233 108.018 9.14678 107.928C9.5011 107.691 9.79753 107.476 10.1534 107.242C10.2887 107.152 10.4083 107.081 10.5499 107.002C10.706 106.914 10.8489 106.856 11.0034 106.766C11.2341 106.632 11.4246 106.504 11.6496 106.36C11.7827 106.275 11.89 106.192 12.0263 106.112C12.3259 105.937 12.5915 105.803 12.8943 105.633C13.1182 105.508 13.3112 105.403 13.5312 105.271C13.659 105.194 13.7623 105.118 13.8878 105.038C14.0545 104.931 14.1966 104.838 14.3659 104.736C14.4768 104.668 14.5851 104.632 14.688 104.553C14.9946 104.317 15.2626 104.118 15.5322 103.841C15.7065 103.662 15.8061 103.467 15.9469 103.261C16.0471 103.114 16.1233 102.982 16.2206 102.833C16.3368 102.656 16.457 102.516 16.5571 102.329C16.8534 101.774 17.1216 101.303 17.3513 100.717C17.9217 99.2642 18.3258 97.9869 18.8399 96.5129C18.9688 96.1433 19.0647 95.8215 19.1884 95.45C19.3897 94.8456 19.5567 94.3256 19.7685 93.7248C20.1173 92.7351 20.4784 91.9081 20.7901 90.9062C21.1 89.9102 21.3656 89.0506 21.5426 88.0227C21.7448 86.8486 21.8097 85.8245 21.8699 84.6347C21.8943 84.1532 21.8246 83.7403 21.7836 83.26C21.7625 83.0124 21.7334 82.801 21.6926 82.5559C21.6519 82.3118 21.6053 82.1045 21.5508 81.8631C21.4912 81.5991 21.4499 81.3695 21.3667 81.112C21.0775 80.217 20.8418 79.4439 20.4874 78.5727C20.0676 77.541 19.6239 76.693 19.1573 75.6816C18.9069 75.1387 18.6817 74.6781 18.439 74.1318C18.0591 73.2769 17.795 72.5161 17.3787 71.6784C16.3469 69.6026 15.4495 67.8276 14.3039 65.8124C13.7157 64.7776 12.8109 63.3381 11.5893 61.4937L26.0967 86.6212C25.7489 86.1919 25.4799 85.8629 25.2899 85.634C24.9381 85.2102 24.6289 84.8534 24.277 84.4296C24.0979 84.214 23.9494 84.0252 23.7729 83.8074C23.5132 83.4869 23.269 83.2286 23.0308 82.8918C22.5343 82.1899 21.8463 81.1726 20.9666 79.8398L6.45371 54.7027C6.1703 54.2076 5.95345 53.8262 5.80317 53.5583C5.56057 53.1258 5.35473 52.7539 5.11651 52.319C4.88221 51.8912 4.67993 51.5253 4.45313 51.0935C4.22299 50.6553 4.01127 50.2862 3.81109 49.8336C3.11218 48.2532 2.54064 46.8864 1.88542 45.2874C1.75444 44.9677 1.67506 44.6813 1.56558 44.3537C1.46074 44.0399 1.35681 43.7749 1.2731 43.4549C0.994422 42.3893 0.689014 41.4868 0.530733 40.3969C0.262726 38.5513 0.202368 36.9488 0.0583062 35.0895C0.0196165 34.5901 -0.0173136 34.1595 0.00871333 33.6594C0.0722495 32.4383 0.181806 31.3949 0.313808 30.1794C0.361839 29.7371 0.439794 29.3627 0.522789 28.9256C0.602292 28.5069 0.68284 28.1504 0.777965 27.735C0.876231 27.3059 0.969029 26.9401 1.07528 26.5129C1.18697 26.0638 1.2343 25.6632 1.40064 25.2314C1.92859 23.8608 2.53096 22.7469 3.05455 21.3747C3.72675 19.6129 4.18586 18.0605 4.815 16.2829C5.01696 15.7123 5.2078 15.2296 5.42895 14.6661C5.66487 14.065 5.87891 13.5544 6.12082 12.9557C6.37294 12.3317 6.60245 11.8021 6.84048 11.1726C7.32117 9.90133 7.70193 8.8001 8.17405 7.52566C8.94797 5.43656 9.5874 3.63662 10.4006 1.56249C10.5705 1.12916 10.7377 0.762787 10.9811 0.366041C11.0728 0.216565 11.1843 0.0912516 11.3455 0.0221557C11.4591 -0.0265765 11.5818 0.0138491 11.6969 0.0591739C11.8402 0.115626 11.9629 0.186827 12.0623 0.304497C12.4806 0.799672 12.8265 1.24001 13.1627 1.79423C13.3848 2.16047 13.6529 2.71055 13.967 3.44446L28.5326 28.673C28.658 29.0384 28.7518 29.3204 28.8141 29.5189C28.9048 29.8077 28.9929 30.0531 29.0587 30.3486C29.1842 30.9119 29.3063 31.3951 29.3601 31.9697C29.487 33.325 29.522 34.4928 29.574 35.853C29.5853 36.1476 29.5572 36.4003 29.5409 36.6946C29.5252 36.9771 29.5066 37.2188 29.4828 37.5007C29.4418 37.9867 29.413 38.4041 29.3556 38.8885C29.2873 39.4642 29.1754 39.9512 29.1236 40.5287C29.0007 41.9002 28.9267 43.0787 28.8569 44.4539C28.8397 44.7928 28.8655 45.0841 28.8752 45.4233C28.8844 45.747 28.8794 46.0255 28.9108 46.3478C28.943 46.6793 28.9745 46.9654 29.0565 47.2882C29.4117 48.6855 29.7858 49.8647 30.1586 51.2574C30.2796 51.7096 30.3342 52.1099 30.4671 52.5586C31.0488 54.5225 31.3788 56.2718 32.1997 58.1482C32.7901 59.4977 33.8284 61.3279 35.3147 63.6389L20.898 38.6683C21.2515 39.2329 21.5375 39.6572 21.7558 39.9411C22.3968 40.7745 22.9429 41.4959 23.6624 42.2627C23.9156 42.5325 24.1912 42.7099 24.5176 42.8843C24.8041 43.0374 25.0733 43.14 25.3946 43.1881C25.7717 43.2445 26.1108 43.2575 26.4838 43.1787C27.1462 43.0388 27.7271 42.8969 28.32 42.5701C29.5782 41.8766 30.6067 41.181 31.731 40.2866C33.7528 38.6782 35.3211 37.103 37.292 35.4326C38.9346 34.0404 40.4678 32.9938 42.0539 31.5377C43.7759 29.9568 45.1068 28.451 46.7294 26.7684C47.0515 26.4343 47.3258 26.1441 47.6093 25.7767C48.347 24.8211 48.9449 23.9757 49.6444 22.9918C49.8571 22.6925 50.0253 22.4258 50.2152 22.1114C50.4107 21.7877 50.5671 21.5034 50.7448 21.1696C50.9117 20.8561 51.0554 20.5871 51.1996 20.2626C51.4086 19.7922 51.5739 19.3827 51.7532 18.9003C51.8799 18.5591 51.9666 18.259 52.0732 17.911C52.2946 17.1884 52.4836 16.5687 52.6904 15.8417C52.8976 15.1131 53.0689 14.4866 53.2562 13.7526C53.3484 13.3913 53.4091 13.0772 53.4887 12.7128C53.5672 12.3537 53.6268 12.0443 53.7079 11.6857C53.8148 11.2133 53.9133 10.8099 54.0258 10.3387C54.0966 10.0426 54.1645 9.79048 54.2316 9.49351C54.2948 9.21384 54.3485 8.97379 54.3981 8.69139C54.4488 8.40261 54.4822 8.15331 54.5181 7.86232C54.5525 7.58367 54.5735 7.34382 54.599 7.06422C54.6244 6.78727 54.6349 6.54889 54.6635 6.27226C54.6924 5.99257 54.7398 5.7553 54.7634 5.47511C54.8484 4.46653 54.9151 3.60135 54.9738 2.5909C54.9978 2.17808 54.977 1.8226 54.9996 1.4097C55.0073 1.26864 55.0179 1.14539 55.0604 1.01067C55.0799 0.948852 55.1204 0.902092 55.1721 0.862938C55.2343 0.815738 55.2977 0.76936 55.3758 0.771603C55.6704 0.780065 55.9331 0.789568 56.2093 0.892724C58.0696 1.5877 59.6272 2.27872 61.4596 3.04433C62.4301 3.44981 63.2357 3.8606 64.2172 4.23854C66.2789 5.03239 68.08 5.62177 70.151 6.39096C71.1652 6.76767 72.0559 7.04491 73.0317 7.51235C73.4135 7.69527 73.6918 7.9467 74.0014 8.23552C74.136 8.36102 74.2953 8.57009 74.4793 8.86273L89.0579 34.1138C89.3018 34.6303 89.459 35.037 89.5295 35.334C89.6501 35.8417 89.7036 36.2934 89.6995 36.8152C89.6963 37.2193 89.6282 37.5679 89.5088 37.954C89.0427 39.4609 88.758 40.8118 88.0303 42.2112C86.7245 44.7226 85.3428 46.734 83.7331 49.0623C82.3379 51.0801 80.8773 52.6155 79.455 54.6143C78.1444 56.456 77.1423 58.1181 75.931 60.0266C75.6336 60.4952 75.4138 60.9183 75.1456 61.4042C74.8801 61.8852 74.6252 62.285 74.4064 62.7889C73.7312 64.3437 73.1436 65.6765 72.594 67.28C72.3352 68.0351 72.2491 68.7223 72.1039 69.5071C72.0722 69.6788 72.059 69.8339 72.0897 70.0058C72.1109 70.1252 72.1741 70.2866 72.2791 70.4899L57.6625 45.1733C57.9107 45.4587 58.1224 45.6486 58.2977 45.743C59.2023 46.2303 59.9815 46.6799 60.9714 46.9555C62.8051 47.466 64.4162 47.821 66.3134 47.9744C69.8924 48.2638 72.9843 48.4149 76.5695 48.2167C78.768 48.0952 80.6246 47.625 82.7543 47.0658C83.7402 46.8069 84.5611 46.4416 85.42 45.8926C86.4945 45.2058 87.3104 44.4561 88.2259 43.5684C89.4338 42.3974 90.3294 41.2582 91.4729 40.0243C91.9229 39.5386 92.3107 39.1239 92.7786 38.6554C93.2434 38.1898 93.6579 37.807 94.137 37.3562C94.5713 36.9476 94.9516 36.606 95.3884 36.2001C96.1947 35.4507 96.877 34.799 97.6886 34.0555C98.0791 33.6977 98.4025 33.3762 98.8226 33.0538C100.155 32.0315 101.365 31.2462 102.691 30.2163C103.326 29.7232 103.824 29.2438 104.421 28.7058C104.668 28.4828 104.875 28.2851 105.104 28.0426C105.917 27.1785 106.633 26.4533 107.397 25.5448C107.838 25.0205 108.094 24.4757 108.54 23.9559C109.303 23.0663 109.981 22.318 110.846 21.5266C111.68 20.7628 112.503 20.2352 113.383 19.5239C113.974 19.0461 114.48 18.6358 115.047 18.1296C115.821 17.4389 116.426 16.7833 117.212 16.1057C118.472 15.0176 119.586 14.1226 120.89 13.0875C121.415 12.6707 121.908 12.369 122.438 11.9589C123.813 10.8959 124.951 9.93219 126.333 8.8792C126.463 8.7807 126.594 8.7204 126.75 8.6747C126.791 8.6629 126.84 8.68793 126.859 8.72515C126.886 8.7762 126.901 8.85714 126.904 8.96799L141.537 34.3134C141.063 35.5089 140.638 36.3944 140.262 36.9699C138.655 39.4288 137.12 41.431 135.351 43.7766C133.847 45.7717 132.436 47.3873 130.913 49.3686C128.75 52.1838 127.022 54.6929 124.823 57.4797C122.449 60.4864 120.417 63.0719 117.852 65.9171C116.474 67.4464 115.106 68.5784 113.576 69.9564C113.081 70.4024 112.603 70.7211 112.072 71.124C111.524 71.5404 111.046 71.8872 110.492 72.2974C109.94 72.7074 109.462 73.0535 108.912 73.4676C108.346 73.8933 107.858 74.2535 107.306 74.6967C106.139 75.6343 105.127 76.425 104.001 77.4122C101.912 79.2451 100.083 80.7817 98.1227 82.7519C97.664 83.2129 97.3959 83.7285 97.1268 84.3205C96.8038 85.031 96.6223 85.6836 96.4448 86.4437C96.3068 87.0345 96.2371 87.5571 96.2291 88.1637C96.2254 88.445 96.2768 88.6995 96.4117 88.9463C96.5802 89.2545 96.8812 89.6558 97.315 90.1502L82.7901 64.9925C84.5777 66.3863 85.9575 67.4523 86.9295 68.1904C87.1858 68.3851 87.4397 68.5057 87.6873 68.7114C88.2466 69.1761 88.6995 69.6057 89.2308 70.1022C89.7547 70.5919 90.2179 70.9993 90.7018 71.5286C91.2573 72.136 91.6939 72.6924 92.1956 73.3448C92.4352 73.6562 92.5687 73.9752 92.8175 74.2792C93.8975 75.5989 94.9376 76.6353 95.9879 77.9787C97.3399 79.708 98.3752 81.2832 99.6758 83.0515C100.322 83.9294 100.901 84.6627 101.549 85.539C102.959 87.4461 104.182 89.0708 105.556 91.0038C105.84 91.4028 106.218 91.9914 106.69 92.7694L121.329 118.126C121.475 118.426 121.58 118.659 121.645 118.826C121.675 118.902 121.683 118.972 121.691 119.053C121.696 119.112 121.721 119.176 121.683 119.222C121.629 119.286 121.546 119.299 121.466 119.322C121.325 119.364 121.199 119.378 121.054 119.406C120.83 119.448 120.636 119.478 120.412 119.521C119.96 119.606 119.578 119.709 119.123 119.771C117.662 119.971 116.408 120.133 114.94 120.27C114.103 120.348 113.379 120.444 112.539 120.385C111.225 120.292 110.097 120.135 108.813 119.839C106.626 119.334 104.74 118.892 102.641 118.098C101.333 117.604 100.279 116.987 99.1353 116.182C97.5542 115.07 96.2313 114.04 94.8916 112.646C92.9118 110.586 91.4986 108.567 89.6902 106.355C89.3462 105.934 89.0731 105.556 88.7425 105.124C88.2984 104.545 87.9479 104.024 87.4769 103.466C86.6262 102.458 85.9166 101.57 84.9689 100.653C84.1524 99.8626 83.4142 99.2068 82.4522 98.6021C81.7764 98.1773 81.1193 97.9138 80.3396 97.7428C78.9639 97.4412 77.7504 97.3433 76.3443 97.2628C75.7832 97.2307 75.2944 97.2976 74.7464 97.4225C73.583 97.6877 72.571 97.9076 71.4723 98.3734C70.2138 98.907 69.1705 99.4736 68.0527 100.261C67.2044 100.858 66.5972 101.53 65.899 102.297C65.432 102.81 65.1047 103.315 64.7377 103.903C64.1831 104.793 63.6977 105.557 63.2702 106.515C62.3768 108.515 61.6992 110.27 60.9712 112.336C60.8512 112.677 60.8276 113.002 60.8576 113.362C60.8891 113.74 60.9938 114.058 61.1438 114.407C61.2588 114.674 61.4679 115.032 61.7712 115.483L47.193 90.2329C47.6559 90.8354 48.0477 91.2597 48.3683 91.506C50.0785 92.8196 51.6242 93.84 53.4279 95.022C54.3357 95.6168 55.1503 96.0715 56.1098 96.5787C56.8725 96.9817 57.5618 97.2556 58.3437 97.6199C58.6417 97.7588 58.8967 97.8787 59.1953 98.0163C59.644 98.223 60.0309 98.395 60.4787 98.6035C60.7833 98.7454 61.0419 98.8724 61.3452 99.0172C61.6412 99.1585 61.8935 99.2827 62.191 99.4208C62.4772 99.5537 62.7263 99.6592 63.0129 99.7914C63.3913 99.9659 63.7146 100.118 64.0909 100.297C64.3303 100.411 64.5314 100.518 64.7719 100.629C65.0489 100.758 65.2912 100.857 65.5693 100.983C65.9352 101.149 66.2388 101.314 66.612 101.462C67.8492 101.955 68.9241 102.34 70.1685 102.814C70.7292 103.027 71.2081 103.215 71.7693 103.427C72.0033 103.515 72.2051 103.588 72.4407 103.673C72.6926 103.763 72.9087 103.84 73.1621 103.926C73.4213 104.014 73.6445 104.087 73.9052 104.17C74.4134 104.334 74.8521 104.464 75.3589 104.632C75.4859 104.674 75.595 104.711 75.7156 104.769C75.8144 104.817 75.8883 104.877 75.9834 104.932C76.0698 104.982 76.1481 105.017 76.2341 105.067C76.4031 105.167 76.5467 105.254 76.7117 105.36C76.8281 105.435 76.9284 105.498 77.038 105.583C77.1974 105.705 77.3216 105.826 77.4794 105.951C77.7287 106.148 77.9605 106.294 78.2008 106.502C78.484 106.747 78.7148 106.971 78.9728 107.243C79.1418 107.42 79.2614 107.595 79.419 107.783C79.5791 107.974 79.7176 108.137 79.8803 108.326C80.0225 108.491 80.1526 108.625 80.2901 108.794C80.4629 109.006 80.6048 109.193 80.7665 109.414C80.8804 109.57 81.0383 109.796 81.2401 110.092L95.8827 135.454C96.0245 135.729 96.1289 135.943 96.1958 136.095C96.2283 136.169 96.2435 136.238 96.2614 136.316C96.2756 136.379 96.2929 136.434 96.2871 136.497C96.2787 136.59 96.272 136.676 96.2216 136.755C96.1534 136.86 96.0527 136.916 95.9612 137.002C95.8657 137.093 95.7904 137.177 95.6875 137.259C95.6213 137.311 95.5571 137.347 95.4807 137.382C95.3747 137.432 95.2835 137.482 95.1681 137.502C94.8087 137.566 94.497 137.63 94.1322 137.621C93.0778 137.595 92.1769 137.5 91.1269 137.401C90.6924 137.36 90.3252 137.283 89.893 137.222C89.47 137.163 89.1061 137.121 88.6835 137.059C88.1586 136.982 87.7128 136.887 87.186 136.824C86.1065 136.695 85.1789 136.603 84.0957 136.511C83.6864 136.476 83.3328 136.49 82.923 136.46C82.6571 136.441 82.4314 136.4 82.1663 136.372C81.9117 136.345 81.6922 136.333 81.4382 136.301C81.1917 136.27 80.9787 136.249 80.7366 136.193C80.4835 136.135 80.2727 136.06 80.027 135.976C79.6013 135.83 79.2432 135.686 78.819 135.535C78.4683 135.411 78.163 135.318 77.813 135.192C76.2761 134.636 74.9588 134.16 73.4282 133.588C73.0927 133.463 72.8207 133.315 72.4821 133.198C68.4945 131.825 65.0567 130.706 61.0695 129.332C60.2916 129.064 59.6414 128.788 58.8686 128.506C58.0634 128.211 57.3709 127.965 56.5612 127.682C55.246 127.224 54.1114 126.852 52.7976 126.389C52.0164 126.114 51.3571 125.849 50.5757 125.575C50.0965 125.406 49.6834 125.268 49.1964 125.123C47.819 124.714 46.6273 124.402 45.2497 123.994C44.6497 123.817 44.1458 123.63 43.5465 123.45C42.6993 123.196 41.9598 123.023 41.1174 122.753C40.1411 122.441 39.3044 122.167 38.3521 121.788C38.1859 121.721 38.0793 121.598 37.9391 121.487C37.7831 121.363 37.644 121.261 37.5063 121.118C37.2983 120.901 37.1025 120.721 36.9548 120.459C36.7917 120.17 36.6057 119.733 36.3967 119.15L21.8079 93.8812C21.6863 93.1961 21.6185 92.6669 21.6045 92.2937C21.5859 91.7936 21.61 91.36 21.6952 90.8669C21.7383 90.6174 21.823 90.4047 21.9668 90.1962C22.2129 89.8397 22.4681 89.561 22.7937 89.2753C23.3852 88.7563 23.8916 88.2925 24.577 87.906C25.0562 87.6358 25.5281 87.4963 26.0736 87.4256C28.1457 87.1572 29.9345 86.9731 32.0237 86.9415C34.0316 86.9111 35.7511 87.0918 37.7531 87.2488C38.5089 87.308 39.1466 87.4493 39.8968 87.5587C40.6459 87.6679 41.2858 87.7781 42.0368 87.8732C43.2805 88.0307 44.3505 88.1328 45.5955 88.2801C46.0784 88.3373 46.4944 88.3739 46.9734 88.4574C48.3598 88.6993 49.5401 88.9506 50.9233 89.2095C51.174 89.2564 51.391 89.2846 51.6416 89.3313C52.4259 89.4773 53.0935 89.6276 53.8802 89.7602C54.1731 89.8096 54.4273 89.8385 54.7241 89.8507C55.5941 89.8868 56.3407 89.8912 57.2114 89.8981C57.4433 89.9 57.6438 89.9066 57.8737 89.8759C58.2167 89.83 58.5053 89.7567 58.8427 89.6798C59.0155 89.6404 59.1613 89.5971 59.3303 89.5439C59.5513 89.4745 59.7519 89.4382 59.9565 89.3296C60.2902 89.1524 60.5518 88.957 60.8564 88.7335C61.8129 88.0318 62.6223 87.4159 63.5582 86.6871C63.8888 86.4296 64.1271 86.1509 64.4743 85.9163C65.0669 85.5159 65.6152 85.2364 66.2345 84.8787C66.4982 84.7264 66.7339 84.613 66.9968 84.4594C67.2449 84.3146 67.4547 84.1855 67.694 84.0266C68.0581 83.7848 68.3595 83.562 68.7202 83.3151C68.9762 83.1399 69.1967 82.9911 69.4559 82.8207C69.7147 82.6505 69.9409 82.5113 70.2002 82.3419C70.4545 82.1758 70.6777 82.0409 70.9233 81.8622C71.5829 81.3824 72.1036 80.9088 72.7854 80.4612C74.0661 79.6204 75.2259 78.9982 76.5245 78.1852C76.7972 78.0144 77.0147 77.8433 77.2731 77.6515C77.9496 77.1493 78.5204 76.7069 79.1952 76.2025C79.412 76.0404 79.6033 75.9089 79.8204 75.7473C80.0096 75.6064 80.1682 75.4811 80.3558 75.3382C80.5148 75.2172 80.654 75.1174 80.8107 74.9935C80.9422 74.8894 81.0503 74.7945 81.179 74.6871C81.3066 74.5808 81.4185 74.4926 81.543 74.3827C81.6774 74.264 81.8138 74.1798 81.9184 74.0342C82.1974 73.646 82.4812 73.323 82.6309 72.869C83.2072 71.1208 83.6125 69.5892 83.9785 67.7852C84.1413 66.9828 84.168 66.2694 84.1357 65.4513C84.1029 64.6179 83.9686 63.9084 83.7935 63.093C83.5467 61.9432 83.3671 60.938 82.932 59.8455C82.6692 59.1856 82.1728 58.3006 81.4429 57.1905L95.9228 82.2705C95.2108 81.2451 94.6182 80.4963 94.1449 80.0243C93.6814 79.5619 93.2009 79.2339 92.6055 78.9616C91.5212 78.4659 90.5576 78.0701 89.3861 77.8487C86.802 77.3604 84.5435 77.2079 81.927 76.9437C80.506 76.8003 79.2827 76.7038 77.8547 76.6843C74.1843 76.6343 71.0307 76.5178 67.367 76.745C65.5998 76.8546 64.0978 77.1814 62.3886 77.6434C61.4755 77.8901 60.7627 78.3149 59.926 78.756C59.5243 78.9677 59.2281 79.23 58.8639 79.5013C58.5016 79.7711 58.2052 80.021 57.8509 80.3014C57.5016 80.5779 57.2137 80.8302 56.8535 81.0926C55.439 82.1231 54.2505 83.0434 52.7814 83.9946C52.1354 84.413 51.5132 84.6544 50.824 84.9969C50.4033 85.206 50.0437 85.3885 49.6107 85.5704C48.5892 85.9994 47.7247 86.403 46.6699 86.7417C46.1505 86.9085 45.6795 86.9906 45.1343 87.0076C44.7871 87.0185 44.4807 86.9529 44.1597 86.82C43.409 86.5093 42.7962 86.1685 42.099 85.7514C41.4909 85.3877 41.0275 84.9873 40.4382 84.5939C39.7575 84.1395 39.1582 83.7744 38.4711 83.3297C38.0188 83.037 37.6003 82.8277 37.1828 82.4871C36.2793 81.7501 35.5086 81.105 34.7066 80.2586C33.8866 79.3933 33.2359 78.5958 32.563 77.6118C32.152 77.0106 31.6429 76.1032 31.0357 74.8898L16.4619 49.6472C16.3083 49.3427 16.1941 49.1066 16.1195 48.9389C16.0115 48.6963 15.9219 48.4865 15.8339 48.2359C15.7426 47.9759 15.6878 47.7455 15.6078 47.4819C15.512 47.1664 15.4402 46.8925 15.3315 46.5812C15.1277 45.9972 14.9267 45.5061 14.7154 44.9247C14.5756 44.5403 14.4491 44.2128 14.3283 43.822C14.2154 43.4567 14.1304 43.1396 14.0481 42.7662C13.8557 41.8926 13.6847 41.144 13.5438 40.2606C13.2348 38.3223 12.8853 36.6663 12.7634 34.7074C12.677 33.319 12.8173 32.122 12.9513 30.7375C13.0002 30.2323 13.146 29.8144 13.2843 29.326C13.3603 29.0578 13.4492 28.8343 13.5625 28.5795C13.7316 28.1991 13.8594 27.86 14.0903 27.5135C14.2275 27.3076 14.4098 27.182 14.5995 27.0232C14.7286 26.9151 14.8526 26.8388 14.9978 26.7536C15.2729 26.5922 15.5124 26.4593 15.7991 26.3196C15.8921 26.2743 15.9803 26.2559 16.0795 26.2265C16.2031 26.19 16.3065 26.1305 16.4354 26.1314C16.6025 26.1324 16.7452 26.1743 16.902 26.2318C17.1344 26.3169 17.3293 26.4066 17.5401 26.5362C17.6498 26.6037 17.738 26.6804 17.8081 26.7886C17.9192 26.9603 18.0526 27.2203 18.2082 27.5685L32.8087 52.8573C33.1277 54.0627 33.3198 54.998 33.385 55.6632C33.538 57.2238 33.5307 58.5733 33.5227 60.1414C33.5195 60.7862 33.4158 61.3342 33.3531 61.9759C33.2945 62.5764 33.2426 63.091 33.1762 63.6907C33.0867 64.499 33.0052 65.1913 32.9076 65.9987C32.8207 66.7174 32.7613 67.3357 32.649 68.0508C32.4766 69.1485 32.215 70.072 32.0946 71.1766C31.8099 73.7864 31.7146 76.0374 31.4925 78.6533C31.2992 80.9298 31.051 82.8746 30.9076 85.1549C30.7132 88.2485 30.6444 90.9055 30.5278 94.003C30.5036 94.6458 30.5381 95.1984 30.5053 95.8409C30.4992 95.9602 30.446 96.0548 30.417 96.1707C30.3861 96.2943 30.3475 96.3984 30.3341 96.5251C30.3285 96.5787 30.3519 96.6235 30.3636 96.6761C30.3756 96.7303 30.3908 96.7757 30.4017 96.8301C30.4132 96.8878 30.4062 96.9415 30.4278 96.9962C30.4567 97.0699 30.5086 97.1194 30.5433 97.1905C30.5858 97.2777 30.6115 97.3572 30.6477 97.4472C30.6603 97.4783 30.678 97.5229 30.7008 97.5809C24.341 86.5658 19.449 78.0925 16.0247 72.1611C16.0055 72.1278 16.0331 72.1753 16.1077 72.3034L30.7813 97.7189C30.8045 97.7926 30.8252 97.848 30.8435 97.8852C30.8638 97.9264 30.898 97.9825 30.946 98.0534L16.2743 72.6411C16.3224 72.7427 16.3629 72.8188 16.3956 72.8695C16.428 72.9195 16.468 72.9531 16.5056 72.9993C16.5393 73.0409 16.5671 73.0774 16.5993 73.1201C16.6329 73.1646 16.6541 73.2092 16.6938 73.2484C16.7354 73.2894 16.7798 73.3149 16.829 73.3465C16.8453 73.3569 16.8702 73.3691 16.9036 73.383L31.5784 98.8003C31.5445 98.7851 31.5191 98.7721 31.5023 98.7614C31.454 98.7305 31.4098 98.7065 31.3688 98.6664C31.3292 98.6275 31.3082 98.583 31.2748 98.5387C31.2425 98.496 31.2147 98.4594 31.1809 98.4177C31.1428 98.3707 31.1024 98.3364 31.0696 98.2856C31.0364 98.234 30.9952 98.1566 30.946 98.0534L16.2743 72.6411C16.2267 72.5709 16.1928 72.5155 16.1727 72.4747C16.1538 72.4363 16.1321 72.3792 16.1077 72.3034L30.7813 97.7189C30.7463 97.6592 30.7195 97.6132 30.7008 97.5809C27.2763 91.6497 22.3842 83.1764 16.0247 72.1611C15.9986 72.0981 15.9786 72.0495 15.9648 72.0155C15.9289 71.9273 15.9044 71.8489 15.8628 71.7632C15.83 71.6955 15.7802 71.6485 15.7528 71.5785C15.7306 71.5217 15.7354 71.4666 15.7235 71.4068C15.7132 71.3549 15.7005 71.3113 15.6893 71.2595C15.6777 71.206 15.6522 71.1606 15.6585 71.1062C15.673 70.9828 15.7152 70.8824 15.7475 70.7623C15.7782 70.6482 15.8287 70.5549 15.8384 70.4371C15.8885 69.8297 15.8767 69.3057 15.9177 68.6976C16.1174 65.7383 16.2913 63.2019 16.5261 60.2452C16.7071 57.9646 16.9356 56.0158 17.1056 53.7343C17.3059 51.0448 17.3256 48.7281 17.584 46.0436C17.6901 44.9414 17.965 44.0226 18.1455 42.9301C18.2612 42.2299 18.3344 41.6258 18.4299 40.9226C18.5374 40.1318 18.6264 39.4535 18.7256 38.6615C18.7991 38.0745 18.8605 37.571 18.9233 36.9827C18.9913 36.3453 19.0999 35.8007 19.0995 35.1597C19.0987 33.5656 19.1057 32.1919 18.9198 30.6086C18.8348 29.8851 18.5976 28.8717 18.2082 27.5685L32.8087 52.8573C32.6703 52.5391 32.5502 52.3022 32.4485 52.1466C32.3812 52.0436 32.2945 51.9729 32.1892 51.9093C31.9774 51.7814 31.7849 51.6859 31.5511 51.6047C31.3999 51.5522 31.2599 51.529 31.0998 51.5309C30.9696 51.5325 30.8631 51.5812 30.7372 51.6145C30.6368 51.6411 30.5489 51.6607 30.4537 51.702C30.1602 51.8292 29.9102 51.9433 29.6287 52.0951C29.4806 52.175 29.3595 52.256 29.2292 52.3625C29.0383 52.5184 28.859 52.6432 28.714 52.8425C28.477 53.1683 28.3323 53.4867 28.15 53.846C28.0286 54.0852 27.9293 54.2947 27.8475 54.5502C27.6969 55.0208 27.5453 55.4246 27.4877 55.9153C27.3301 57.2591 27.1589 58.4219 27.2349 59.7728C27.3451 61.7336 27.697 63.3915 28.0172 65.3291C28.1699 66.2535 28.3745 67.0322 28.5852 67.9451C28.671 68.3168 28.7526 68.6339 28.8641 68.9986C28.9804 69.3796 29.099 69.7002 29.2355 70.0744C29.4532 70.6712 29.6623 71.1744 29.8758 71.7727C29.9932 72.1017 30.0755 72.3898 30.1807 72.7228C30.2668 72.9958 30.3268 73.2342 30.4224 73.504C30.5106 73.7525 30.5986 73.9611 30.7053 74.2023C30.7773 74.365 30.8875 74.5942 31.0357 74.8898L16.4619 49.6472C17.071 50.8622 17.5811 51.7711 17.9919 52.3739C18.6872 53.394 19.3534 54.2254 20.1968 55.1269C21.0086 55.9946 21.7913 56.6552 22.7064 57.4132C23.1305 57.7646 23.5509 57.9905 24.0138 58.2889C24.6878 58.7234 25.2794 59.0737 25.9542 59.5069C26.5193 59.8696 26.9715 60.2325 27.5562 60.5626C28.239 60.948 28.8361 61.2673 29.5685 61.5473C29.8835 61.6677 30.1835 61.7082 30.5205 61.6959C31.0693 61.6757 31.5411 61.5998 32.0709 61.4555C33.1508 61.1613 34.0528 60.827 35.1055 60.4467C35.5488 60.2866 35.9166 60.1164 36.3416 59.9127C37.0357 59.5799 37.6575 59.3363 38.3014 58.9144C39.7666 57.9546 40.9476 57.022 42.352 55.9753C42.7105 55.7082 42.9857 55.4387 43.3366 55.1618C43.6902 54.8829 44.0016 54.6544 44.3646 54.3877C44.7309 54.1185 45.0152 53.8376 45.4201 53.6309C46.2646 53.1996 46.9938 52.7994 47.915 52.5744C49.6506 52.1505 51.1737 51.8602 52.9589 51.7895C56.6727 51.6424 59.8608 51.8748 63.5766 51.954C64.98 51.984 66.1852 51.9894 67.5843 52.1015C70.1723 52.309 72.4016 52.4409 74.9628 52.8667C76.1006 53.0558 77.0453 53.4025 78.1079 53.8512C78.6805 54.0929 79.1554 54.3826 79.5946 54.8224C80.0899 55.3183 80.706 56.1077 81.4429 57.1905L95.9228 82.2705C96.6528 83.3825 97.1499 84.2687 97.414 84.9291C97.8584 86.0402 98.0506 87.0607 98.3062 88.2297C98.4852 89.0478 98.6172 89.7604 98.6536 90.5971C98.6896 91.4241 98.6685 92.1452 98.5121 92.9581C98.1602 94.7863 97.7568 96.3362 97.2066 98.1148C97.0611 98.5851 96.8031 98.9377 96.5347 99.3503C96.4362 99.5017 96.2992 99.5893 96.1671 99.7125C96.0452 99.8263 95.9381 99.9213 95.809 100.027C95.6802 100.133 95.5665 100.22 95.4308 100.316C95.2689 100.431 95.1231 100.52 94.9591 100.632C94.7653 100.764 94.6008 100.88 94.4083 101.014C94.1866 101.169 93.9937 101.297 93.7755 101.456C93.0959 101.953 92.5275 102.398 91.8431 102.887C91.5823 103.074 91.3469 103.217 91.0758 103.389C89.7807 104.209 88.6435 104.869 87.3684 105.72C86.6903 106.172 86.1619 106.634 85.4991 107.108C85.2522 107.285 85.0261 107.415 84.7705 107.578C84.5097 107.745 84.2818 107.882 84.0234 108.052C83.7643 108.223 83.5458 108.375 83.2921 108.554C82.9344 108.807 82.6404 109.041 82.2767 109.285C82.0381 109.444 81.8233 109.566 81.5726 109.705C81.3066 109.854 81.0617 109.951 80.8009 110.108C80.1883 110.479 79.6627 110.798 79.0791 111.213C78.7375 111.455 78.4936 111.726 78.1629 111.983C77.2267 112.711 76.4067 113.313 75.4602 114.028C75.157 114.257 74.9229 114.492 74.5924 114.68C74.3899 114.795 74.1816 114.815 73.9579 114.88C73.7866 114.929 73.6373 114.962 73.4643 115.005C73.1328 115.088 72.8543 115.186 72.5167 115.238C72.2862 115.274 72.0837 115.256 71.8505 115.254C70.9797 115.245 70.2331 115.237 69.3628 115.206C69.0705 115.195 68.8175 115.189 68.5301 115.135C67.7216 114.981 67.04 114.795 66.2374 114.612C65.9767 114.553 65.7533 114.501 65.4922 114.444C64.083 114.132 62.879 113.847 61.4652 113.558C60.9767 113.458 60.5515 113.407 60.0587 113.331C58.7842 113.134 57.6911 112.971 56.4159 112.779C55.6659 112.665 55.0227 112.571 54.2726 112.458C53.5192 112.345 52.8797 112.196 52.1204 112.134C50.1164 111.97 48.3939 111.742 46.3846 111.815C44.3389 111.89 42.5948 112.179 40.5829 112.556C40.0508 112.656 39.6255 112.889 39.1634 113.17C38.4924 113.579 37.9577 113.999 37.3669 114.517C37.0391 114.804 36.7913 115.095 36.5526 115.46C36.4105 115.677 36.3402 115.899 36.2953 116.155C36.2107 116.637 36.1693 117.06 36.1859 117.549C36.1986 117.926 36.2689 118.459 36.3967 119.15L21.8079 93.8812C22.0049 94.444 22.1818 94.8645 22.3385 95.1427C22.4855 95.4036 22.681 95.5822 22.8882 95.7984C23.0261 95.9422 23.1645 96.0449 23.3213 96.1679C23.4584 96.2754 23.5674 96.3863 23.727 96.4562C24.7176 96.89 25.5757 97.2447 26.5964 97.602C27.4352 97.8956 28.1817 98.061 29.0337 98.3137C29.6242 98.4888 30.1284 98.6455 30.7178 98.8242C32.1158 99.2481 33.3177 99.5996 34.712 100.035C35.2028 100.189 35.6213 100.328 36.1033 100.508C36.9011 100.805 37.5728 101.091 38.3677 101.395C39.7164 101.913 40.8722 102.357 42.2276 102.856C43.0281 103.151 43.7223 103.381 44.5268 103.665C45.285 103.932 45.9276 104.183 46.6925 104.43C50.6212 105.701 54.0095 106.726 57.9362 108.004C58.2776 108.115 58.5478 108.27 58.8839 108.396C60.4163 108.972 61.7324 109.459 63.2741 110.01C63.6139 110.131 63.9152 110.205 64.2585 110.316C64.6733 110.45 65.0242 110.579 65.44 110.71C65.6824 110.787 65.8907 110.853 66.1387 110.909C66.3837 110.964 66.5976 110.992 66.8463 111.027C67.103 111.063 67.3246 111.082 67.5821 111.112C67.847 111.142 68.0734 111.175 68.339 111.2C68.7582 111.239 69.1193 111.255 69.5384 111.297C70.624 111.404 71.5562 111.484 72.6379 111.626C73.1743 111.696 73.6255 111.811 74.1587 111.902C74.5872 111.975 74.9547 112.037 75.3855 112.094C75.8069 112.151 76.1681 112.212 76.593 112.227C77.6033 112.265 78.4711 112.277 79.4817 112.246C79.8432 112.234 80.151 112.177 80.5058 112.106C80.6204 112.084 80.7098 112.031 80.8153 111.981C80.8915 111.945 80.9571 111.912 81.0235 111.86C81.1269 111.779 81.2046 111.697 81.2975 111.604C81.3881 111.514 81.4822 111.448 81.5476 111.338C81.5957 111.258 81.6008 111.171 81.6111 111.078C81.6175 111.02 81.6065 110.969 81.5945 110.913C81.5778 110.834 81.5614 110.766 81.5295 110.692C81.4678 110.55 81.3713 110.349 81.2401 110.092L95.8827 135.454C95.6742 135.146 95.5113 134.912 95.3939 134.75C95.2253 134.517 95.0777 134.32 94.8981 134.096C94.7546 133.917 94.6203 133.772 94.4711 133.598C94.31 133.409 94.1717 133.248 94.0117 133.058C93.8593 132.878 93.7425 132.711 93.5788 132.541C93.3229 132.275 93.0942 132.055 92.8148 131.814C92.5718 131.604 92.3424 131.45 92.0884 131.254C91.9426 131.141 91.8226 131.038 91.6727 130.931C91.5677 130.856 91.4714 130.8 91.3609 130.733C91.1984 130.635 91.0576 130.553 90.893 130.457C90.8045 130.406 90.7255 130.368 90.6381 130.315C90.5391 130.255 90.4637 130.187 90.3605 130.135C90.2393 130.073 90.1272 130.038 89.9998 129.99C89.473 129.793 89.0214 129.624 88.4916 129.435C88.2321 129.342 88.0065 129.272 87.7451 129.185C87.4962 129.102 87.2813 129.036 87.0338 128.949C86.7962 128.865 86.5921 128.794 86.3594 128.698C85.7753 128.456 85.2877 128.218 84.7006 127.984C83.4581 127.489 82.38 127.097 81.1329 126.614C80.7822 126.477 80.4838 126.355 80.1356 126.213C79.8608 126.1 79.6245 126.006 79.3532 125.885C79.1146 125.779 78.9137 125.679 78.6791 125.565C78.2918 125.375 77.9648 125.203 77.5762 125.016C77.2892 124.878 77.0375 124.772 76.7492 124.636C76.4512 124.496 76.1987 124.37 75.9014 124.229C75.6006 124.086 75.3427 123.964 75.0404 123.825C74.5933 123.619 74.2043 123.455 73.7601 123.243C73.447 123.094 73.1872 122.948 72.8771 122.792C72.0755 122.39 71.3719 122.077 70.5839 121.649C69.6286 121.129 68.8134 120.674 67.8987 120.086C66.1339 118.952 64.6093 117.991 62.9321 116.731C62.6141 116.492 62.2271 116.076 61.7712 115.483L47.193 90.2329C46.891 89.7828 46.6822 89.4247 46.5667 89.1584C46.4085 88.7936 46.2867 88.4626 46.2534 88.0664C46.2243 87.7208 46.2633 87.4071 46.3926 87.0853C47.182 85.121 47.9412 83.47 48.8659 81.5657C49.3232 80.6239 49.7834 79.8498 50.3374 78.9614C50.7051 78.3719 51.0275 77.8628 51.4954 77.3491C52.1934 76.5827 52.8111 75.9246 53.6536 75.3205C54.7644 74.5241 55.7892 73.9272 57.0392 73.3744C58.1272 72.8932 59.1339 72.6612 60.2911 72.3851C60.8366 72.2549 61.3244 72.1939 61.8847 72.2181C63.2742 72.278 64.472 72.3602 65.8374 72.6243C66.5889 72.7696 67.2416 72.9726 67.8899 73.3795C68.8834 74.0031 69.6237 74.7075 70.4626 75.5273C71.4091 76.4523 72.126 77.3377 72.977 78.3511C73.4621 78.9287 73.8202 79.4698 74.2773 80.0698C74.6085 80.5046 74.8846 80.8837 75.2294 81.3078C77.0661 83.567 78.4979 85.6312 80.5097 87.736C81.8456 89.1336 83.1678 90.166 84.7536 91.272C85.8781 92.0564 86.9275 92.6334 88.2133 93.1094C90.3141 93.8871 92.1878 94.3585 94.3768 94.8344C95.6317 95.1071 96.7404 95.1806 98.0231 95.2417C98.8626 95.2817 99.5854 95.2078 100.421 95.1222C101.88 94.9729 103.127 94.8083 104.573 94.5713C105.017 94.4985 105.381 94.357 105.815 94.2382C106.029 94.1797 106.212 94.1304 106.424 94.0648C106.559 94.0229 106.678 93.9901 106.807 93.9312C106.882 93.8965 106.955 93.8661 107.005 93.7995C107.038 93.756 107.024 93.6993 107.021 93.645C107.017 93.5703 107.012 93.5043 106.985 93.4344C106.925 93.2756 106.827 93.054 106.69 92.7694L121.329 118.126C120.829 117.299 120.43 116.673 120.131 116.248C118.69 114.199 117.416 112.472 115.933 110.453C115.307 109.601 114.734 108.897 114.106 108.046C112.81 106.289 111.784 104.719 110.435 103.003C109.416 101.705 108.398 100.713 107.346 99.4426C107.109 99.1567 106.981 98.8556 106.754 98.5614C106.244 97.8992 105.808 97.3283 105.242 96.7127C104.776 96.2058 104.318 95.8287 103.814 95.3606C103.273 94.859 102.816 94.4205 102.254 93.9425C101.992 93.7189 101.734 93.5685 101.46 93.3583C100.49 92.6135 99.1083 91.5441 97.315 90.1502L82.7901 64.9925C82.3341 64.4596 82.016 64.0288 81.8358 63.7001C81.6969 63.4466 81.6348 63.1863 81.6415 62.8973C81.6552 62.3106 81.7453 61.8074 81.8932 61.2395C82.0858 60.5 82.2773 59.865 82.6103 59.1772C82.8903 58.5989 83.1656 58.0943 83.6307 57.651C85.6318 55.7437 87.5096 54.2874 89.6173 52.4986C90.7594 51.5294 91.7518 50.7144 92.9154 49.7713C93.4657 49.3253 93.9515 48.9606 94.5139 48.5299C95.061 48.1109 95.5343 47.7574 96.0854 47.3437C96.6364 46.93 97.12 46.5903 97.6628 46.1661C98.1899 45.7541 98.6485 45.4072 99.1416 44.9552C100.66 43.5628 101.994 42.3975 103.408 40.899C106.004 38.1488 108.171 35.7334 110.589 32.8257C112.845 30.1117 114.593 27.6359 116.756 24.8467C118.292 22.865 119.706 21.2382 121.159 19.1945C122.897 16.7505 124.397 14.6496 125.866 12.035C126.236 11.3764 126.582 10.354 126.904 8.96799L141.537 34.3134C141.546 34.2224 141.54 34.1563 141.518 34.115C141.493 34.0669 141.443 34.0255 141.389 34.0294C141.222 34.0415 141.069 34.0673 140.928 34.1576C139.475 35.0866 138.274 35.9495 136.855 36.9292C136.304 37.3099 135.824 37.6287 135.299 38.0443C133.993 39.0777 132.892 39.9886 131.623 41.0674C130.837 41.736 130.207 42.3599 129.427 43.0359C128.853 43.5331 128.342 43.9363 127.756 44.4188C126.88 45.1399 126.058 45.6785 125.249 46.4747C124.4 47.3116 123.778 48.1313 123.037 49.0665C122.609 49.6082 122.349 50.1524 121.914 50.6893C121.163 51.6175 120.452 52.3565 119.654 53.2456C119.429 53.4966 119.248 53.7251 118.994 53.9462C118.391 54.4695 117.855 54.8959 117.212 55.3681C115.861 56.3599 114.644 57.1282 113.299 58.1274C112.874 58.4427 112.554 58.7679 112.16 59.1201C111.341 59.8505 110.652 60.4899 109.834 61.2202C109.392 61.6149 108.996 61.9344 108.558 62.3342C108.073 62.7776 107.665 63.1667 107.197 63.6288C106.727 64.0927 106.33 64.4958 105.881 64.9795C104.735 66.2136 103.846 67.3601 102.641 68.5363C101.728 69.4277 100.93 70.2055 99.8426 70.8734C98.969 71.4101 98.111 71.7048 97.1114 71.9331C94.944 72.4283 93.0584 72.8155 90.8381 72.9307C87.273 73.1157 84.2025 73.0077 80.6394 72.7876C78.7938 72.6737 77.2188 72.4005 75.4185 71.9786C74.4803 71.7587 73.7298 71.3769 72.8591 70.9641C72.7012 70.8892 72.5078 70.7312 72.2791 70.4899L57.6625 45.1733C57.5523 44.9631 57.4859 44.7961 57.4634 44.6724C57.4328 44.5034 57.4434 44.3493 57.4826 44.1821C57.6542 43.4495 57.7948 42.8151 58.0633 42.1122C58.6579 40.5557 59.2548 39.2559 59.9439 37.739C60.1714 37.238 60.4154 36.8323 60.6807 36.3504C60.9484 35.8642 61.1659 35.4397 61.4664 34.9732C62.6855 33.0809 63.6924 31.4306 65.0207 29.6133C66.4586 27.6463 67.9795 26.1776 69.3623 24.1713C70.9829 21.82 72.3141 19.747 73.5838 17.189C74.2985 15.7492 74.5561 14.3649 74.9971 12.819C75.1113 12.419 75.1704 12.0585 75.166 11.6425C75.1604 11.1031 75.0981 10.6376 74.9687 10.1139C74.8935 9.80954 74.7304 9.3925 74.4793 8.86273L89.0579 34.1138C88.8732 33.8227 88.7142 33.614 88.5808 33.4877C88.261 33.1849 87.9742 32.9242 87.5846 32.7188C86.5649 32.1813 85.6488 31.801 84.5768 31.3772C82.507 30.559 80.6865 29.9795 78.6125 29.1719C77.6337 28.7908 76.8355 28.365 75.8574 27.982C74.0867 27.2887 72.5732 26.6757 70.7615 26.098C70.5105 26.018 70.2701 26.0814 70.0091 26.1172C69.9321 26.1277 69.8752 26.1767 69.8163 26.2275C69.7669 26.2702 69.7288 26.3169 69.7064 26.3783C69.6613 26.5018 69.6403 26.6147 69.6272 26.7456C69.5886 27.132 69.5864 27.4657 69.559 27.8531C69.4875 28.8605 69.4308 29.7244 69.3447 30.7307C69.3207 31.0107 69.2724 31.2478 69.2446 31.5275C69.2169 31.8076 69.2126 32.0494 69.186 32.3296C69.16 32.6032 69.1305 32.8371 69.0946 33.1096C69.0563 33.3998 69.0244 33.6489 68.9738 33.9373C68.9242 34.2204 68.8739 34.4617 68.8086 34.7415C68.7405 35.0332 68.6679 35.2797 68.593 35.5697C68.4743 36.0292 68.3674 36.4217 68.2554 36.8829C68.1697 37.2361 68.1068 37.5414 68.0283 37.8963C67.9474 38.2624 67.8923 38.5796 67.7998 38.9429C67.6133 39.676 67.4388 40.3005 67.2316 41.0279C67.0244 41.7555 66.8357 42.3759 66.6159 43.0997C66.5095 43.4496 66.4252 43.7522 66.2998 44.0958C66.1225 44.5814 65.963 44.9955 65.7514 45.4671C65.6078 45.7875 65.4552 46.0481 65.2861 46.3558C65.1049 46.6856 64.9437 46.965 64.7509 47.288C64.5607 47.6066 64.411 47.8893 64.1918 48.1886C63.4861 49.1524 62.8593 49.9629 62.1106 50.8937C61.8205 51.2544 61.5543 51.5506 61.2257 51.8766C59.577 53.5117 58.1961 54.9497 56.463 56.495C54.8565 57.9273 53.3236 58.971 51.6931 60.3759C49.729 62.0682 48.1855 63.6786 46.1962 65.3412C45.0904 66.2655 44.0953 67.0119 42.8618 67.7572C42.2869 68.1046 41.7193 68.2746 41.0683 68.4398C40.7053 68.532 40.3703 68.5338 39.9991 68.4837C39.6763 68.4402 39.4054 68.3349 39.1204 68.1772C38.7818 67.9898 38.4998 67.7956 38.2388 67.5098C37.4826 66.6816 36.9069 65.9075 36.2309 65.0126C35.9986 64.7052 35.6932 64.2472 35.3147 63.6389L20.898 38.6683C19.419 36.3647 18.3844 34.5409 17.7942 33.1971C16.9459 31.2657 16.5836 29.4709 15.9718 27.452C15.8342 26.9979 15.7788 26.5919 15.6537 26.1342C15.2652 24.7126 14.8755 23.5097 14.5046 22.0835C14.4199 21.7577 14.3868 21.4686 14.3533 21.1337C14.3212 20.8113 14.3247 20.5327 14.3176 20.2089C14.3104 19.8777 14.2932 19.5931 14.3126 19.2625C14.3926 17.9006 14.4819 16.7345 14.6014 15.3755C14.6537 14.7813 14.7446 14.2768 14.8033 13.6831C14.8525 13.1857 14.8736 12.7574 14.9094 12.2588C14.9298 11.9747 14.9478 11.7311 14.9639 11.4466C14.9804 11.1555 15.0129 10.9058 15.0025 10.6143C14.9537 9.25798 14.9219 8.09337 14.7949 6.74208C14.7404 6.16178 14.612 5.6747 14.4849 5.10588C14.4196 4.81403 14.3347 4.57109 14.2457 4.28557C14.1842 4.08819 14.0912 3.80782 13.967 3.44446L28.5326 28.673C28.2248 27.9494 27.9614 27.4074 27.7423 27.047C27.4248 26.5245 27.0944 26.1119 26.6949 25.649C26.5988 25.5376 26.4774 25.4769 26.3406 25.4228C26.2208 25.3754 26.101 25.3295 25.9772 25.3651C25.8127 25.4124 25.6797 25.5078 25.5748 25.6431C25.3049 25.9911 25.1016 26.3172 24.9258 26.721C24.0557 28.7205 23.3847 30.4664 22.5917 32.4978C22.0986 33.7611 21.7316 34.8651 21.2516 36.1334C21.0126 36.7651 20.7841 37.2973 20.5375 37.9261C20.2987 38.5351 20.0956 39.0578 19.8649 39.6698C19.6495 40.2412 19.4599 40.7293 19.2627 41.3071C18.6475 43.1099 18.2083 44.6858 17.544 46.4711C17.0303 47.8515 16.424 48.9683 15.8998 50.3447C15.7344 50.7788 15.6864 51.1807 15.5781 51.6325C15.474 52.0666 15.3896 52.4398 15.2929 52.8756C15.2006 53.2919 15.1218 53.6488 15.0381 54.0669C14.9528 54.4931 14.8607 54.856 14.8101 55.2877C14.6687 56.4935 14.5566 57.5294 14.4899 58.7416C14.4624 59.2429 14.4999 59.6748 14.5415 60.1751C14.6981 62.0603 14.7728 63.6851 15.0561 65.5555C15.2239 66.6636 15.5396 67.5802 15.8272 68.6634C15.9122 68.9834 16.016 69.2485 16.1201 69.5628C16.2259 69.8823 16.3004 70.1622 16.4269 70.474C17.0607 72.036 17.6124 73.3719 18.2917 74.9147C18.4948 75.376 18.7123 75.751 18.9467 76.1972C19.1704 76.6229 19.3693 76.984 19.6004 77.4058C19.8435 77.8495 20.0538 78.2287 20.3014 78.6699C20.4551 78.9437 20.6768 79.3337 20.9666 79.8398L6.45371 54.7027C7.30358 55.9824 7.96821 56.9591 8.4476 57.633C8.68712 57.9697 8.93202 58.2282 9.19079 58.5504C9.37803 58.7835 9.53309 58.9876 9.72188 59.2195C10.0893 59.6707 10.4106 60.0521 10.7799 60.5018C10.9694 60.7327 11.2392 61.0633 11.5893 61.4937L26.0967 86.6212C27.2909 88.4184 28.1748 89.8216 28.7484 90.8309C29.888 92.8361 30.78 94.6027 31.8065 96.6681C32.2272 97.5147 32.4964 98.2826 32.881 99.1462C33.1254 99.6949 33.3509 100.158 33.6034 100.703C34.0843 101.741 34.539 102.612 34.9764 103.669C35.3602 104.596 35.6281 105.415 35.9473 106.366C36.0345 106.626 36.0747 106.859 36.1367 107.127C36.1942 107.374 36.2464 107.586 36.2887 107.837C36.3295 108.079 36.3525 108.288 36.3741 108.531C36.4173 109.02 36.5018 109.44 36.4739 109.93C36.4076 111.096 36.3229 112.099 36.106 113.247C35.9159 114.253 35.6323 115.09 35.3149 116.064C34.9918 117.055 34.6235 117.872 34.2775 118.855C34.0633 119.464 33.9095 119.996 33.7149 120.611C33.595 120.99 33.5046 121.318 33.3789 121.695C32.8796 123.193 32.4806 124.488 31.9292 125.967C31.7053 126.568 31.4521 127.059 31.1662 127.632C31.0701 127.825 30.9531 127.971 30.8396 128.154C30.745 128.307 30.6691 128.441 30.5716 128.591C30.4341 128.804 30.3422 129.008 30.1684 129.192C29.9028 129.473 29.6317 129.67 29.3273 129.909C29.2252 129.989 29.1208 130.032 29.01 130.1C28.841 130.203 28.6978 130.294 28.5279 130.395C28.4001 130.472 28.2898 130.536 28.1595 130.608C27.9348 130.732 27.7364 130.827 27.5135 130.955C27.2122 131.126 26.959 131.283 26.6621 131.462C26.5271 131.544 26.4148 131.619 26.2796 131.7C26.0507 131.838 25.8525 131.952 25.6217 132.086C25.4672 132.176 25.3324 132.249 25.1787 132.34C25.0392 132.422 24.9189 132.492 24.784 132.582C24.4291 132.819 24.1319 133.032 23.7795 133.273C23.6457 133.364 23.5273 133.437 23.395 133.53C23.2168 133.656 23.0681 133.769 22.8927 133.899C22.8007 133.967 22.7238 134.027 22.6311 134.094C22.5384 134.161 22.4517 134.208 22.3632 134.28C22.1155 134.482 21.9171 134.672 21.6715 134.876C21.4282 135.079 21.2067 135.237 20.9664 135.443C20.7082 135.665 20.5015 135.871 20.2479 136.098C20.1779 136.161 20.1097 136.205 20.042 136.27C19.9283 136.379 19.8359 136.478 19.7303 136.595C19.6325 136.704 19.5494 136.798 19.461 136.914C19.3855 137.013 19.3286 137.104 19.2629 137.21C19.1727 137.356 19.0986 137.482 19.0158 137.632C18.9765 137.704 18.9482 137.768 18.9144 137.842C18.8833 137.91 18.8584 137.969 18.8303 138.038C18.8 138.113 18.7806 138.18 18.7476 138.253C18.6938 138.373 18.6345 138.47 18.5826 138.591C18.5492 138.668 18.539 138.742 18.5045 138.819C18.4751 138.885 18.4334 138.932 18.4009 138.997C18.3673 139.063 18.3476 139.124 18.316 139.192C18.2564 139.318 18.2021 139.425 18.1403 139.551C18.1196 139.593 18.1038 139.63 18.0805 139.671C18.0368 139.747 18.0017 139.813 17.949 139.883C17.9091 139.936 17.8697 139.978 17.8174 140.019C17.7601 140.064 17.7002 140.086 17.6387 140.125C17.5388 140.188 17.4569 140.248 17.3562 140.31C17.289 140.351 17.2322 140.389 17.1591 140.419C17.0799 140.451 17.0033 140.453 16.9241 140.485C16.8015 140.535 16.7 140.587 16.5847 140.652C16.4739 140.715 16.3878 140.783 16.2792 140.849C16.2047 140.895 16.1404 140.933 16.062 140.972C15.9444 141.029 15.8348 141.06 15.7198 141.123C15.6517 141.16 15.6041 141.208 15.542 141.255C15.4697 141.308 15.4016 141.347 15.3357 141.409C15.2938 141.448 15.2714 141.494 15.2368 141.539C15.2368 141.539 15.2368 141.539 15.2368 141.539L15.2368 141.539Z" sodipodi:nodetypes="cccccccccccccccccccccccccccccccccccccccccccccccccccccccccccccccccccccccccccccccccccccccccccccccccccccccccccccccccccccccccccccccccccccccccccccccccccccccccccccccccccccccccccccccccccccccccccccccccccccccccccccccccccccccccccccccccccccccccccccccccccccccccccccccccccccccccccccccccccccccccccccccccccccccccccccccccccccccccccccccccccccccccccccccccccccccccccccccccccccccccccccccccccccccccccccccccccccccccccccccccccccccccccccccccccccccccccccccccccccccccccccccccccccccccccccccccccccccccccccccccccccccccccccccccccccccccccccccccccccccccccccccccccccccccccccccccccccccccccccccccccccccccccccccccccccccccccccccccccccccccccccccccccccccccccccccccccccccccccccccccccccccccccccccccccccccccccccccccccccccccccccccccccccccccccccccccccccccccccccccccccccccccccccccccccccccccccccccccccccccccccccccccccccccccccccccccccccccccccccccccccccccccccccccccccccccccccccccccccccccccccccccccccccccccccccccccccccccccccccccccccccccccccccccccccccccccccccccccccccccccccccccc"/>
</svg>
