<?xml version="1.0" standalone="no"?>
<!DOCTYPE svg PUBLIC "-//W3C//DTD SVG 20010904//EN" "http://www.w3.org/TR/2001/REC-SVG-20010904/DTD/svg10.dtd">
<!-- Created using Krita: https://krita.org -->
<svg xmlns="http://www.w3.org/2000/svg" 
    xmlns:xlink="http://www.w3.org/1999/xlink"
    xmlns:krita="http://krita.org/namespaces/svg/krita"
    xmlns:sodipodi="http://sodipodi.sourceforge.net/DTD/sodipodi-0.dtd"
    width="144pt"
    height="144pt"
    viewBox="0 0 144 144">
<defs/>
<path id="shape0" transform="translate(3.15508197056948, 5.28775928885741)" fill="#F5BD27" d="M35.7602 106.721C35.7476 106.717 35.7379 106.715 35.7309 106.714C35.7099 106.712 35.6896 106.722 35.6708 106.713C35.6217 106.689 35.5911 106.649 35.544 106.621C35.5073 106.599 35.4736 106.583 35.4328 106.57C35.3505 106.544 35.2769 106.533 35.1936 106.51C35.0689 106.477 34.9631 106.445 34.8387 106.411C34.6817 106.368 34.5489 106.324 34.3898 106.29C34.0921 106.226 33.8343 106.183 33.5344 106.131C32.9351 106.025 32.4228 105.926 31.8206 105.839C31.256 105.757 30.7675 105.721 30.2019 105.647C29.7874 105.592 29.4343 105.529 29.0204 105.469C28.6212 105.412 28.2768 105.377 27.8787 105.313C27.5814 105.264 27.3294 105.207 27.0344 105.146C26.715 105.08 26.4444 105.008 26.1234 104.95C25.7253 104.879 25.3792 104.847 24.9807 104.778C24.6342 104.718 24.3396 104.654 23.9954 104.583C23.807 104.544 23.6482 104.498 23.4593 104.462C23.1422 104.401 22.8661 104.373 22.5502 104.307C22.3496 104.265 22.1841 104.202 21.9855 104.152C21.8669 104.122 21.7641 104.101 21.644 104.078C21.5336 104.056 21.4358 104.053 21.3271 104.024C21.0252 103.943 20.7742 103.847 20.4727 103.765C20.4012 103.745 20.3343 103.754 20.2632 103.733C20.1533 103.701 20.0669 103.65 19.959 103.612C19.8451 103.571 19.7469 103.537 19.6298 103.507C19.5424 103.484 19.4651 103.475 19.376 103.461C19.3136 103.451 19.2578 103.455 19.1968 103.439C19.1345 103.422 19.0885 103.386 19.0274 103.365C18.8838 103.316 18.7624 103.264 18.6128 103.239C18.3226 103.19 18.0696 103.179 17.7763 103.156C17.6329 103.145 17.5093 103.146 17.3655 103.141C17.2872 103.139 17.22 103.137 17.1417 103.136C16.8278 103.133 16.5587 103.132 16.2448 103.131C16.1311 103.131 16.0337 103.133 15.92 103.133C15.8161 103.134 15.727 103.135 15.6231 103.135C15.5648 103.135 15.5148 103.134 15.4565 103.134C15.3685 103.134 15.2931 103.133 15.2052 103.134C15.1271 103.135 15.0596 103.131 14.982 103.14C14.9608 103.143 14.9415 103.151 14.9271 103.167C14.8888 103.208 14.851 103.245 14.8352 103.299C14.7727 103.513 14.7435 103.703 14.7063 103.923C14.6849 104.05 14.6736 104.16 14.6677 104.289C14.6619 104.417 14.6527 104.528 14.6728 104.655C14.6845 104.728 14.7182 104.829 14.774 104.957L0.10305 79.5467C0.217139 79.6748 0.310311 79.7672 0.382566 79.8239C0.503845 79.9192 0.615402 79.994 0.755302 80.0588C1.27018 80.2974 1.69862 80.5515 2.24918 80.689C3.77469 81.0703 5.11402 81.2557 6.66149 81.5347C7.02212 81.5997 7.33573 81.6272 7.69946 81.6717C8.2497 81.7389 8.72096 81.801 9.27277 81.8539C9.81484 81.9059 10.2799 81.9553 10.8242 81.9715C11.7657 81.9995 12.5736 82.0013 13.5153 81.9804C13.6799 81.9767 13.8172 81.931 13.9792 81.9015C14.0727 81.8844 14.1557 81.8788 14.2454 81.8474C14.3215 81.8208 14.3871 81.7905 14.4479 81.7376C14.5137 81.6803 14.556 81.6152 14.5991 81.5393C14.7052 81.3529 14.7854 81.1869 14.8727 80.9911C14.9826 80.7449 15.0532 80.5238 15.1622 80.2773C15.2062 80.1778 15.2617 80.1013 15.3095 80.0037C15.3548 79.9114 15.3877 79.8295 15.4281 79.735C15.4701 79.637 15.5057 79.5528 15.5451 79.4537C15.5894 79.3423 15.6198 79.2438 15.6673 79.1337C15.7146 79.0243 15.7673 78.9361 15.8158 78.8271C15.8612 78.7252 15.8856 78.6315 15.9353 78.5316C15.9891 78.4233 16.052 78.3397 16.1109 78.2341C16.1754 78.1183 16.2271 78.017 16.2877 77.8991C16.3445 77.7885 16.3937 77.694 16.4462 77.5813C16.5059 77.4529 16.5546 77.3417 16.608 77.2105C16.6991 76.9867 16.7801 76.7958 16.8588 76.5674C16.997 76.1669 17.0962 75.8172 17.2273 75.4143C17.274 75.2707 17.328 75.152 17.3667 75.0061C17.4675 74.6263 17.5452 74.2982 17.6255 73.9135C17.6503 73.7944 17.6609 73.6899 17.6667 73.5684C17.7198 72.4589 17.7599 71.5076 17.7935 70.3974C17.8059 69.9866 17.7968 69.6341 17.798 69.2232C17.7988 68.9641 17.8031 68.7419 17.7992 68.4828C17.7785 67.0859 17.7827 65.8878 17.7276 64.4918C17.7083 64.0022 17.6444 63.5855 17.5867 63.0989C17.5701 62.9595 17.5368 62.8429 17.5157 62.7041C17.4906 62.5388 17.4915 62.3934 17.4548 62.2302C17.1279 60.7757 16.8208 59.535 16.4774 58.0843C16.3802 57.674 16.2909 57.3238 16.1959 56.913C16.0959 56.4808 16.0255 56.1069 15.9201 55.676C15.7748 55.0818 15.6353 54.5761 15.4798 53.9844C15.3511 53.4945 15.2386 53.0752 15.1082 52.5858C14.9928 52.1527 14.8998 51.7798 14.7775 51.3486C14.6767 50.9934 14.5813 50.6915 14.471 50.339C14.4049 50.1277 14.345 49.9474 14.2734 49.7378C14.0312 49.0287 13.8208 48.4219 13.5745 47.7142C13.4992 47.498 13.442 47.3097 13.3547 47.098C12.9888 46.2103 12.6557 45.4575 12.28 44.5738C12.1043 44.1605 11.9535 43.8064 11.7791 43.3925C11.6537 43.0947 11.5463 42.8394 11.4236 42.5405C11.288 42.2104 11.1935 41.918 11.0412 41.5953C10.5342 40.5208 10.0658 39.6161 9.5406 38.5503C9.41592 38.2973 9.30879 38.0806 9.1845 37.8274C9.07095 37.5961 8.97261 37.3983 8.86105 37.166C8.76037 36.9564 8.68095 36.7734 8.57811 36.5649C8.48946 36.3851 8.39344 36.2407 8.31404 36.0566C8.1318 35.6342 8.00411 35.2603 7.83141 34.8339C7.7661 34.6726 7.69871 34.5391 7.63408 34.3776C7.59916 34.2903 7.57949 34.2117 7.54718 34.1234C7.51875 34.0457 7.49299 33.9795 7.46057 33.9034C7.42658 33.8236 7.38772 33.7593 7.35751 33.678C7.32406 33.5879 7.31027 33.5058 7.27915 33.4149C7.2448 33.3146 7.21262 33.2294 7.17059 33.1321C7.12299 33.0218 7.06774 32.9337 7.02326 32.8222C6.97224 32.6943 6.93462 32.5819 6.89821 32.4491C6.84592 32.2583 6.81553 32.0911 6.77009 31.8986C6.74196 31.7793 6.71952 31.6767 6.68799 31.5584C6.66254 31.4628 6.62501 31.3849 6.60736 31.2876C6.60069 31.2509 6.59635 31.2108 6.61962 31.1816C6.67268 31.115 6.72765 31.0479 6.81125 31.0316C7.20839 30.954 7.55729 30.9234 7.96191 30.9195C8.45176 30.9147 8.86996 30.9754 9.35882 31.0069C9.55658 31.0197 9.72695 31.022 9.92368 31.0459C10.0816 31.065 10.2148 31.096 10.3703 31.1295C10.5286 31.1637 10.6661 31.1887 10.82 31.2394C11.1008 31.3317 11.3402 31.4171 11.6103 31.5374C12.2847 31.8379 12.8572 32.1085 13.5164 32.4409C13.7743 32.571 13.993 32.6909 14.2286 32.8579C14.8966 33.3315 15.4872 33.7198 16.0947 34.2688C16.6864 34.8034 17.1611 35.3053 17.6416 35.9417C18.0713 36.5109 18.6233 37.3674 19.2974 38.511L33.8327 63.6868C34.2184 64.3505 34.5141 64.8617 34.7199 65.2202C34.9319 65.5897 35.1136 65.9064 35.3202 66.2789C35.5272 66.6521 35.7276 66.961 35.9014 67.3508C36.4579 68.5994 36.8485 69.7069 37.4049 70.9555C37.5723 71.3311 37.8397 71.8541 38.2071 72.5246L23.6728 47.3505C23.9236 47.7562 24.1144 48.0696 24.2453 48.2906C24.4142 48.5755 24.5373 48.8328 24.7162 49.1115C25.1024 49.7132 25.3988 50.2575 25.8589 50.8048C26.2788 51.3042 26.7292 51.6485 27.2153 52.0838C27.36 52.2134 27.4996 52.3059 27.6589 52.4169C27.7747 52.4975 27.8675 52.5843 28.0007 52.6308C29.2826 53.0781 30.3951 53.4217 31.6918 53.8239C32.0437 53.933 32.3473 54.026 32.7099 54.0913C33.9226 54.3097 34.9616 54.5179 36.1884 54.6336C37.4324 54.7509 38.5069 54.7488 39.7564 54.7558C39.8969 54.7565 40.0106 54.6958 40.1452 54.6556C40.1877 54.6429 40.2286 54.6349 40.2615 54.6051C40.3867 54.4917 40.5109 54.4011 40.5906 54.2522C40.829 53.8071 40.9929 53.4031 41.1602 52.9267C41.2663 52.6249 41.3021 52.3497 41.3688 52.0369C41.5965 50.9705 41.7823 50.0546 42.0014 48.9865C42.1025 48.4936 42.1861 48.0705 42.2837 47.5769C42.3804 47.0878 42.4677 46.6694 42.5567 46.1788C42.7417 45.1592 42.886 44.2827 43.0663 43.2622C43.1583 42.7414 43.2446 42.2963 43.3345 41.7752C43.4713 40.9828 43.5797 40.3021 43.7141 39.5093C43.8706 38.5867 44.013 37.7973 44.1655 36.874C44.2349 36.4538 44.3116 36.0953 44.348 35.671C44.5045 33.8443 44.6539 32.278 44.7163 30.4456C44.7391 29.7773 44.658 29.2045 44.591 28.5392C44.543 28.0628 44.4534 27.6607 44.3882 27.1864C44.3466 26.8835 44.3358 26.6204 44.2858 26.3188C44.1114 25.2665 43.9517 24.366 43.7472 23.3192C43.5968 22.5493 43.4365 21.8959 43.2718 21.129C43.2239 20.9061 43.1942 20.7124 43.1397 20.491C42.9999 19.9238 42.8586 19.4431 42.7168 18.8764C42.6335 18.5437 42.5701 18.2565 42.4965 17.9214C42.4154 17.5521 42.3494 17.2347 42.2749 16.864C42.1917 16.4508 42.122 16.0964 42.046 15.6819C41.9609 15.2178 41.8951 14.8188 41.8146 14.354C41.7294 13.8619 41.6408 13.4425 41.5726 12.9477C41.3976 11.6775 41.2272 10.59 41.1198 9.31218C40.928 7.02937 40.8284 5.06742 40.7182 2.77922C40.7102 2.61499 40.7446 2.47384 40.7826 2.31388C40.8009 2.23666 40.8255 2.16783 40.8777 2.10801C40.9746 1.99683 41.0826 1.92595 41.1994 1.83584C41.2779 1.77531 41.351 1.73142 41.4346 1.67824C41.5924 1.57777 41.7302 1.49554 41.8892 1.39691C41.9664 1.34908 42.0276 1.2993 42.1093 1.25975C42.206 1.21296 42.2984 1.19549 42.3964 1.15143C42.5424 1.08575 42.6603 1.01421 42.8055 0.946627C42.8902 0.907197 42.9636 0.874122 43.0527 0.845888C43.2347 0.788181 43.3916 0.739183 43.5787 0.701464C43.7703 0.662859 43.9371 0.619101 44.1323 0.628327C44.2212 0.63253 44.2904 0.684897 44.3615 0.738462C44.7234 1.01113 45.0199 1.26284 45.3646 1.55685C45.566 1.72856 45.7094 1.90987 45.9212 2.06853C46.196 2.27435 46.4507 2.42481 46.7493 2.59418C46.8758 2.66592 47.0034 2.68795 47.1322 2.75543C47.4898 2.94277 47.7869 3.12062 48.1372 3.32134C48.2758 3.40081 48.3957 3.46776 48.529 3.55593C48.7095 3.6753 48.8585 3.78601 49.0331 3.91386C49.1598 4.00664 49.2667 4.08844 49.3896 4.18619C49.8016 4.51387 50.1664 4.781 50.5611 5.1293C50.6828 5.23666 50.7578 5.35767 50.8599 5.48373C51.0327 5.6969 51.1841 5.87729 51.3465 6.09843C51.4461 6.23411 51.5808 6.43336 51.7505 6.69619L66.3917 32.0555C66.7858 33.1287 67.0914 33.9532 67.3084 34.5293C67.4244 34.8369 67.5646 35.0863 67.6533 35.4029C67.9024 36.2917 68.1597 37.0504 68.2718 37.9667C68.4625 39.5266 68.5489 40.879 68.5151 42.4502C68.4671 44.6754 68.1634 46.5692 68.0386 48.7914C67.9498 50.3752 67.9054 51.7353 67.9049 53.3215C67.9048 53.78 67.9486 54.175 68.037 54.6249C68.5671 57.322 69.0748 59.6233 69.6706 62.3067C69.7578 62.6993 69.8704 63.0265 69.9879 63.4111C70.1313 63.8809 70.2351 64.291 70.4159 64.7476C70.6705 65.3908 70.8927 65.9446 71.23 66.5484C71.4024 66.8571 71.6959 67.2682 72.1104 67.7816L57.4706 42.4248C57.6564 42.7262 57.8119 42.9481 57.9372 43.0905C58.2573 43.4545 58.5571 43.7445 58.9171 44.0691C59.4668 44.5648 59.9725 44.95 60.5341 45.4323C60.7112 45.5844 60.8554 45.7234 61.0273 45.8813C61.1767 46.0186 61.2865 46.1586 61.4523 46.2757C61.8213 46.5364 62.146 46.7524 62.5491 46.9565C63.051 47.2105 63.4983 47.3974 64.0302 47.5806C64.3616 47.6948 64.6599 47.7517 65.0066 47.803C65.3045 47.847 65.5644 47.85 65.8654 47.8521C65.9637 47.8528 66.0458 47.8245 66.1432 47.8111C66.2375 47.7981 66.3185 47.7874 66.4131 47.7769C66.5058 47.7667 66.5882 47.7753 66.6785 47.752C66.786 47.7242 66.873 47.6822 66.9723 47.6325C67.5175 47.3599 67.9851 47.1261 68.5188 46.8317C68.7675 46.6945 68.9684 46.5557 69.2061 46.4003C69.7648 46.0349 70.2832 45.7735 70.7941 45.3439C71.3296 44.8936 71.7177 44.4282 72.178 43.9012C72.4779 43.5577 72.685 43.2229 72.9625 42.8611C73.4526 42.2218 73.8652 41.6677 74.3712 41.0409C75.4095 39.7551 76.3883 38.7234 77.3743 37.3971C78.5834 35.7707 79.5381 34.3164 80.6366 32.6134C80.8747 32.2443 81.0303 31.896 81.1874 31.4858C81.8965 29.6345 82.4635 28.0319 83.1093 26.1576C83.2833 25.6525 83.3855 25.2047 83.5287 24.69C83.678 24.1532 83.7954 23.6902 83.9448 23.1535C84.4405 21.3734 84.8298 19.8371 85.3717 18.0705C86.2872 15.0863 87.1493 12.5528 88.1083 9.58228C88.2614 9.10795 88.4008 8.70399 88.5491 8.22813C88.6826 7.79973 88.778 7.42672 88.9134 6.99893C89.0391 6.60203 89.1634 6.2673 89.295 5.87231C89.4606 5.37477 89.6063 4.94946 89.7625 4.44888C89.8525 4.1606 89.9171 3.90975 89.9982 3.61885C90.2131 2.84789 90.3913 2.18539 90.6082 1.415C90.6651 1.213 90.7012 1.03497 90.7806 0.840702C90.8417 0.691099 90.9089 0.566639 91.0073 0.438435C91.0664 0.361455 91.1424 0.318251 91.223 0.264266C91.2992 0.213242 91.3704 0.17839 91.4536 0.139674C91.5591 0.0905319 91.6458 0.0274872 91.7614 0.0135951C91.94 -0.00787929 92.1015 -0.00747834 92.2748 0.0409709C92.5872 0.128312 92.8326 0.268782 93.1308 0.396428C93.2267 0.437439 93.3092 0.47254 93.4005 0.52276C93.4861 0.569828 93.5548 0.618379 93.6353 0.673776C93.7419 0.74719 93.8278 0.817916 93.9349 0.890655C94.1654 1.04718 94.3694 1.17161 94.5995 1.32869C94.703 1.39931 94.7852 1.46893 94.8876 1.54104C94.9715 1.60009 95.0476 1.64468 95.1317 1.70332C95.2192 1.76425 95.2948 1.8159 95.378 1.88257C95.4582 1.9469 95.5233 2.00666 95.5981 2.07718C95.7103 2.18283 95.8025 2.2775 95.9122 2.38575C95.9967 2.46923 96.0736 2.53663 96.1531 2.62499C96.2346 2.71556 96.3005 2.79702 96.3712 2.89618C96.4439 2.99809 96.4946 3.09321 96.5623 3.19856C96.6018 3.26011 96.6589 3.34758 96.7338 3.46095L111.388 28.8435C111.504 29.116 111.578 29.3297 111.61 29.4847C111.676 29.7999 111.753 30.0797 111.712 30.399C111.638 30.9718 111.451 31.4396 111.287 31.9934C111.171 32.3853 111.074 32.7237 110.913 33.0994C110.093 35.0122 109.366 36.6418 108.486 38.5278C108.265 39.0014 108.01 39.3737 107.77 39.8377C107.458 40.4389 107.199 40.9586 106.91 41.5706C106.743 41.9223 106.626 42.2353 106.466 42.5903C106.058 43.4976 105.707 44.2742 105.289 45.1769C104.752 46.3351 104.277 47.3207 103.739 48.4783C103.486 49.0232 103.279 49.4951 103.028 50.041C102.779 50.5844 102.554 51.0455 102.308 51.5907C102.138 51.9684 102.002 52.2964 101.84 52.6776C101.607 53.2248 101.412 53.6957 101.181 54.2433C101.043 54.5677 100.925 54.8455 100.786 55.169C100.663 55.4548 100.562 55.7019 100.431 55.9842C100.127 56.6403 99.8539 57.1966 99.5434 57.8496C99.419 58.1113 99.3108 58.3349 99.1888 58.5976C99.1193 58.7472 99.0616 58.8763 98.9963 59.0277C98.9324 59.1758 98.8895 59.308 98.8196 59.4534C98.6487 59.8088 98.4854 60.1052 98.3087 60.4578C98.2508 60.5734 98.2043 60.674 98.1493 60.791C98.0953 60.9057 98.0503 61.0046 97.9971 61.1196C97.9108 61.3058 97.8375 61.4657 97.7506 61.6516C97.6642 61.8368 97.589 61.995 97.5019 62.1798C97.4394 62.3125 97.3803 62.4238 97.3232 62.5589C97.2383 62.7595 97.17 62.9335 97.0963 63.1386C96.8502 63.8235 96.5859 64.3952 96.4096 65.1014C96.1686 66.0671 96.0849 66.9212 95.9075 67.9006C95.8523 68.2052 95.798 68.465 95.745 68.77C95.6945 69.0611 95.6604 69.312 95.6119 69.6034C95.5299 70.097 95.4762 70.5234 95.3722 71.0128C95.2183 71.7365 95.047 72.3478 94.8756 73.0675C94.839 73.2212 94.8169 73.3551 94.7778 73.5081C94.7388 73.6607 94.6951 73.7887 94.6526 73.9404C94.5767 74.2116 94.5131 74.4445 94.4393 74.7164C94.3863 74.9117 94.3323 75.0772 94.2902 75.2752C94.1554 75.9077 94.0422 76.4506 93.934 77.0881C93.895 77.3176 93.8863 77.5179 93.87 77.7502C93.8412 78.1595 93.8078 78.5104 93.8052 78.9207C93.7971 80.2092 93.7981 81.3142 93.8396 82.602C93.8471 82.8328 93.8831 83.0307 93.945 83.2532C94.0452 83.6135 94.1387 83.9237 94.301 84.2607C94.3705 84.4049 94.5033 84.591 94.6995 84.819L80.0665 59.4738C80.21 59.6027 80.3253 59.6949 80.4125 59.7506C80.5441 59.8346 80.6609 59.9091 80.8117 59.9498C81.3176 60.0866 81.7569 60.1955 82.2776 60.2547C83.1306 60.3516 83.868 60.3819 84.7264 60.3947C84.955 60.3981 85.1469 60.336 85.3729 60.3011C85.9224 60.2161 86.3946 60.1498 86.942 60.0521C87.0724 60.0288 87.1817 59.9957 87.3079 59.9556C87.6819 59.8369 88.0028 59.7351 88.3706 59.5985C88.7511 59.4573 89.0645 59.3034 89.445 59.1622C89.671 59.0784 89.8728 59.0302 90.1021 58.9561C90.3119 58.8883 90.4882 58.819 90.6997 58.7567C90.906 58.6958 91.0873 58.6601 91.2951 58.6044C91.5273 58.5422 91.7267 58.4897 91.9567 58.4198C92.1889 58.3493 92.3769 58.2486 92.6153 58.2033C94.5168 57.8417 96.1551 57.5774 98.0643 57.2584C99.124 57.0813 100.036 56.9496 101.097 56.7859C101.684 56.6955 102.19 56.6417 102.773 56.5324C104.098 56.2841 105.23 56.0496 106.548 55.7647C106.959 55.6759 107.306 55.5777 107.711 55.465C107.962 55.395 108.175 55.3244 108.422 55.2427C108.763 55.1304 109.053 55.0274 109.392 54.9109C109.624 54.8312 109.826 54.7723 110.054 54.682C110.441 54.5285 110.765 54.3773 111.149 54.2147C111.32 54.142 111.465 54.0729 111.64 54.0096C111.852 53.933 112.04 53.8868 112.254 53.8153C112.732 53.6556 113.138 53.5081 113.615 53.3488C113.798 53.2881 113.958 53.2488 114.14 53.1867C114.299 53.1325 114.429 53.0684 114.589 53.0167C114.987 52.8884 115.328 52.7788 115.731 52.6727C115.868 52.6369 115.992 52.6421 116.129 52.6121C116.273 52.5806 116.393 52.5394 116.535 52.4975C116.824 52.412 117.067 52.3195 117.36 52.248C117.656 52.1759 117.912 52.1164 118.215 52.0879C118.332 52.0769 118.437 52.0955 118.547 52.1365C118.642 52.1717 118.707 52.2358 118.785 52.3C118.865 52.3656 118.931 52.4261 118.997 52.506C119.04 52.5588 119.061 52.6156 119.094 52.6757C119.139 52.7585 119.202 52.8774 119.283 53.0325L133.935 78.4109C133.977 78.55 134.005 78.658 134.02 78.7348C134.058 78.9314 134.088 79.1009 134.105 79.3004C134.144 79.7525 134.171 80.1411 134.179 80.5948C134.181 80.716 134.168 80.8219 134.133 80.9382C134.071 81.1509 134.026 81.3435 133.904 81.5288C133.675 81.8764 133.436 82.146 133.144 82.4429C132.866 82.726 132.582 82.9194 132.283 83.1799C132.092 83.3464 131.936 83.4972 131.744 83.6629C131.573 83.8106 131.422 83.932 131.247 84.075C131.097 84.1972 130.966 84.2976 130.817 84.4203C130.595 84.6028 130.409 84.7635 130.188 84.9471C130.021 85.0859 129.878 85.2043 129.709 85.3413C129.527 85.4896 129.369 85.6137 129.187 85.7622C128.943 85.9607 128.737 86.1341 128.494 86.3327C128.353 86.4477 128.224 86.5367 128.089 86.6582C127.795 86.9226 127.557 87.1652 127.268 87.4346C127.06 87.6283 126.875 87.7875 126.667 87.9815C126.527 88.1121 126.413 88.2307 126.274 88.362C126.139 88.4888 126.021 88.5945 125.884 88.7188C125.726 88.8628 125.589 88.9854 125.43 89.1287C125.256 89.2857 125.118 89.4339 124.931 89.5766C123.465 90.7 122.185 91.6327 120.709 92.7447C119.82 93.4151 119.064 93.9989 118.175 94.6692C117.925 94.8574 117.713 95.0215 117.454 95.1975C117.197 95.3729 116.973 95.5196 116.701 95.6729C115.448 96.381 114.371 96.9835 113.1 97.6581C112.728 97.8552 112.388 97.9797 112.009 98.1621C111.628 98.3456 111.309 98.5191 110.929 98.7033C109.899 99.2018 109.019 99.6365 107.979 100.113C107.643 100.266 107.345 100.374 106.999 100.502C106.386 100.729 105.852 100.898 105.241 101.128C105.016 101.213 104.83 101.303 104.61 101.4C104.379 101.502 104.183 101.591 103.954 101.695C103.672 101.822 103.419 101.91 103.148 102.06C101.675 102.871 100.406 103.559 98.9736 104.44C98.1093 104.971 97.4236 105.511 96.5903 106.089C96.3691 106.243 96.1773 106.371 95.9608 106.531C95.4644 106.898 95.0076 107.176 94.5536 107.594C93.6965 108.383 92.9928 109.096 92.2241 109.972C91.2918 111.033 90.5851 112.021 89.6994 113.122C89.3287 113.582 89.006 113.973 88.6343 114.433C88.2144 114.953 87.8504 115.396 87.4376 115.921C86.7989 116.734 86.2613 117.439 85.6304 118.258C85.2238 118.786 84.9089 119.265 84.4732 119.769C83.0861 121.374 81.8771 122.733 80.4252 124.28C79.8739 124.867 79.3373 125.307 78.7536 125.862C78.6033 126.005 78.4826 126.136 78.3282 126.274C78.2052 126.385 78.0907 126.469 77.9616 126.572C77.8447 126.665 77.7504 126.753 77.6254 126.835C77.5023 126.916 77.3859 126.968 77.2551 127.035C77.1336 127.098 77.0337 127.163 76.9048 127.208C76.3266 127.413 75.8173 127.548 75.2379 127.749C75.013 127.827 74.8257 127.909 74.6082 128.006C73.8436 128.346 73.1729 128.606 72.4322 128.995C71.8851 129.283 71.4539 129.596 70.9368 129.934C70.7642 130.047 70.6312 130.166 70.4628 130.285C70.215 130.46 69.9902 130.593 69.7477 130.776C69.3879 131.047 69.097 131.302 68.7432 131.58C68.588 131.703 68.4484 131.799 68.2936 131.921C68.0687 132.099 67.8738 132.25 67.6583 132.439C67.4317 132.638 67.252 132.825 67.0315 133.031C66.7513 133.292 66.5079 133.513 66.228 133.775C66.0996 133.895 65.998 134.007 65.8648 134.122C65.7932 134.183 65.7166 134.217 65.6442 134.277C65.5775 134.333 65.5314 134.393 65.4689 134.453C65.3776 134.542 65.2973 134.615 65.205 134.703C65.1525 134.753 65.1064 134.795 65.0553 134.846C65.0015 134.9 64.9559 134.947 64.9054 135.004C64.8653 135.05 64.837 135.094 64.7968 135.139C64.7293 135.215 64.6613 135.271 64.5979 135.35C64.5572 135.402 64.5384 135.457 64.5011 135.51C64.424 135.621 64.3532 135.713 64.2714 135.82C64.2055 135.907 64.1405 135.974 64.079 136.064C64.0399 136.121 64.0241 136.181 63.9848 136.238C63.9476 136.292 63.9047 136.329 63.8619 136.379C63.8157 136.432 63.7788 136.481 63.7306 136.532C63.6203 136.651 63.523 136.749 63.4092 136.864C63.2696 137.005 63.1477 137.124 63.0067 137.264C62.9565 137.314 62.914 137.357 62.863 137.406C62.759 137.505 62.6657 137.586 62.5639 137.688C62.4934 137.759 62.4384 137.825 62.3709 137.898C62.3212 137.952 62.28 138 62.2292 138.053C62.1401 138.146 62.0523 138.215 61.9712 138.316C61.8002 138.527 61.673 138.723 61.5105 138.941C61.4605 139.008 61.412 139.062 61.3642 139.13C61.335 139.172 61.2967 139.234 61.2494 139.316L46.5795 113.908C46.6318 113.832 46.6725 113.774 46.7015 113.734C46.751 113.666 46.7952 113.608 46.8454 113.541C47.0072 113.322 47.1367 113.128 47.307 112.916C47.3881 112.816 47.4752 112.745 47.5623 112.649C47.6126 112.594 47.6503 112.542 47.6992 112.486C47.7648 112.41 47.8185 112.342 47.8894 112.271C47.9909 112.17 48.0844 112.089 48.191 111.993C48.2427 111.946 48.2917 111.912 48.3414 111.863C48.4839 111.724 48.6005 111.599 48.7399 111.456C48.8529 111.341 48.9537 111.246 49.0626 111.126C49.111 111.073 49.1426 111.019 49.1887 110.964C49.2304 110.914 49.276 110.879 49.3134 110.826C49.3532 110.769 49.3687 110.709 49.4074 110.652C49.4684 110.561 49.5316 110.492 49.5975 110.404C49.6788 110.297 49.751 110.207 49.8281 110.096C49.8656 110.042 49.8845 109.987 49.9246 109.935C49.9872 109.855 50.051 109.794 50.1204 109.719C50.1603 109.675 50.1962 109.64 50.2368 109.598C50.2895 109.542 50.3324 109.493 50.387 109.44C50.4386 109.39 50.4871 109.351 50.5399 109.302C50.6332 109.216 50.7118 109.14 50.8042 109.053C50.867 108.994 50.9165 108.938 50.9832 108.884C51.0563 108.824 51.1302 108.787 51.2029 108.727C51.3371 108.615 51.4439 108.51 51.5736 108.393C51.8575 108.137 52.0971 107.913 52.3846 107.662C52.609 107.465 52.8055 107.302 53.036 107.112C53.2573 106.931 53.4509 106.78 53.6754 106.602C53.8306 106.479 53.9644 106.375 54.1207 106.254C54.4757 105.978 54.7751 105.736 55.1365 105.469C55.3808 105.288 55.6008 105.148 55.8507 104.976C56.0199 104.859 56.1613 104.753 56.334 104.641C56.853 104.306 57.2794 103.985 57.8268 103.698C58.5679 103.309 59.2418 103.055 60.0066 102.715C60.2238 102.619 60.4106 102.537 60.6324 102.452C61.2001 102.233 61.6951 102.067 62.2621 101.846C62.3897 101.797 62.4936 101.741 62.6158 101.679C62.7472 101.613 62.8621 101.559 62.9863 101.48C63.1119 101.399 63.2068 101.312 63.3274 101.225C63.46 101.128 63.5795 101.054 63.7096 100.954C63.8714 100.83 64.0039 100.716 64.1609 100.587C64.7736 100.08 65.3423 99.694 65.9087 99.1363C67.4064 97.6616 68.6323 96.3392 70.0502 94.7877C70.4957 94.3002 70.8225 93.8349 71.2293 93.3146C71.8667 92.4995 72.4052 91.7946 73.0334 90.9724C73.4442 90.4346 73.7894 89.9684 74.198 89.429C74.5596 88.9514 74.8741 88.5455 75.234 88.0666C76.0946 86.9216 76.7732 85.894 77.6851 84.7894C78.4326 83.884 79.121 83.1443 79.9686 82.3317C80.4146 81.9043 80.8694 81.6208 81.3693 81.2579C81.5866 81.1002 81.7932 80.9952 82.016 80.8455C82.8574 80.2801 83.5445 79.743 84.4098 79.2148C85.8453 78.3385 87.1186 77.6597 88.5847 76.8355C88.8535 76.6843 89.0902 76.566 89.3662 76.4283C89.5909 76.3161 89.7855 76.2236 90.015 76.1218C90.2354 76.0239 90.4255 75.9424 90.6513 75.8579C91.2624 75.6291 91.7933 75.4523 92.4057 75.2269C92.7529 75.0992 93.0515 74.9918 93.3928 74.8491C94.4526 74.4058 95.3598 74.0225 96.4081 73.5528C96.7942 73.3799 97.1095 73.1989 97.4898 73.0137C97.8675 72.8298 98.2067 72.7025 98.5739 72.4982C99.8315 71.7987 100.889 71.1627 102.129 70.4332C102.398 70.2753 102.624 70.1328 102.885 69.9629C103.146 69.7929 103.368 69.6441 103.622 69.4622C104.524 68.8134 105.305 68.2671 106.186 67.5898C107.656 66.4601 108.897 65.4664 110.338 64.3002C110.522 64.1517 110.657 63.999 110.827 63.8349C110.982 63.6845 111.112 63.5518 111.268 63.4017C111.401 63.2731 111.517 63.1645 111.653 63.0387C111.793 62.9099 111.916 62.8035 112.056 62.6744C112.265 62.4803 112.442 62.3115 112.65 62.1154C112.937 61.8437 113.177 61.6029 113.47 61.3378C113.606 61.2159 113.73 61.1214 113.874 61.0103C114.121 60.8198 114.341 60.667 114.588 60.4761C114.773 60.3323 114.932 60.2072 115.11 60.0541C115.276 59.9111 115.407 59.7759 115.572 59.6305C115.787 59.4395 115.969 59.2728 116.194 59.0929C116.344 58.9731 116.486 58.889 116.64 58.775C116.82 58.6414 116.977 58.5285 117.15 58.3856C117.345 58.2247 117.501 58.0735 117.692 57.9076C117.992 57.6475 118.284 57.4608 118.552 57.1685C118.84 56.8545 119.058 56.555 119.273 56.1868C119.388 55.9887 119.425 55.7885 119.485 55.5674C119.517 55.4522 119.536 55.3491 119.535 55.2297C119.531 54.782 119.508 54.3983 119.471 53.9522C119.453 53.747 119.418 53.5731 119.377 53.3713C119.36 53.291 119.329 53.178 119.283 53.0325L133.935 78.4109C133.861 78.2685 133.804 78.1593 133.763 78.0834C133.73 78.0238 133.71 77.9677 133.667 77.9153C133.6 77.8339 133.534 77.7713 133.452 77.7045C133.376 77.6415 133.31 77.5823 133.217 77.5461C133.103 77.5014 132.996 77.4704 132.874 77.4778C132.568 77.4964 132.307 77.5467 132.008 77.6193C131.717 77.6903 131.479 77.7946 131.193 77.8867C131.054 77.9317 130.936 77.9793 130.793 78.0109C130.655 78.0416 130.53 78.0335 130.391 78.0642C129.979 78.1556 129.628 78.2472 129.221 78.3595C129.058 78.4045 128.925 78.4665 128.762 78.5133C128.575 78.5673 128.408 78.5898 128.221 78.6471C127.739 78.7954 127.328 78.9329 126.852 79.1003C126.643 79.1741 126.468 79.2523 126.262 79.3359C126.09 79.406 125.944 79.4718 125.77 79.5396C125.38 79.6919 125.045 79.8233 124.651 79.9646C124.419 80.0477 124.212 80.0939 123.981 80.1805C123.649 80.3054 123.377 80.445 123.044 80.5684C122.8 80.659 122.587 80.731 122.333 80.7914C121.916 80.8905 121.555 80.9581 121.131 81.0233C119.769 81.2331 118.6 81.403 117.232 81.5769C116.63 81.6536 116.107 81.6624 115.504 81.7389C114.434 81.8747 113.51 81.9618 112.455 82.1832C110.603 82.5715 109.04 83.0067 107.208 83.4789C106.974 83.5393 106.786 83.632 106.555 83.7044C106.326 83.7762 106.123 83.817 105.894 83.8908C105.694 83.9553 105.529 84.0283 105.331 84.0991C105.124 84.1731 104.947 84.2401 104.737 84.3045C104.504 84.3758 104.296 84.4064 104.066 84.4865C103.682 84.6202 103.364 84.7647 102.987 84.9143C102.625 85.0575 102.321 85.1939 101.954 85.323C101.828 85.3674 101.714 85.3919 101.582 85.4092C101.019 85.4828 100.532 85.5113 99.969 85.5824C99.7446 85.6107 99.5585 85.6953 99.3324 85.693C98.4733 85.684 97.7365 85.6387 96.882 85.5502C96.3725 85.4974 95.9388 85.4137 95.4418 85.2899C95.2908 85.2523 95.1749 85.1756 95.0435 85.0923C94.9569 85.0374 94.8423 84.9463 94.6995 84.819L80.0665 59.4738C79.8726 59.2502 79.7417 59.0674 79.6737 58.9255C79.5184 58.6011 79.4321 58.3013 79.3385 57.9539C79.2794 57.7348 79.248 57.54 79.2392 57.3133C79.1881 56.0031 79.1695 54.8789 79.1676 53.5677C79.167 53.1571 79.2019 52.8059 79.232 52.3964C79.2488 52.1673 79.2595 51.9696 79.3014 51.7437C79.4171 51.1204 79.5438 50.5915 79.6818 49.9728C79.7266 49.7716 79.7751 49.6015 79.8236 49.4012C79.8923 49.1176 79.9432 48.8725 80.0167 48.5901C80.0559 48.4394 80.1058 48.3148 80.1455 48.1642C80.1856 48.0121 80.2061 47.8784 80.2446 47.7259C80.4231 47.0205 80.5993 46.4217 80.7655 45.7133C80.8761 45.2418 80.9463 44.8321 81.0353 44.3559C81.0891 44.0683 81.1205 43.8191 81.1735 43.5313C81.2287 43.2313 81.2924 42.9773 81.3445 42.6767C81.5174 41.6799 81.589 40.8107 81.8162 39.8249C81.9834 39.1001 82.2343 38.5082 82.4684 37.8022C82.5383 37.591 82.6033 37.4115 82.6848 37.2045C82.7395 37.0656 82.7949 36.9501 82.8572 36.8144C82.9425 36.6291 83.0206 36.4725 83.1066 36.2875C83.1935 36.1007 83.2639 35.9387 83.3512 35.7522C83.4042 35.6389 83.4544 35.544 83.5075 35.4308C83.5632 35.3119 83.6025 35.2061 83.6622 35.0892C83.8395 34.7418 84.0088 34.453 84.1846 34.1048C84.256 33.9633 84.3031 33.8353 84.3679 33.6907C84.4351 33.5407 84.4904 33.411 84.5618 33.2629C84.6859 33.0055 84.7955 32.7864 84.9265 32.5324C85.2499 31.9054 85.541 31.3752 85.86 30.746C85.9976 30.4745 86.1023 30.2352 86.231 29.9593C86.3768 29.647 86.5025 29.3797 86.6442 29.0656C86.8852 28.5314 87.0933 28.0742 87.3243 27.5358C87.4902 27.1493 87.6067 26.8073 87.778 26.4232C88.0204 25.8798 88.2575 25.4276 88.5056 24.8868C88.7578 24.3373 88.9533 23.8568 89.2075 23.3082C89.7432 22.1521 90.2286 21.1735 90.7623 20.0165C91.181 19.1091 91.5196 18.3221 91.9285 17.4102C92.0862 17.0586 92.2051 16.7495 92.3812 16.4068C92.6821 15.8209 92.9716 15.3355 93.2904 14.7591C93.5424 14.3033 93.7955 13.9315 94.0121 13.4578C94.8842 11.5502 95.6 9.90015 96.3986 7.96059C96.5587 7.57185 96.65 7.22023 96.7486 6.81155C96.8935 6.21069 97.0445 5.69574 97.0937 5.0796C97.1207 4.74054 97.0376 4.44852 96.9638 4.11648C96.9286 3.95825 96.8519 3.73974 96.7338 3.46095L111.388 28.8435C111.309 28.7223 111.249 28.629 111.207 28.5634C111.141 28.4612 111.092 28.3691 111.021 28.2703C110.949 28.1696 110.883 28.0861 110.8 27.9941C110.722 27.907 110.646 27.841 110.562 27.7594C110.455 27.6558 110.364 27.5664 110.256 27.4648C110.179 27.3928 110.114 27.3296 110.032 27.2634C109.949 27.1971 109.873 27.1478 109.787 27.0868C109.7 27.0251 109.623 26.9753 109.536 26.9129C109.434 26.8391 109.35 26.7694 109.246 26.6977C109.015 26.5381 108.811 26.4086 108.578 26.2524C108.478 26.1856 108.393 26.1269 108.292 26.0608C108.211 26.007 108.143 25.9574 108.058 25.9096C107.964 25.8573 107.882 25.8171 107.783 25.7753C107.488 25.6497 107.244 25.5131 106.934 25.4315C106.763 25.3865 106.604 25.3964 106.429 25.4187C106.313 25.4335 106.223 25.489 106.116 25.5358C106.032 25.5725 105.961 25.607 105.883 25.6567C105.802 25.7091 105.727 25.7518 105.665 25.8261C105.564 25.947 105.49 26.0631 105.426 26.2065C105.341 26.393 105.304 26.5668 105.242 26.7618C105.008 27.4994 104.81 28.1328 104.578 28.871C104.489 29.1515 104.422 29.3948 104.325 29.6725C104.158 30.153 103.998 30.5587 103.824 31.0369C103.684 31.4222 103.561 31.7517 103.428 32.1396C103.287 32.5529 103.177 32.911 103.039 33.3256C102.883 33.7948 102.745 34.1954 102.59 34.6646C101.614 37.6065 100.723 40.1109 99.8061 43.0717C99.2564 44.8463 98.8861 46.397 98.3996 48.1899C98.2522 48.7332 98.1416 49.203 97.995 49.7465C97.8552 50.265 97.7517 50.7147 97.5813 51.2239C96.9471 53.1202 96.3963 54.7439 95.6969 56.6171C95.5432 57.0287 95.3941 57.3823 95.1465 57.7454C94.0214 59.3954 92.9918 60.7649 91.7841 62.3556C90.7783 63.6804 89.8388 64.7557 88.8237 66.0734C88.3247 66.7212 87.933 67.3035 87.459 67.9699C87.1903 68.3477 86.9906 68.6942 86.7016 69.0568C86.2585 69.6126 85.8867 70.1021 85.3701 70.5904C84.8819 71.0518 84.3925 71.3663 83.8453 71.7561C83.6141 71.9208 83.3967 72.0333 83.1493 72.1725C82.6185 72.4713 82.1586 72.7185 81.6224 73.0072C81.5254 73.0595 81.4458 73.1153 81.3401 73.1467C81.2505 73.1734 81.167 73.1607 81.074 73.1704C80.979 73.1802 80.8977 73.1905 80.8029 73.2025C80.7048 73.2148 80.6217 73.244 80.5229 73.2396C80.213 73.2258 79.9472 73.201 79.6411 73.1506C79.2967 73.0938 78.9955 73.0537 78.6678 72.9337C78.1174 72.7323 77.6655 72.5065 77.1449 72.2372C76.7536 72.0348 76.4269 71.8414 76.0664 71.5882C75.8935 71.4666 75.7826 71.317 75.6289 71.1719C75.4511 71.0042 75.3038 70.8546 75.1192 70.6944C74.5578 70.2074 74.0535 69.8168 73.4977 69.3234C73.1592 69.023 72.8681 68.7638 72.5654 68.4273C72.4421 68.2903 72.2904 68.0751 72.1104 67.7816L57.4706 42.4248C57.0645 41.926 56.7775 41.5262 56.6097 41.2254C56.2869 40.6467 56.0767 40.1147 55.8373 39.4968C55.6695 39.0637 55.5783 38.674 55.4484 38.228C55.3417 37.8617 55.2431 37.549 55.1616 37.1762C54.5771 34.5026 54.0763 32.2104 53.5459 29.5255C53.4531 29.0555 53.3835 28.6457 53.3818 28.1667C53.3762 26.5862 53.4325 25.2311 53.5251 23.6533C53.6551 21.4408 53.9719 19.556 54.0178 17.3401C54.0506 15.7534 53.9522 14.3877 53.7496 12.8136C53.629 11.876 53.3584 11.1011 53.098 10.1923C53.0055 9.86964 52.8638 9.61453 52.7431 9.30129C52.5092 8.69433 52.1783 7.82596 51.7505 6.69619L66.3917 32.0555C66.2235 31.7961 66.0902 31.5992 65.9919 31.465C65.8246 31.2367 65.67 31.0496 65.4929 30.8288C65.3877 30.6976 65.3117 30.5706 65.1854 30.4593C64.7959 30.1161 64.4327 29.8569 64.025 29.5354C63.9018 29.4383 63.7952 29.3563 63.6687 29.2635C63.4935 29.1349 63.3436 29.0241 63.1632 28.9031C63.0271 28.8118 62.9071 28.7383 62.7647 28.6571C62.4192 28.4599 62.1232 28.2901 61.7695 28.108C61.6405 28.0415 61.5139 28.0184 61.3872 27.9477C61.0923 27.7833 60.8383 27.6406 60.5683 27.4379C60.3508 27.2748 60.2081 27.0834 60.0009 26.9076C59.6645 26.6222 59.3733 26.3799 59.0161 26.121C58.9516 26.0742 58.8831 26.0415 58.8035 26.0396C58.6065 26.0349 58.4378 26.0668 58.2441 26.1026C58.0557 26.1375 57.8979 26.1857 57.7145 26.2409C57.6247 26.2679 57.5503 26.2991 57.4646 26.337C57.3181 26.402 57.1971 26.4677 57.0514 26.5346C56.9544 26.5792 56.8658 26.6056 56.7715 26.6555C56.6913 26.6981 56.6327 26.7516 56.5545 26.798C56.3937 26.8936 56.2492 26.964 56.0893 27.061C56.0045 27.1124 55.9321 27.1582 55.856 27.2218C55.7415 27.3175 55.6429 27.4012 55.5464 27.5149C55.4969 27.5732 55.4654 27.6343 55.4436 27.7076C55.3996 27.8553 55.3565 27.9859 55.3602 28.14C55.4128 30.3319 55.4503 32.2125 55.604 34.3996C55.6939 35.6779 55.8795 36.7637 56.0556 38.033C56.125 38.5327 56.2157 38.9562 56.3053 39.4527C56.3917 39.9311 56.4661 40.3411 56.5586 40.8184C56.6409 41.2434 56.7152 41.607 56.8047 42.0305C56.8856 42.413 56.9583 42.7401 57.0456 43.1211C57.124 43.4635 57.1893 43.7574 57.278 44.0972C57.4321 44.6875 57.5876 45.1872 57.7392 45.7781C57.7963 46.0007 57.8271 46.1957 57.8739 46.4207C58.0293 47.1675 58.1734 47.8055 58.3169 48.5547C58.518 49.6041 58.6842 50.505 58.8584 51.5592C58.9076 51.8573 58.915 52.1176 58.9552 52.4171C59.0185 52.8891 59.1073 53.2893 59.1541 53.7632C59.2196 54.4264 59.3024 54.9974 59.2757 55.6633C59.2033 57.4746 59.0407 59.0219 58.8717 60.8268C58.8324 61.2462 58.7562 61.6008 58.6808 62.0153C58.5172 62.9146 58.3509 63.6807 58.1889 64.5803C58.0463 65.3724 57.9466 66.0551 57.8105 66.8483C57.7209 67.3705 57.6346 67.8165 57.5441 68.3385C57.3662 69.3644 57.2282 70.2462 57.0437 71.271C56.9558 71.7592 56.8614 72.174 56.7659 72.6608C56.6682 73.1586 56.5842 73.5853 56.4915 74.084C56.2867 75.1856 56.1161 76.1307 55.9159 77.2331C55.8551 77.5677 55.839 77.8627 55.7459 78.1898C55.6004 78.7007 55.4562 79.1359 55.2364 79.6195C55.1651 79.7766 55.0461 79.879 54.9233 80.0002C54.8916 80.0315 54.8476 80.0351 54.8043 80.0459C54.666 80.0803 54.5479 80.138 54.4056 80.1289C53.1088 80.0459 51.9991 79.938 50.7088 79.7837C49.4933 79.6384 48.455 79.481 47.2486 79.2731C46.8875 79.2108 46.5873 79.1115 46.2345 79.0126C44.9728 78.6588 43.8866 78.3705 42.6359 77.9796C42.5076 77.9395 42.4154 77.8613 42.305 77.7846C42.1404 77.6702 41.9995 77.57 41.8517 77.4347C41.3539 76.9793 40.8931 76.6177 40.4623 76.0986C39.9876 75.5267 39.6793 74.9617 39.2793 74.3354C39.0902 74.0396 38.9589 73.7674 38.78 73.4653C38.6491 73.2442 38.4581 72.9306 38.2071 72.5246L23.6728 47.3505C23.3088 46.6855 23.044 46.1669 22.8782 45.7944C22.3233 44.548 21.9335 43.4427 21.3784 42.1964C21.2061 41.8095 21.0073 41.5029 20.8019 41.1325C20.5978 40.7643 20.4183 40.4512 20.2087 40.0861C19.9973 39.7178 19.6936 39.1928 19.2974 38.511L33.8327 63.6868C33.1723 62.5669 32.6309 61.7289 32.2086 61.1726C31.7367 60.5509 31.2665 60.065 30.6866 59.5426C30.0718 58.9888 29.4792 58.5912 28.8071 58.1086C28.5675 57.9365 28.3498 57.8042 28.085 57.6744C27.4426 57.3597 26.8795 57.1151 26.219 56.8405C25.9563 56.7312 25.7218 56.6608 25.4495 56.5785C25.2955 56.532 25.1588 56.5092 25.0021 56.4726C24.8415 56.4351 24.7055 56.394 24.5428 56.3669C24.3408 56.3333 24.1656 56.3168 23.9615 56.2996C23.4706 56.2582 23.0495 56.1751 22.5574 56.1996C22.1698 56.219 21.8423 56.3096 21.4714 56.4237C21.3889 56.449 21.3413 56.521 21.2889 56.5896C21.2681 56.6169 21.2662 56.6519 21.271 56.6859C21.2836 56.7742 21.3158 56.8455 21.3375 56.9321C21.3668 57.049 21.3895 57.1499 21.4168 57.2673C21.461 57.458 21.4903 57.6235 21.5417 57.8123C21.5777 57.9448 21.6148 58.0569 21.6661 58.1843C21.7131 58.3011 21.7711 58.3933 21.8217 58.5086C21.8668 58.6114 21.9022 58.701 21.9393 58.807C21.9713 58.8985 21.985 58.9814 22.0189 59.0722C22.0493 59.1538 22.0883 59.2184 22.1225 59.2985C22.1549 59.3748 22.1809 59.4409 22.2092 59.5188C22.2407 59.6053 22.2598 59.6822 22.2932 59.768C22.3516 59.9176 22.4119 60.0416 22.4712 60.1908C22.6364 60.606 22.7594 60.9694 22.9347 61.3804C23.0101 61.5571 23.1024 61.6953 23.1868 61.8678C23.2839 62.0664 23.3581 62.2409 23.4533 62.4405C23.5615 62.6675 23.6575 62.8605 23.7679 63.0865C23.8876 63.3316 23.9904 63.5415 24.1106 63.7863C24.6262 64.836 25.0858 65.7272 25.5845 66.7849C25.7415 67.1179 25.8422 67.4182 25.9831 67.7583C26.1087 68.0614 26.218 68.3204 26.3458 68.6226C26.5218 69.0392 26.6734 69.3959 26.8512 69.8118C27.2365 70.7131 27.5783 71.4808 27.9547 72.3859C28.0455 72.6045 28.1077 72.7981 28.1857 73.0216C28.4318 73.7264 28.6401 74.3314 28.8806 75.0381C28.9509 75.2449 29.01 75.4226 29.0736 75.6315C29.1764 75.969 29.2629 76.2589 29.3559 76.5992C29.4705 77.0184 29.5575 77.3807 29.6664 77.8014C29.7907 78.2812 29.8996 78.6919 30.022 79.1722C30.1684 79.7467 30.2966 80.2385 30.4343 80.8152C30.5371 81.246 30.6089 81.619 30.7089 82.0504C30.8047 82.4633 30.8915 82.8161 30.9938 83.2274C31.3712 84.7449 31.7146 86.0408 32.0797 87.5613C32.1207 87.732 32.1246 87.8843 32.1535 88.0575C32.1772 88.1995 32.2132 88.3187 32.2299 88.4617C32.2859 88.9421 32.3462 89.3538 32.3608 89.8372C32.4023 91.2079 32.3826 92.3838 32.3902 93.755C32.3916 94.0127 32.3879 94.2335 32.3865 94.4911C32.3842 94.9007 32.3859 95.2518 32.3796 95.6613C32.3618 96.8105 32.3519 97.7958 32.3177 98.9447C32.3142 99.0637 32.2976 99.1656 32.272 99.282C32.1883 99.6621 32.1103 99.9868 32.0059 100.362C31.9661 100.505 31.9076 100.619 31.8605 100.76C31.7264 101.16 31.6248 101.507 31.4883 101.906C31.4091 102.138 31.3308 102.333 31.2444 102.562C31.1928 102.699 31.1531 102.818 31.094 102.952C31.0441 103.065 30.9909 103.157 30.9335 103.266C30.8722 103.383 30.8165 103.482 30.7548 103.598C30.6963 103.708 30.6438 103.802 30.5902 103.915C30.5429 104.014 30.5125 104.103 30.4668 104.203C30.4172 104.312 30.3654 104.4 30.318 104.51C30.2704 104.619 30.2379 104.717 30.1956 104.829C30.1568 104.932 30.1285 105.022 30.0864 105.124C30.0476 105.218 30.0104 105.297 29.9649 105.387C29.9161 105.484 29.8646 105.563 29.8171 105.66C29.7034 105.894 29.609 106.096 29.5045 106.334C29.4137 106.541 29.3581 106.728 29.2594 106.932C29.2206 107.012 29.1807 107.081 29.1137 107.139C29.0527 107.193 28.9825 107.215 28.9056 107.24C28.8149 107.269 28.733 107.28 28.6385 107.292C28.4696 107.314 28.324 107.341 28.1538 107.335C27.1797 107.299 26.3462 107.235 25.3735 107.172C24.8293 107.136 24.3626 107.105 23.8199 107.05C23.2652 106.994 22.7924 106.922 22.2389 106.855C21.8787 106.811 21.5672 106.792 21.2092 106.732C19.6745 106.475 18.3498 106.295 16.8326 105.948C16.3057 105.828 15.8883 105.607 15.3878 105.403C15.2615 105.352 15.1547 105.299 15.0443 105.219C14.9733 105.167 14.8832 105.08 14.774 104.957L0.10305 79.5467C0.051133 79.4241 0.0200787 79.3277 0.00988718 79.2576C-0.00818222 79.1333 0.00289535 79.0241 0.00887253 78.8987C0.0150661 78.7686 0.0249757 78.6571 0.044618 78.5284C0.0790818 78.3026 0.107144 78.1081 0.163327 77.8867C0.178006 77.8288 0.208237 77.7839 0.245394 77.7372C0.258741 77.7204 0.280207 77.7142 0.301604 77.7129C0.382233 77.7079 0.451536 77.7184 0.532308 77.7196C0.620229 77.7209 0.695607 77.7198 0.783537 77.7199C0.841699 77.7199 0.891553 77.7194 0.949714 77.7198C1.05449 77.7204 1.14429 77.7213 1.24906 77.7226C1.36409 77.7239 1.46268 77.7259 1.57772 77.7271C1.89248 77.7306 2.16229 77.7328 2.47706 77.7359C2.5548 77.7367 2.62145 77.7367 2.69917 77.7384C2.84235 77.7415 2.96527 77.7406 3.10818 77.7499C3.39846 77.7687 3.64943 77.7713 3.93645 77.8185C4.08917 77.8436 4.21076 77.9045 4.35693 77.9554C4.41614 77.976 4.46208 78.0076 4.52294 78.0227C4.58313 78.0376 4.63791 78.0311 4.69925 78.0402C4.78874 78.0535 4.86629 78.0627 4.95354 78.0866C5.07314 78.1194 5.17236 78.1586 5.2886 78.2019C5.39642 78.242 5.4839 78.2897 5.59349 78.3246C5.66716 78.3481 5.7359 78.3464 5.81008 78.3682C6.11418 78.4578 6.36825 78.5563 6.67328 78.6426C6.7833 78.6737 6.88251 78.6792 6.99426 78.7034C7.11632 78.7298 7.22043 78.7551 7.34109 78.7873C7.54074 78.8407 7.70806 78.9009 7.90928 78.9479C8.23249 79.0236 8.51357 79.0698 8.8385 79.1377C9.02537 79.1768 9.18399 79.2178 9.37153 79.2535C9.71046 79.318 10.0029 79.3627 10.3424 79.424C10.7515 79.4979 11.1027 79.5585 11.5104 79.6396C11.8309 79.7033 12.1024 79.7734 12.4228 79.8377C12.7146 79.8963 12.9663 79.9386 13.2592 79.9908C13.6682 80.0638 14.0205 80.117 14.4285 80.1953C14.8591 80.2779 15.2227 80.3767 15.6548 80.4505C16.2276 80.5483 16.7226 80.6063 17.2983 80.6853C17.8831 80.7655 18.3839 80.8395 18.9706 80.9053C19.2483 80.9365 19.4889 80.9354 19.7671 80.9625C19.9128 80.9766 20.0366 80.9995 20.1811 81.0232C20.2981 81.0423 20.3982 81.0604 20.5142 81.0849C20.5986 81.1028 20.6707 81.1196 20.7533 81.1444C20.7924 81.1562 20.8252 81.1698 20.8612 81.1893C20.9047 81.2129 20.934 81.2473 20.9795 81.267C20.9985 81.2752 21.018 81.268 21.0385 81.2661C21.0438 81.2656 21.051 81.2634 21.0602 81.2595L21.0602 81.2595Z" sodipodi:nodetypes="cccccccccccccccccccccccccccccccccccccccccccccccccccccccccccccccccccccccccccccccccccccccccccccccccccccccccccccccccccccccccccccccccccccccccccccccccccccccccccccccccccccccccccccccccccccccccccccccccccccccccccccccccccccccccccccccccccccccccccccccccccccccccccccccccccccccccccccccccccccccccccccccccccccccccccccccccccccccccccccccccccccccccccccccccccccccccccccccccccccccccccccccccccccccccccccccccccccccccccccccccccccccccccccccccccccccccccccccccccccccccccccccccccccccccccccccccccccccccccccccccccccccccccccccccccccccccccccccccccccccccccccccccccccccccccccccccccccccccccccccccccccccccccccccccccccccccccccccccccccccccccccccccccccccccccccccccccccccccccccccccccccccccccccccccccccccccccccccccccccccccccccccccccccccccccccccccccccccccccccccccccccccccccccccccccccccccccccccccccccccccccccccccccccccccccccccccccccccccccccccccccccccccccccccccccccccccccccccccccccccccccccccccccccccccccccccccccc"/><path id="shape1" transform="translate(19.906543121487, 50.2453994323633)" fill="#F5BD27" d="M101.231 92.0554C101.218 92.0526 101.209 92.0504 101.202 92.0488C101.144 92.0353 101.091 92.0334 101.036 92.0099C100.934 91.966 100.847 91.9233 100.757 91.8578C100.342 91.5546 100.03 91.233 99.5953 90.9583C99.108 90.6504 98.6561 90.4427 98.1333 90.1998C97.7792 90.0353 97.4569 89.9385 97.0932 89.7961C96.7223 89.651 96.4046 89.5259 96.0346 89.3785C95.4681 89.1527 94.9916 88.9353 94.4175 88.7297C92.6787 88.1069 91.1808 87.5936 89.4277 87.0122C88.9481 86.8531 88.5249 86.7562 88.0399 86.6145C87.4139 86.4315 86.8796 86.2667 86.2534 86.0846C85.957 85.9984 85.7009 85.9315 85.4038 85.8479C85.1144 85.7665 84.8658 85.6988 84.5777 85.6132C84.2964 85.5297 84.057 85.4524 83.7769 85.365C83.5088 85.2812 83.2795 85.2075 83.0113 85.1239C82.5906 84.9928 82.2319 84.874 81.8086 84.7515C81.5502 84.6767 81.3225 84.6351 81.0641 84.5602C80.6918 84.4525 80.3783 84.3419 80.0072 84.2301C79.7851 84.1632 79.5936 84.1093 79.3693 84.0499C78.668 83.8639 78.0649 83.7119 77.3627 83.5289C77.1038 83.4614 76.8814 83.4053 76.6234 83.3342C76.3612 83.2619 76.1381 83.194 75.8765 83.1191C75.6006 83.0402 75.365 82.9696 75.088 82.8949C74.5419 82.7477 74.0723 82.627 73.5248 82.4849C73.2853 82.4227 73.0775 82.3788 72.8394 82.3113C72.5124 82.2186 72.2297 82.1449 71.9108 82.0274C71.5237 81.8848 71.2046 81.7303 70.8249 81.5691C70.619 81.4817 70.4424 81.4069 70.2375 81.3171C69.9315 81.183 69.6697 81.0668 69.3653 80.9293C69.1378 80.8265 68.9459 80.7319 68.7179 80.6305C68.5374 80.5503 68.3755 80.4977 68.1984 80.4104C67.9843 80.3049 67.8136 80.19 67.6016 80.0802C67.2967 79.9224 67.028 79.8018 66.7221 79.646C66.5389 79.5527 66.3795 79.4762 66.2042 79.3687C66.1147 79.3138 66.0533 79.2449 65.968 79.1835C65.8748 79.1164 65.7893 79.067 65.6945 79.002C65.598 78.9358 65.5192 78.8732 65.4215 78.8086C65.3405 78.755 65.2646 78.7192 65.1842 78.6647C65.0123 78.5481 64.8755 78.4328 64.7011 78.32C64.5509 78.2228 64.4211 78.1383 64.2577 78.0654C63.7965 77.8597 63.3884 77.7134 62.9198 77.5252C62.7356 77.4512 62.5782 77.3864 62.3926 77.3161C62.1404 77.2205 61.924 77.1391 61.6691 77.0512C61.4872 76.9884 61.3292 76.9403 61.1448 76.8854C60.8243 76.7902 60.5486 76.7117 60.2265 76.6222C59.6056 76.4497 59.0804 76.2726 58.4504 76.1367C56.8541 75.7924 55.4741 75.554 53.8695 75.2509C53.4068 75.1634 53.0071 75.1054 52.5439 75.0208C52.2435 74.9658 51.9867 74.9152 51.6879 74.8521C51.4081 74.793 51.1709 74.7304 50.8911 74.6715C50.5604 74.6017 50.2737 74.5571 49.9436 74.4845C49.5555 74.3991 49.2288 74.2997 48.8395 74.22C47.5071 73.9472 46.3603 73.7374 45.0254 73.4776C44.7513 73.4243 44.5148 73.3859 44.2422 73.3254C43.9824 73.2677 43.7621 73.2082 43.5048 73.1401C43.2322 73.068 43.0011 72.9966 42.7284 72.9248C42.0282 72.7403 41.4251 72.5934 40.7252 72.4078C40.4007 72.3218 40.1267 72.2328 39.8017 72.1488C39.4419 72.0557 39.1279 71.9978 38.7688 71.902C38.5724 71.8496 38.4101 71.784 38.2154 71.7257C38.0106 71.6643 37.8326 71.62 37.6274 71.5599C37.3579 71.481 37.1303 71.402 36.8592 71.3288C36.5545 71.2465 36.2889 71.193 35.9829 71.1157C35.7344 71.053 35.522 70.9969 35.275 70.9287C35.0077 70.855 34.7793 70.7896 34.5136 70.7104C34.3431 70.6596 34.2015 70.6001 34.0288 70.5571C33.5232 70.4314 33.0857 70.3413 32.577 70.2288C32.1989 70.1452 31.8764 70.0651 31.4952 69.9968C31.0879 69.9239 30.7378 69.8595 30.3254 69.8255C29.1789 69.7309 28.1931 69.6935 27.0445 69.6296C26.8619 69.6194 26.7051 69.6185 26.5223 69.6139C26.2225 69.6063 25.965 69.6131 25.6657 69.5947C25.3319 69.5742 25.048 69.5291 24.7146 69.503C24.3115 69.4714 23.9641 69.4696 23.5617 69.43C23.4393 69.418 23.3394 69.3768 23.2181 69.3558C22.8795 69.2972 22.5867 69.2625 22.2483 69.2029C22.0293 69.1642 21.8458 69.1085 21.6259 69.075C21.1832 69.0076 20.798 68.9902 20.3567 68.9147C20.1603 68.8811 20.0002 68.8156 19.8079 68.7637C19.5808 68.7025 19.3853 68.6535 19.1585 68.5917C18.997 68.5476 18.8603 68.5036 18.6984 68.4613C18.4896 68.4068 18.3076 68.3721 18.0995 68.3152C17.8902 68.2581 17.7175 68.1849 17.5063 68.1357C17.1471 68.052 16.8316 68.0161 16.4716 67.9359C16.3925 67.9182 16.3305 67.8836 16.254 67.8567C16.1778 67.8299 16.1111 67.8107 16.0355 67.7823C15.9653 67.756 15.9061 67.731 15.8377 67.7004C15.7633 67.6672 15.6985 67.6404 15.6276 67.6001C15.5563 67.5596 15.4974 67.5203 15.4325 67.4702C15.3783 67.4284 15.3316 67.391 15.2881 67.3381C15.2492 67.2907 15.2011 67.2176 15.1438 67.1186L0.471376 41.7052C0.388604 41.4575 0.34128 41.2643 0.329406 41.1256C0.286856 40.6285 0.304177 40.1993 0.299775 39.7005C0.296292 39.3057 0.320381 38.9672 0.30688 38.5727C0.291867 38.134 0.241366 37.76 0.218367 37.3217C0.138673 35.8029 0.0811008 34.5004 0.0134852 32.981C0.00841277 32.867 0.0117407 32.7691 0.0106971 32.655C0.00970074 32.5461 0.00824306 32.4527 0.0076567 32.3438C0.00558792 31.9595 0.00477296 31.6301 0.00311103 31.2457C0.00269485 31.1495 0.00208513 31.067 0.00171923 30.9707C0.00136343 30.8771 -0.00150538 30.7969 0.00104903 30.7033C0.00731139 30.474 0.0035288 30.2766 0.0269054 30.0483C0.0436267 29.885 0.076763 29.7473 0.1153 29.5878C0.141637 29.4788 0.175353 29.3883 0.211955 29.2823C0.247523 29.1793 0.281324 29.0921 0.321429 28.9907C0.415183 28.7538 0.495376 28.5507 0.594385 28.3159C0.644086 28.198 0.697111 28.1016 0.746222 27.9835C0.777026 27.9094 0.793463 27.8421 0.822497 27.7673C0.86656 27.6539 0.908215 27.5581 0.955006 27.4457C0.985398 27.3727 1.0146 27.3114 1.04302 27.2376C1.07483 27.155 1.08579 27.0774 1.12704 26.9991C1.14968 26.9561 1.18839 26.9329 1.22199 26.8978C1.28267 26.8344 1.33567 26.781 1.3964 26.7176C1.44384 26.6681 1.48005 26.6212 1.53105 26.5753C1.65033 26.4682 1.76472 26.3902 1.88225 26.2811C2.03656 26.1379 2.16815 26.0134 2.30697 25.8551C2.56406 25.5619 2.78179 25.3071 3.01216 24.9925C3.12055 24.8444 3.19738 24.7048 3.27192 24.5371C3.5224 23.9737 3.71561 23.4813 3.93942 22.9068C3.98793 22.7822 4.00022 22.6654 4.04945 22.5411C4.10562 22.3993 4.17529 22.2873 4.23959 22.149C4.27549 22.0718 4.30784 22.006 4.33566 21.9255C4.38222 21.7908 4.40144 21.6685 4.45177 21.5352C4.48967 21.4348 4.55023 21.3608 4.58688 21.2599C4.64138 21.11 4.67865 20.9776 4.7112 20.8214C4.7406 20.6802 4.73965 20.555 4.76338 20.4128C4.83735 19.9697 4.91941 19.5931 4.99027 19.1495C5.01043 19.0233 5.01422 18.9134 5.02329 18.7859C5.03803 18.5788 5.043 18.4008 5.05829 18.1938C5.06975 18.0386 5.08029 17.9055 5.0997 17.7511C5.12992 17.5106 5.16963 17.3064 5.20004 17.066C5.22143 16.8969 5.23387 16.7512 5.24766 16.5813C5.26111 16.4156 5.25862 16.2723 5.27786 16.1072C5.29629 15.949 5.32817 15.8157 5.35514 15.6587C5.38036 15.5118 5.40478 15.3864 5.42697 15.239C5.44743 15.1032 5.45188 14.9848 5.47699 14.8497C5.50206 14.7149 5.54048 14.603 5.57013 14.469C5.614 14.2709 5.63483 14.0972 5.68698 13.9011C5.73963 13.7031 5.80236 13.5385 5.86909 13.3448C5.93242 13.1609 5.97567 12.9984 6.05855 12.8225C6.17295 12.5797 6.30883 12.3911 6.43101 12.1521C6.49942 12.0183 6.53557 11.893 6.60252 11.7585C6.66261 11.6377 6.7209 11.5374 6.79347 11.4236C6.86343 11.314 6.93564 11.2284 7.00922 11.1211C7.11369 10.9689 7.1984 10.8351 7.30212 10.6823C7.37665 10.5726 7.43523 10.4744 7.51849 10.3711C7.57841 10.2968 7.63728 10.2388 7.70979 10.1766C7.79155 10.1066 7.87042 10.0576 7.95783 9.99471C8.04554 9.93164 8.11919 9.87522 8.21012 9.81688C8.34491 9.73041 8.45785 9.65031 8.60233 9.58125C8.73548 9.5176 8.85454 9.46744 8.99946 9.43959C9.2492 9.3916 9.46819 9.37565 9.72232 9.36602C9.86755 9.36051 9.99418 9.36673 10.1364 9.39649C10.3082 9.43243 10.4483 9.49185 10.6131 9.55235C10.7065 9.58664 10.7857 9.6197 10.8732 9.66703C10.9793 9.72442 11.0624 9.78703 11.1649 9.85073C11.2637 9.91216 11.3488 9.9641 11.4482 10.0246C11.5439 10.0827 11.6283 10.1286 11.7221 10.1897C11.858 10.278 11.9772 10.3504 12.1042 10.4511C12.842 11.036 13.4629 11.5516 14.1918 12.1476C14.3968 12.3152 14.5686 12.4636 14.7724 12.6327C14.9857 12.8096 15.1655 12.965 15.3834 13.1361C15.6192 13.3212 15.8241 13.4763 16.0683 13.6501C16.3467 13.8481 16.5895 14.012 16.8759 14.1981C17.7846 14.7882 18.5652 15.2915 19.4828 15.8677C19.7117 16.0114 19.9214 16.1125 20.1513 16.2548C20.3709 16.3907 20.5451 16.5294 20.7666 16.6623C20.9729 16.7861 21.1534 16.8876 21.3723 16.9874C21.7166 17.1445 22.0133 17.2795 22.3736 17.3954C22.7639 17.5209 23.1086 17.5973 23.5112 17.6751C23.691 17.7098 23.8513 17.7392 24.033 17.7159C24.4861 17.6579 24.8744 17.5832 25.3097 17.4449C25.6831 17.3263 25.983 17.1665 26.3308 16.986C26.5504 16.8721 26.7401 16.7683 26.9267 16.606C27.3841 16.2081 27.7355 15.8228 28.1627 15.3927C28.299 15.2554 28.4053 15.1276 28.5363 14.9852C28.7019 14.8052 28.8477 14.6544 29.01 14.4714C29.1009 14.369 29.1757 14.2784 29.2595 14.17C29.3391 14.0668 29.3957 13.9696 29.4765 13.8673C29.5579 13.7643 29.6404 13.6867 29.7222 13.5841C29.8066 13.4783 29.87 13.3809 29.951 13.2725C30.0296 13.1676 30.1123 13.088 30.1784 12.9748C30.315 12.7408 30.4022 12.524 30.5281 12.2841C30.5919 12.1628 30.6576 12.0647 30.7203 11.9428C30.7579 11.8695 30.7819 11.8027 30.8146 11.7271C30.9102 11.5058 31.0027 11.3203 31.0867 11.0943C31.1219 10.9997 31.1251 10.9106 31.1541 10.8139C31.1847 10.7118 31.2244 10.6287 31.2566 10.5271C31.2908 10.4194 31.3107 10.3243 31.3438 10.2163C31.3864 10.0771 31.4285 9.95961 31.4728 9.82098C31.5173 9.68179 31.5511 9.56111 31.5975 9.42254C31.6404 9.29412 31.6783 9.18428 31.7279 9.05828C31.7924 8.89457 31.8547 8.75711 31.9234 8.59512C32.0121 8.38587 32.0818 8.20368 32.1776 7.9976C32.6084 7.07143 32.9882 6.28253 33.4277 5.36049C33.6483 4.89763 33.8381 4.50122 34.0636 4.04076C34.1615 3.84107 34.2488 3.67163 34.3516 3.47444C34.4762 3.23525 34.5877 3.03269 34.7133 2.79401C34.7803 2.66661 34.8288 2.55252 34.9019 2.4285C34.962 2.32655 35.029 2.2491 35.0931 2.14959C35.1494 2.06212 35.1793 1.97463 35.2457 1.89451C35.3584 1.75843 35.4697 1.65405 35.6013 1.53611C35.6808 1.46485 35.7606 1.41799 35.8472 1.35547C35.9458 1.28422 36.0322 1.22562 36.1305 1.15391C36.3334 1.00596 36.5016 0.871298 36.7077 0.727903C36.8537 0.626355 36.9681 0.513238 37.1359 0.454462C37.3867 0.366648 37.6232 0.37492 37.8823 0.316526C37.9879 0.292745 38.0728 0.252343 38.176 0.220113C38.2718 0.19022 38.3539 0.16416 38.451 0.139051C38.5441 0.11499 38.6232 0.0834979 38.7193 0.0797108C39.534 0.0476006 40.2331 0.0481706 41.0484 0.0366794C41.9558 0.0238884 42.7341 -0.0196523 43.6411 0.0103335C47.7173 0.145087 51.2105 0.288978 55.283 0.507267C56.1983 0.556327 56.9774 0.671497 57.8883 0.773987C60.4821 1.06585 62.7089 1.28979 65.2963 1.63396C65.8659 1.70973 66.3635 1.77421 66.9026 1.97304C67.4728 2.18334 67.906 2.49056 68.4342 2.79128C68.8097 3.00511 69.1168 3.21326 69.4832 3.44243C69.6447 3.54343 69.7808 3.63362 69.9423 3.73459C70.3441 3.98585 70.684 4.20877 71.0927 4.44879C71.225 4.52651 71.3485 4.57439 71.4864 4.64156C71.6618 4.72692 71.8175 4.78979 71.9879 4.88459C72.0742 4.93259 72.1404 4.98682 72.2177 5.04828C72.381 5.17815 72.5164 5.29526 72.675 5.43087C72.7939 5.53256 72.9017 5.61389 73.0106 5.72625C73.0958 5.81412 73.1474 5.908 73.2274 6.00064C73.2764 6.05742 73.3274 6.09771 73.3787 6.1525C73.4333 6.21093 73.4787 6.26244 73.5298 6.324C73.5841 6.38936 73.6252 6.44979 73.6796 6.515C73.8548 6.72479 74.0085 6.90166 74.1858 7.10959C74.2951 7.23768 74.3937 7.34334 74.4986 7.47506C74.5556 7.54672 74.6326 7.65254 74.7295 7.79252L89.3943 33.1927C89.2932 33.0451 89.2129 32.9334 89.1533 32.8578C89.0469 32.7227 88.9473 32.6137 88.8353 32.4832C88.6643 32.2839 88.5141 32.1162 88.3446 31.9155C88.2899 31.8507 88.2493 31.7898 88.1949 31.7246C88.1453 31.6653 88.1006 31.6163 88.0477 31.5599C87.9951 31.5038 87.9434 31.4618 87.8936 31.4032C87.8105 31.3055 87.7569 31.2069 87.6683 31.1141C87.5585 30.9992 87.4499 30.9156 87.329 30.8124C87.1728 30.6791 87.0372 30.567 86.8769 30.4387C86.7954 30.3735 86.7281 30.313 86.6383 30.2598C86.463 30.1558 86.3033 30.0836 86.1219 29.9909C85.9838 29.9204 85.8584 29.8732 85.7254 29.7935C85.3116 29.5454 84.9674 29.3158 84.5612 29.0554C84.3959 28.9494 84.2586 28.8516 84.0926 28.7466C83.7275 28.5158 83.4215 28.3058 83.0439 28.096C82.5281 27.8094 82.0934 27.5402 81.5422 27.3296C80.9781 27.114 80.4684 26.9973 79.875 26.885C77.1962 26.3777 74.8936 25.9736 72.1986 25.5603C71.2964 25.4219 70.5153 25.3286 69.6027 25.3097C65.6213 25.2271 62.2072 25.2731 58.225 25.2704C57.3182 25.2698 56.5403 25.2623 55.6342 25.3001C54.8435 25.3331 54.1679 25.401 53.3799 25.4725C53.2837 25.4812 53.2038 25.5064 53.11 25.5291C53.012 25.5528 52.9294 25.5786 52.8321 25.6052C52.7265 25.6341 52.6367 25.6615 52.5304 25.6878C52.2766 25.7505 52.0496 25.7714 51.8034 25.8593C51.6361 25.919 51.5088 26.0092 51.3597 26.1059C51.1493 26.2423 50.981 26.3769 50.7781 26.5243C50.6795 26.596 50.5951 26.6577 50.4982 26.7318C50.413 26.7969 50.3365 26.8491 50.2579 26.9221C50.1281 27.0424 50.0178 27.1478 49.9038 27.2831C49.8379 27.3614 49.8053 27.4459 49.7462 27.5295C49.6795 27.6237 49.6082 27.6941 49.5447 27.7906C49.4677 27.9077 49.4167 28.0172 49.3457 28.1381C49.213 28.3642 49.0938 28.5548 48.9628 28.7818C48.8542 28.97 48.7613 29.1315 48.6611 29.3242C48.4274 29.7737 48.2224 30.157 48.0092 30.6165C47.5718 31.559 47.2131 32.3744 46.8027 33.329C46.7092 33.5465 46.6565 33.7437 46.5702 33.9641C46.5062 34.1275 46.4399 34.2628 46.3735 34.4251C46.3233 34.548 46.2813 34.6539 46.237 34.779C46.1888 34.9153 46.1498 35.0331 46.1091 35.1719C46.0659 35.3196 46.0378 35.4487 45.9975 35.5972C45.9679 35.7059 45.9436 35.7994 45.9096 35.9068C45.8773 36.0089 45.8371 36.0924 45.8082 36.1955C45.78 36.2958 45.7814 36.3884 45.747 36.4867C45.6665 36.7166 45.5756 36.9054 45.4809 37.1299C45.449 37.2053 45.4236 37.2711 45.3853 37.3435C45.3218 37.4638 45.257 37.5612 45.1904 37.6799C45.0607 37.911 44.9643 38.1177 44.8246 38.3429C44.7557 38.4541 44.6758 38.5348 44.5961 38.6385C44.5143 38.7449 44.447 38.8382 44.3632 38.9431C44.2808 39.0463 44.2038 39.1296 44.1214 39.2329C44.0411 39.3336 43.9785 39.4247 43.8986 39.5257C43.8135 39.6333 43.7449 39.7297 43.6501 39.8289C43.484 40.0026 43.3227 40.1327 43.1543 40.3042C43.0185 40.4424 42.9202 40.578 42.7814 40.7131C42.3496 41.1336 41.9866 41.5033 41.525 41.8909C41.3356 42.05 41.1481 42.1563 40.9281 42.2693C40.5794 42.4485 40.276 42.5987 39.9045 42.7238C39.4761 42.868 39.0979 42.9659 38.6514 43.0357C38.4717 43.0638 38.3108 43.0385 38.1329 43.0007C37.72 42.9128 37.3703 42.8141 36.9706 42.6781C36.6101 42.5554 36.3111 42.4215 35.965 42.2627C35.7468 42.1627 35.5657 42.0634 35.3602 41.9393C35.1364 41.8041 34.9594 41.665 34.7399 41.523C34.4985 41.3668 34.2856 41.2424 34.0434 41.0875C33.1267 40.5009 32.3422 39.996 31.4287 39.4042C31.1489 39.223 30.908 39.069 30.6341 38.8788C30.3942 38.7122 30.1929 38.563 29.961 38.3853C29.748 38.222 29.5701 38.0759 29.3633 37.9048C29.1541 37.7318 28.9848 37.5717 28.7726 37.4024C28.0706 36.8424 27.4653 36.3667 26.7518 35.8214C26.6262 35.7255 26.5088 35.6567 26.376 35.571C26.2802 35.5091 26.1958 35.4597 26.0987 35.3999C25.9995 35.3389 25.9145 35.2867 25.8152 35.2259C25.7148 35.1644 25.6325 35.105 25.5282 35.0502C25.4413 35.0046 25.3628 34.9732 25.2705 34.9398C25.1056 34.8801 24.9669 34.8152 24.7942 34.7846C24.6577 34.7603 24.5363 34.7755 24.398 34.785C24.1447 34.8024 23.9266 34.8165 23.6767 34.8614C23.5302 34.8877 23.4078 34.9299 23.2706 34.9875C23.1229 35.0495 23.0041 35.1204 22.866 35.2016C22.773 35.2563 22.6985 35.3116 22.6111 35.3749C22.5237 35.4383 22.4458 35.4897 22.3669 35.5634C22.2957 35.6299 22.244 35.6964 22.1845 35.7734C22.1037 35.8781 22.0408 35.9726 21.9667 36.0821C21.8627 36.2355 21.7803 36.3714 21.6758 36.5244C21.6026 36.6316 21.5298 36.7164 21.4591 36.8252C21.386 36.9376 21.3286 37.0374 21.2656 37.1557C21.197 37.2845 21.1523 37.4021 21.0833 37.5307C20.9569 37.766 20.8255 37.9554 20.7074 38.1951C20.6235 38.3653 20.5715 38.5205 20.5074 38.6991C20.4381 38.8925 20.3779 39.0585 20.3265 39.2574C20.275 39.4562 20.2578 39.6325 20.2141 39.8332C20.1851 39.9662 20.1457 40.0768 20.1189 40.2102C20.0926 40.3416 20.0839 40.4565 20.0626 40.5887C20.039 40.7359 20.0172 40.8617 19.9908 41.0084C19.9631 41.1623 19.9286 41.2924 19.908 41.4474C19.8866 41.6083 19.8851 41.748 19.871 41.9097C19.8561 42.0805 19.8458 42.2272 19.8251 42.3975C19.7958 42.6398 19.7565 42.8458 19.7281 43.0883C19.7097 43.2455 19.701 43.3811 19.6914 43.5391C19.6786 43.7507 19.6764 43.9326 19.6639 44.1442C19.6563 44.2735 19.6526 44.3848 19.6338 44.5129C19.5675 44.9648 19.4898 45.3488 19.4209 45.8003C19.3987 45.9455 19.4003 46.0729 19.3735 46.2173C19.3435 46.3789 19.3118 46.5171 19.259 46.6727C19.2243 46.7747 19.1644 46.8496 19.1249 46.9498C19.074 47.0789 19.0494 47.1965 19.001 47.3266C18.9716 47.4057 18.9419 47.4719 18.9029 47.5466C18.8352 47.6764 18.7568 47.7769 18.6962 47.9101C18.6425 48.0282 18.6274 48.1415 18.578 48.2615C18.3458 48.8242 18.1458 49.3064 17.8919 49.8596C17.8151 50.027 17.7364 50.1652 17.634 50.3183C17.4117 50.6506 17.2132 50.9306 16.9656 51.2445C16.8338 51.4115 16.7051 51.5422 16.552 51.6898C16.4366 51.801 16.3175 51.8736 16.1998 51.9823C16.1485 52.0297 16.1167 52.0818 16.0708 52.1345C16.0124 52.2015 15.9618 52.2585 15.9019 52.3241C15.8692 52.3599 15.8313 52.3828 15.8063 52.4243C15.7633 52.4957 15.7435 52.5659 15.7105 52.6424C15.6792 52.715 15.6528 52.7774 15.6223 52.8503C15.5755 52.9625 15.5338 53.0581 15.4895 53.1714C15.4604 53.246 15.4434 53.3129 15.4129 53.387C15.364 53.5059 15.315 53.6048 15.2628 53.7223C15.1618 53.9496 15.0721 54.143 14.9754 54.3722C14.9331 54.4726 14.9015 54.5606 14.8658 54.6635C14.8292 54.7693 14.7939 54.8593 14.7688 54.9684C14.7312 55.1317 14.7026 55.2733 14.6869 55.4402C14.6654 55.6696 14.6688 55.8678 14.6627 56.0981C14.6603 56.1912 14.6627 56.271 14.6626 56.3642C14.6625 56.4592 14.6619 56.5406 14.662 56.6356C14.6622 57.0181 14.6629 57.346 14.6635 57.7284C14.6636 57.8358 14.6635 57.9278 14.6639 58.0352C14.6644 58.1489 14.6627 58.2463 14.666 58.36C14.7089 59.8339 14.7367 61.0976 14.796 62.5709C14.8137 63.0105 14.8659 63.3851 14.886 63.8245C14.9049 64.236 14.8894 64.5897 14.9072 65.0013C14.9306 65.5411 14.9436 66.0051 15.0036 66.542C15.019 66.6797 15.0657 66.8719 15.1438 67.1186L0.471376 41.7052C0.529976 41.8063 0.579048 41.8812 0.618593 41.9298C0.663253 41.9847 0.710786 42.0239 0.766368 42.0677C0.832018 42.1195 0.891363 42.1604 0.963943 42.2019C1.03399 42.2419 1.0987 42.2674 1.17262 42.2997C1.24044 42.3294 1.29934 42.3531 1.36874 42.3788C1.44459 42.4069 1.51159 42.4254 1.58747 42.4534C1.66617 42.4825 1.72895 42.5212 1.81029 42.5418C2.17696 42.6345 2.49834 42.684 2.86509 42.7764C3.07575 42.8295 3.25002 42.8974 3.45892 42.957C3.67084 43.0175 3.85496 43.0602 4.06725 43.1194C4.23008 43.1647 4.3665 43.215 4.53061 43.2554C4.74829 43.3091 4.9383 43.3401 5.15729 43.3882C5.34381 43.4291 5.50124 43.4759 5.68916 43.5098C6.14162 43.5914 6.53337 43.6384 6.98615 43.7182C7.20584 43.757 7.39001 43.8118 7.61004 43.8486C7.94421 43.9043 8.23447 43.927 8.56871 43.9823C8.69236 44.0027 8.79303 44.0476 8.91716 44.0649C9.33102 44.1226 9.68821 44.1528 10.1038 44.1964C10.4366 44.2313 10.7213 44.271 11.0555 44.2891C11.352 44.3052 11.6069 44.291 11.9038 44.2939C12.0852 44.2957 12.241 44.2899 12.4219 44.3025C13.5837 44.3836 14.5801 44.4493 15.7394 44.5616C16.1524 44.6017 16.5022 44.6716 16.9119 44.7378C17.2815 44.7975 17.5983 44.8498 17.9658 44.9213C18.4699 45.0195 18.9027 45.1022 19.402 45.2227C19.578 45.2652 19.7191 45.3354 19.8928 45.3865C20.1541 45.4632 20.3808 45.5193 20.6443 45.5877C20.8894 45.6513 21.1012 45.6988 21.3459 45.7637C21.6605 45.8472 21.9298 45.9203 22.2423 46.0115C22.5142 46.0908 22.7443 46.1686 23.0153 46.251C23.2226 46.314 23.4005 46.3675 23.609 46.4266C23.7957 46.4796 23.9567 46.5214 24.1442 46.5714C24.5118 46.6694 24.8295 46.744 25.1951 46.8494C25.5285 46.9455 25.8066 47.0535 26.1407 47.1468C26.8412 47.3425 27.4475 47.488 28.1504 47.6749C28.422 47.7471 28.6527 47.8168 28.9248 47.8869C29.18 47.9526 29.3999 48.0048 29.6569 48.0628C29.9334 48.1252 30.1703 48.1795 30.4491 48.2308C31.7684 48.4735 32.9056 48.647 34.2225 48.9026C34.6159 48.979 34.9443 49.0836 35.3335 49.179C35.6744 49.2625 35.9675 49.3306 36.3085 49.4137C36.5915 49.4826 36.8325 49.5477 37.1163 49.6133C37.4186 49.6831 37.678 49.7431 37.9829 49.8004C38.4444 49.8873 38.843 49.9441 39.3055 50.0252C40.8923 50.3036 42.2601 50.503 43.8381 50.8275C44.4724 50.9579 44.9963 51.1511 45.6203 51.3237C45.9384 51.4116 46.2127 51.4806 46.5298 51.5717C46.7141 51.6246 46.8713 51.673 47.0528 51.7349C47.3069 51.8217 47.5236 51.8998 47.7742 51.9963C47.9635 52.0692 48.1207 52.1439 48.3092 52.2188C48.7713 52.4023 49.1756 52.5391 49.6328 52.7344C49.7909 52.8019 49.9174 52.8797 50.0645 52.9685C50.2297 53.0683 50.3632 53.1666 50.5243 53.2729C50.6109 53.33 50.6865 53.3769 50.7722 53.4353C50.8685 53.5009 50.9482 53.5614 51.0444 53.6272C51.1392 53.6921 51.2236 53.7431 51.3179 53.8087C51.3981 53.8645 51.4595 53.9229 51.5427 53.9742C51.7244 54.0861 51.8855 54.1734 52.0737 54.2742C52.3853 54.441 52.6565 54.5764 52.9706 54.7386C53.1727 54.843 53.3443 54.9358 53.5485 55.0361C53.7346 55.1275 53.8989 55.1957 54.0853 55.2862C54.3207 55.4005 54.5176 55.5085 54.7537 55.6213C55.0605 55.7679 55.3252 55.8901 55.6364 56.0272C55.8372 56.1157 56.0139 56.1808 56.2161 56.266C56.5979 56.4266 56.9175 56.5833 57.305 56.7295C57.6279 56.8513 57.9139 56.9298 58.2439 57.0311C58.4883 57.1061 58.6991 57.1661 58.9458 57.2332C59.493 57.3822 59.9644 57.5009 60.512 57.6485C60.7875 57.7229 61.0223 57.7915 61.2974 57.8674C61.5559 57.9387 61.7772 58.0008 62.0366 58.069C62.2929 58.1364 62.5137 58.1897 62.7706 58.2545C63.4695 58.4311 64.0707 58.5743 64.7676 58.7589C64.9964 58.8195 65.1891 58.8838 65.4147 58.9552C65.7887 59.0735 66.105 59.188 66.4806 59.301C66.7407 59.3792 66.9696 59.4252 67.2304 59.5013C67.6522 59.6242 68.0116 59.7372 68.4307 59.8695C68.7026 59.9554 68.9326 60.0385 69.2044 60.1247C69.4826 60.2128 69.7227 60.2831 70.0021 60.3676C70.2943 60.4559 70.5446 60.5318 70.8374 60.6181C71.1367 60.7064 71.394 60.7796 71.6938 60.8666C72.3165 61.0475 72.8535 61.1914 73.4728 61.3835C73.9788 61.5404 74.407 61.692 74.9082 61.8637C76.6565 62.4623 78.1593 62.9634 79.8998 63.5843C80.4697 63.7876 80.945 63.9968 81.5081 64.2179C81.8774 64.3629 82.192 64.4922 82.5638 64.6304C82.916 64.7613 83.2306 64.8402 83.5766 64.9868C84.0802 65.2002 84.5163 65.3805 84.9879 65.6576C85.4029 65.9014 85.7004 66.1982 86.0986 66.4687C86.1816 66.5251 86.2635 66.5582 86.359 66.5889C86.4093 66.6051 86.4566 66.5992 86.5094 66.6009C86.5147 66.6011 86.5219 66.5988 86.5311 66.5943L86.5311 66.5943Z" sodipodi:nodetypes="cccccccccccccccccccccccccccccccccccccccccccccccccccccccccccccccccccccccccccccccccccccccccccccccccccccccccccccccccccccccccccccccccccccccccccccccccccccccccccccccccccccccccccccccccccccccccccccccccccccccccccccccccccccccccccccccccccccccccccccccccccccccccccccccccccccccccccccccccccccccccccccccccccccccccccccccccccccccccccccccccccccccccccccccccccccccccccccccccccccccccccccccccccccccccccccccccccccccccccccccccccccccccccccccccccccccccccccccccccccccccccccccccccccccccccccccccccccc"/>
</svg>
